<svg width="20" height="20" viewBox="0 0 20 20" fill="none" xmlns="http://www.w3.org/2000/svg">
<path d="M15 20V17H12V15.5H15V12.5H16.5V15.5H19.5V17H16.5V20H15ZM2 18C1.6 18 1.25 17.85 0.95 17.55C0.65 17.25 0.5 16.9 0.5 16.5V3C0.5 2.6 0.65 2.25 0.95 1.95C1.25 1.65 1.6 1.5 2 1.5H3.625V0H5.25V1.5H11.75V0H13.375V1.5H15C15.4 1.5 15.75 1.65 16.05 1.95C16.35 2.25 16.5 2.6 16.5 3V10.55C16.25 10.5167 16 10.5 15.75 10.5C15.5 10.5 15.25 10.5167 15 10.55V7.75H2V16.5H10C10 16.75 10.025 17 10.075 17.25C10.125 17.5 10.1917 17.75 10.275 18H2ZM2 6.25H15V3H2V6.25Z" fill="white"/>
</svg>
