<svg width="331" height="242" viewBox="0 0 331 242" fill="none" xmlns="http://www.w3.org/2000/svg">
<path d="M245.35 83.4144C267.618 83.4144 285.67 65.3626 285.67 43.0945C285.67 20.8264 267.618 2.77441 245.35 2.77441C223.082 2.77441 205.03 20.8264 205.03 43.0945C205.03 65.3626 223.082 83.4144 245.35 83.4144Z" fill="#0F1134"/>
<path d="M206.877 41.8012C215.697 41.8012 222.847 34.6515 222.847 25.832C222.847 17.0124 215.697 9.86279 206.877 9.86279C198.058 9.86279 190.908 17.0124 190.908 25.832C190.908 34.6515 198.058 41.8012 206.877 41.8012Z" fill="#0F1134"/>
<path d="M216.14 24.9496C222.881 24.9496 228.345 19.4854 228.345 12.7448C228.345 6.0043 222.881 0.540039 216.14 0.540039C209.4 0.540039 203.936 6.0043 203.936 12.7448C203.936 19.4854 209.4 24.9496 216.14 24.9496Z" fill="#0F1134"/>
<path d="M229.94 24.9496C236.681 24.9496 242.145 19.4854 242.145 12.7448C242.145 6.0043 236.681 0.540039 229.94 0.540039C223.2 0.540039 217.735 6.0043 217.735 12.7448C217.735 19.4854 223.2 24.9496 229.94 24.9496Z" fill="#0F1134"/>
<path d="M160.239 240.341H285.522C305.521 240.341 322.166 225.048 323.872 205.138L328.754 148.231C330.43 128.645 318.637 110.411 300.08 103.912L268.23 92.7656L237.085 111.529C223.322 119.822 212.293 131.997 205.382 146.526L179.09 201.874L160.269 240.312L160.239 240.341Z" fill="white"/>
<path d="M285.523 241.429H158.534L178.121 201.462L204.412 146.114C211.412 131.351 222.529 119.087 236.527 110.647L268.083 91.6191L268.554 91.7956L300.434 102.942C319.461 109.588 331.548 128.263 329.843 148.349L324.961 205.256C323.196 225.901 306.256 241.459 285.523 241.459V241.429ZM161.946 239.283H285.523C305.11 239.283 321.138 224.578 322.814 205.05L327.696 148.144C329.343 129.028 317.844 111.264 299.728 104.941L268.319 93.9718L237.616 112.5C223.97 120.734 213.147 132.674 206.324 147.055L180.032 202.403L161.946 239.312V239.283Z" fill="#0F1134"/>
<path d="M255.055 56.8292L277.964 97.3257C275.671 103.884 271.641 109.031 265.995 111.824C263.172 113.236 260.143 113.971 256.966 114.089C251.379 114.295 246.291 110.825 243.82 105.825L226.675 71.3868L255.084 56.7998L255.055 56.8292Z" fill="white"/>
<path d="M256.495 115.177C250.878 115.177 245.555 111.737 242.849 106.325L225.233 70.9461L255.496 55.418L279.14 97.2378L278.964 97.7084C276.494 104.767 272.171 109.972 266.465 112.825C263.554 114.266 260.377 115.06 256.995 115.177C256.819 115.177 256.672 115.177 256.495 115.177ZM228.086 71.8871L244.761 105.384C247.173 110.207 252.025 113.266 256.907 113.031C259.966 112.913 262.877 112.207 265.495 110.884C270.553 108.355 274.464 103.708 276.758 97.4437L254.613 58.2413L228.057 71.8578L228.086 71.8871Z" fill="#0F1134"/>
<path d="M271.047 85.1221C268.724 91.5333 264.753 96.5916 259.195 99.3561C253.725 102.062 247.461 102.238 241.079 100.356L244.402 107.032C246.373 110.973 250.196 113.825 254.578 114.09C258.607 114.325 262.459 113.62 265.989 111.855C271.635 109.032 275.664 103.915 277.958 97.3563L271.047 85.1221Z" fill="white"/>
<path d="M256.08 115.178C255.55 115.178 255.05 115.178 254.521 115.119C249.904 114.855 245.669 111.914 243.463 107.473L239.052 98.6209L241.404 99.3267C247.757 101.209 253.756 100.885 258.756 98.3856C263.844 95.8564 267.755 91.1215 270.078 84.7397L270.873 82.5635L279.166 97.2386L278.989 97.7092C276.519 104.767 272.196 109.973 266.491 112.826C263.314 114.414 259.815 115.208 256.109 115.208L256.08 115.178ZM243.081 101.974L245.345 106.532C247.228 110.296 250.786 112.767 254.639 113.002C258.609 113.208 262.256 112.531 265.52 110.885C270.578 108.355 274.49 103.709 276.784 97.4445L271.225 87.5924C268.667 93.4448 264.697 97.8269 259.668 100.327C254.786 102.768 249.11 103.326 243.081 101.974Z" fill="#0F1134"/>
<path d="M272.092 62.2425C274.353 55.4972 270.717 48.1962 263.972 45.9353C257.227 43.6745 249.926 47.3098 247.665 54.0551C245.404 60.8004 249.039 68.1014 255.785 70.3622C262.53 72.6231 269.831 68.9877 272.092 62.2425Z" fill="white"/>
<path d="M248.283 79.0634C248.283 79.0634 236.255 100.65 224.491 96.3266C219.168 94.3562 213.933 86.0334 209.316 75.0931C209.14 74.7108 204.758 78.7693 203.963 74.5638C201.523 61.3591 202.375 42.8607 208.022 30.7441C208.022 30.7441 232.461 62.9472 249.989 56.0361L248.283 79.0928V79.0634Z" fill="white"/>
<path d="M227.698 97.9725C226.492 97.9725 225.315 97.7666 224.08 97.3255C219.051 95.4727 213.905 88.4734 208.729 76.5333C207.611 77.1508 205.994 77.9743 204.582 77.3273C203.7 76.9155 203.141 76.0627 202.876 74.7687C200.612 62.4756 200.935 43.3009 207.023 30.302C207.17 29.9491 207.494 29.7432 207.876 29.6844C208.258 29.6549 208.611 29.802 208.846 30.0961C209.082 30.4196 232.991 61.5934 249.578 55.0351C250.137 54.8293 250.754 55.0939 250.96 55.6233C251.166 56.1821 250.901 56.7996 250.372 57.0055C242.696 60.0347 233.05 56.5938 221.698 46.7712C215.463 41.3599 210.405 35.4192 208.258 32.7724C203.053 45.3007 202.876 62.858 204.994 74.3276C205.082 74.8569 205.258 75.2392 205.464 75.3275C206.023 75.5921 207.405 74.798 207.964 74.4451C208.611 74.0628 209.023 73.8276 209.581 74.004C209.876 74.0922 210.14 74.3276 210.258 74.6217C215.258 86.4736 220.286 93.5906 224.815 95.2669C235.579 99.2371 247.196 78.7095 247.314 78.5036C247.608 77.9743 248.255 77.7978 248.755 78.0919C249.284 78.386 249.46 79.033 249.166 79.533C248.696 80.3564 238.785 97.9137 227.668 97.9137L227.698 97.9725Z" fill="#0F1134"/>
<path d="M259.992 62.7125C259.55 62.7125 259.139 62.4479 258.992 62.0067C257.58 58.2424 257.815 53.0663 260.962 50.4195C261.403 50.0372 262.08 50.096 262.462 50.5372C262.844 50.9783 262.785 51.6547 262.344 52.037C259.992 54.0368 259.874 58.2718 260.992 61.2715C261.197 61.8303 260.903 62.4479 260.374 62.6538C260.256 62.7126 260.139 62.7125 259.992 62.7125Z" fill="#0F1134"/>
<path d="M227.876 80.6491C224.611 80.6491 221.141 79.5904 220.553 79.3846C220.2 79.2669 219.935 79.0022 219.847 78.6493C219.759 78.2964 219.847 77.9141 220.082 77.6494L229.199 67.7385C229.435 67.5032 229.758 67.3562 230.082 67.3856C230.405 67.3856 230.699 67.5915 230.875 67.8856C234.14 73.0028 234.934 76.5318 233.228 78.7081C232.081 80.1786 229.993 80.6491 227.846 80.6491H227.876ZM222.847 77.8259C226.082 78.6199 230.317 79.0316 231.552 77.4141C232.464 76.2377 231.846 73.7085 229.817 70.2383L222.847 77.8259Z" fill="#0F1134"/>
<path d="M212.994 63.2709C212.994 65.0943 214.082 66.5942 215.405 66.5648C216.729 66.5648 217.787 65.0649 217.758 63.2415C217.729 61.4181 216.67 59.9183 215.346 59.9477C214.023 59.9477 212.964 61.4476 212.994 63.2709Z" fill="#0F1134"/>
<path d="M218.586 57.1526C218.38 57.1526 218.204 57.0937 218.027 56.9761C216.674 56.1232 215.116 55.5644 213.557 55.3585C212.969 55.2997 212.557 54.7409 212.616 54.1528C212.675 53.5646 213.233 53.1528 213.822 53.2116C215.704 53.4469 217.557 54.1234 219.174 55.1233C219.674 55.4468 219.821 56.0938 219.498 56.5938C219.292 56.9173 218.939 57.0937 218.586 57.0937V57.1526Z" fill="#0F1134"/>
<path d="M184.851 239.196H218.583C218.583 239.196 221.289 229.609 218.583 224.344C215.878 219.08 201.497 211.404 192.056 215.257C182.616 219.08 184.851 239.196 184.851 239.196Z" fill="white"/>
<path d="M218.583 240.285H184.85C184.292 240.285 183.851 239.873 183.792 239.344C183.704 238.491 181.557 218.375 191.644 214.287C201.673 210.229 216.701 218.346 219.524 223.875C222.377 229.463 219.73 239.079 219.612 239.491C219.495 239.962 219.053 240.256 218.583 240.256V240.285ZM185.821 238.138H217.73C218.289 235.815 219.671 228.845 217.612 224.845C215.113 219.993 201.32 212.641 192.438 216.258C184.968 219.287 185.527 234.197 185.821 238.138Z" fill="#0F1134"/>
<path d="M77.624 240.341H199.437C199.437 235.048 195.143 230.725 189.82 230.725H77.624V240.341Z" fill="#0F1134"/>
<path d="M200.498 241.431H76.5381V229.696H189.822C195.704 229.696 200.498 234.49 200.498 240.372V241.431ZM78.685 239.284H198.292C197.763 235.078 194.175 231.814 189.822 231.814H78.685V239.284Z" fill="#0F1134"/>
<path d="M137.71 240.343H26.9554L2.60462 166.791C0.251888 159.673 5.54551 152.351 13.0448 152.351H100.655C105.39 152.351 109.595 155.38 111.095 159.879L137.71 240.343Z" fill="#0F1134"/>
<path d="M139.18 241.43H26.1605L1.57448 167.143C0.339293 163.437 0.956907 159.467 3.25082 156.291C5.54474 153.114 9.10318 151.291 13.0146 151.291H100.625C105.83 151.291 110.418 154.614 112.065 159.555L139.151 241.43H139.18ZM27.7192 239.283H136.239L110.094 160.231C108.742 156.173 104.977 153.438 100.683 153.438H13.0735C9.83847 153.438 6.92693 154.938 5.04474 157.555C3.16255 160.173 2.66259 163.408 3.66251 166.466L27.7486 239.283H27.7192Z" fill="#0F1134"/>
<path d="M217.881 222.082C217.469 222.082 217.086 221.846 216.91 221.435C216.675 220.905 216.91 220.258 217.469 220.023L272.346 196.143L289.11 143.206C289.286 142.647 289.874 142.324 290.462 142.5C291.021 142.677 291.345 143.265 291.168 143.853L274.258 197.26C274.17 197.554 273.935 197.79 273.67 197.907L218.351 221.993C218.351 221.993 218.057 222.082 217.939 222.082H217.881Z" fill="#0F1134"/>
<path d="M203.846 215.638C203.699 215.638 203.523 215.608 203.376 215.52C202.846 215.255 202.641 214.608 202.905 214.079L232.726 153.996C232.991 153.467 233.638 153.261 234.167 153.525C234.697 153.79 234.902 154.437 234.638 154.966L204.817 215.049C204.64 215.432 204.258 215.638 203.846 215.638Z" fill="#0F1134"/>
<path d="M172.53 206.548L169.324 206.225C166.589 205.93 163.854 206.077 161.178 206.607L148.032 209.224C145.356 209.754 144.238 212.93 145.944 215.047C147.708 217.224 150.326 218.488 153.119 218.488L169.089 215.812L172.559 206.577L172.53 206.548Z" fill="white"/>
<path d="M153.118 219.518C150.001 219.518 147.06 218.135 145.089 215.694C144.06 214.4 143.766 212.724 144.325 211.165C144.884 209.607 146.177 208.489 147.795 208.166L160.941 205.548C163.735 204.99 166.588 204.872 169.411 205.166L172.616 205.49C172.94 205.519 173.234 205.695 173.41 205.989C173.587 206.284 173.616 206.607 173.499 206.931L170.028 216.165C169.881 216.518 169.587 216.783 169.205 216.841L153.236 219.518C153.236 219.518 153.118 219.518 153.059 219.518H153.118ZM166.499 207.107C164.794 207.107 163.088 207.283 161.382 207.607L148.236 210.224C147.354 210.401 146.648 211.018 146.354 211.842C146.06 212.695 146.207 213.606 146.766 214.312C148.295 216.224 150.589 217.312 153.03 217.341L168.293 214.783L171.058 207.43L169.234 207.225C168.323 207.136 167.411 207.078 166.499 207.078V207.107Z" fill="#0F1134"/>
<path d="M178.679 208.081L173.268 206.728C170.915 206.14 168.416 206.846 166.71 208.581L152.623 223.021C150.77 225.021 151.711 228.256 154.358 228.961C157.064 229.697 159.916 229.138 162.181 227.52L172.151 215.757L178.679 208.081Z" fill="white"/>
<path d="M156.741 230.344C155.859 230.344 154.947 230.227 154.065 229.991C152.477 229.55 151.241 228.374 150.771 226.786C150.3 225.198 150.712 223.521 151.83 222.316L165.946 207.846C167.887 205.847 170.798 205.023 173.533 205.699L178.945 207.052C179.298 207.141 179.592 207.405 179.709 207.758C179.827 208.111 179.739 208.493 179.504 208.787L162.976 228.227C162.976 228.227 162.858 228.345 162.799 228.403C161.005 229.697 158.888 230.374 156.741 230.374V230.344ZM171.622 207.582C170.093 207.582 168.593 208.199 167.475 209.317L153.388 223.757C152.8 224.404 152.594 225.315 152.829 226.168C153.065 227.021 153.741 227.698 154.623 227.903C156.976 228.521 159.447 228.08 161.446 226.698L176.769 208.67L173.034 207.729C172.563 207.611 172.122 207.552 171.651 207.552L171.622 207.582Z" fill="#0F1134"/>
<path d="M191.94 210.962L183.264 207.874C180.911 207.285 178.412 207.991 176.706 209.726L165.678 223.019C163.825 225.019 164.766 228.254 167.413 228.96C170.118 229.695 172.971 229.136 175.235 227.519L184.646 217.696L191.94 210.962Z" fill="white"/>
<path d="M169.796 230.342C168.913 230.342 168.002 230.225 167.119 229.989C165.531 229.548 164.296 228.372 163.826 226.784C163.355 225.196 163.767 223.519 164.884 222.313L175.883 209.05C177.883 206.991 180.795 206.168 183.53 206.844L192.294 209.962C192.646 210.079 192.911 210.373 192.97 210.756C193.058 211.109 192.911 211.491 192.646 211.756L185.353 218.49L176.001 228.284C176.001 228.284 175.913 228.372 175.854 228.401C174.06 229.695 171.943 230.372 169.796 230.372V230.342ZM181.589 208.726C180.089 208.726 178.56 209.344 177.442 210.491L166.472 223.725C165.825 224.431 165.619 225.343 165.855 226.195C166.09 227.048 166.766 227.725 167.649 227.931C170.001 228.578 172.501 228.107 174.501 226.695L183.853 216.932L189.911 211.373L182.912 208.873C182.5 208.756 182.059 208.726 181.618 208.726H181.589Z" fill="#0F1134"/>
<path d="M209.789 217.318L192.82 211.2C190.702 210.671 188.467 211.318 186.938 212.877L177.056 224.787C175.41 226.581 176.233 229.493 178.586 230.111C180.997 230.758 183.585 230.287 185.615 228.817L191.702 221.552L209.759 217.318H209.789Z" fill="white"/>
<path d="M180.762 231.433C179.939 231.433 179.145 231.315 178.321 231.11C176.851 230.727 175.733 229.61 175.292 228.139C174.88 226.669 175.233 225.14 176.263 224.022L186.115 212.141C187.967 210.258 190.585 209.494 193.085 210.111C193.114 210.111 193.143 210.111 193.202 210.141L210.171 216.258C210.73 216.464 211.024 217.081 210.818 217.64C210.613 218.199 209.995 218.493 209.436 218.287L192.526 212.17C190.791 211.758 188.967 212.288 187.732 213.552L177.91 225.404C177.351 226.022 177.174 226.786 177.38 227.522C177.586 228.257 178.174 228.816 178.909 229.022C180.968 229.58 183.174 229.198 184.909 227.963L190.908 220.816C191.291 220.375 191.967 220.316 192.408 220.699C192.849 221.081 192.908 221.757 192.526 222.199L186.438 229.463C186.438 229.463 186.32 229.58 186.262 229.639C184.644 230.815 182.733 231.433 180.762 231.433Z" fill="#0F1134"/>
<path d="M68.2833 203.584C71.3268 200.54 71.3268 195.606 68.2833 192.562C65.2398 189.519 60.3053 189.519 57.2618 192.562C54.2182 195.606 54.2182 200.54 57.2618 203.584C60.3053 206.628 65.2398 206.628 68.2833 203.584Z" fill="#BCCF0D"/>
<path d="M110.004 143.941C79.7123 143.941 55.0674 119.296 55.0674 89.0047C55.0674 58.7132 79.7123 34.0684 110.004 34.0684C140.295 34.0684 164.94 58.7132 164.94 89.0047C164.94 119.296 140.295 143.941 110.004 143.941ZM110.004 57.8898C92.8582 57.8898 78.8888 71.8591 78.8888 89.0047C78.8888 106.15 92.8582 120.12 110.004 120.12C127.149 120.12 141.119 106.15 141.119 89.0047C141.119 71.8591 127.149 57.8898 110.004 57.8898Z" fill="white"/>
<path d="M110.006 35.1263C139.768 35.1263 163.883 59.2419 163.883 89.0039C163.883 118.766 139.768 142.882 110.006 142.882C80.2438 142.882 56.1282 118.766 56.1282 89.0039C56.1282 59.2419 80.2438 35.1263 110.006 35.1263ZM110.006 121.178C127.769 121.178 142.18 106.767 142.18 89.0039C142.18 71.2408 127.769 56.8303 110.006 56.8303C92.2427 56.8303 77.8322 71.2408 77.8322 89.0039C77.8322 106.767 92.2427 121.178 110.006 121.178ZM110.006 32.9795C79.1262 32.9795 54.0107 58.0949 54.0107 88.9745C54.0107 119.854 79.1262 144.97 110.006 144.97C140.885 144.97 166.001 119.854 166.001 88.9745C166.001 58.0949 140.885 32.9795 110.006 32.9795ZM110.006 119.031C93.4485 119.031 79.9497 105.561 79.9497 88.9745C79.9497 72.3877 93.4191 58.9183 110.006 58.9183C126.593 58.9183 140.062 72.3877 140.062 88.9745C140.062 105.561 126.593 119.031 110.006 119.031Z" fill="#0F1134"/>
<path d="M110.005 35.1251C109.681 35.1251 109.328 35.1251 109.005 35.1251V56.7996C109.328 56.7996 109.652 56.7996 110.005 56.7996C127.768 56.7996 142.178 71.2101 142.178 88.9733C142.178 94.9139 140.561 100.502 137.738 105.266L156.501 116.118C161.177 108.148 163.853 98.8842 163.853 88.9733C163.853 59.2112 139.737 35.0957 109.975 35.0957L110.005 35.1251Z" fill="#BCCF0D"/>
<path d="M66.8074 59.8588L83.3648 70.9461C88.9819 62.6822 98.3047 57.1826 108.951 56.8591V35.1846C90.8053 35.5375 74.8361 44.8602 65.3369 58.8884L66.8074 59.8883V59.8588Z" fill="#0F1134"/>
<path d="M68.0391 121.499V88.8838H39.7768H11.5439V121.499H39.7768H68.0391Z" fill="white"/>
<path d="M68.0411 122.556H11.546C10.9578 122.556 10.4873 122.086 10.4873 121.498V88.8829C10.4873 88.2947 10.9578 87.8242 11.546 87.8242H68.0411C68.6293 87.8242 69.0998 88.2947 69.0998 88.8829V121.498C69.0998 122.086 68.6293 122.556 68.0411 122.556ZM12.6342 120.41H66.9823V89.9417H12.6342V120.41Z" fill="#0F1134"/>
<path d="M68.0391 121.499V88.8838L39.7768 106.882L11.5439 88.8838V121.499H39.7768H68.0391Z" fill="white"/>
<path d="M68.0411 122.557H11.546C10.9578 122.557 10.4873 122.086 10.4873 121.498V88.8833C10.4873 88.501 10.6932 88.1481 11.0461 87.9423C11.399 87.7658 11.8107 87.7657 12.1342 87.9716L39.8083 105.617L67.4823 87.9716C67.8058 87.7657 68.2175 87.7364 68.5704 87.9423C68.9234 88.1187 69.1292 88.501 69.1292 88.8833V121.498C69.1292 122.086 68.6586 122.557 68.0704 122.557H68.0411ZM12.6342 120.41H66.9823V90.8243L40.3965 107.793C40.0436 108.029 39.6024 108.029 39.2495 107.793L12.6636 90.8243V120.41H12.6342Z" fill="#0F1134"/>
<path d="M68.0425 93.9736V88.8857L39.7803 106.884L68.0425 93.9736Z" fill="#0F1134"/>
<path d="M171.616 14.6846H130.943C124.62 14.6846 119.503 19.8017 119.503 26.1247V34.6533C119.503 40.9763 124.62 46.0936 130.943 46.0936H131.972V57.5926L144.471 46.0936H171.616C177.939 46.0936 183.056 40.9763 183.056 34.6533V26.1247C183.056 19.8017 177.939 14.6846 171.616 14.6846Z" fill="white"/>
<path d="M132.004 58.6523C132.004 58.6523 131.71 58.6229 131.563 58.564C131.181 58.3876 130.916 58.0053 130.916 57.5936V47.1827C124.034 47.1827 118.446 41.5655 118.446 34.6838V26.1552C118.446 19.2734 124.063 13.6562 130.945 13.6562H171.618C178.5 13.6562 184.117 19.2734 184.117 26.1552V34.6838C184.117 41.5655 178.5 47.1827 171.618 47.1827H144.885L132.68 58.3876C132.474 58.564 132.21 58.6817 131.945 58.6817L132.004 58.6523ZM130.975 15.7737C125.269 15.7737 120.593 20.4204 120.593 26.1552V34.6838C120.593 40.3892 125.24 45.0358 130.975 45.0358H132.004C132.592 45.0358 133.063 45.5064 133.063 46.0946V55.1526L143.768 45.3006C143.974 45.1241 144.209 45.0064 144.503 45.0064H171.648C177.353 45.0064 182.029 40.3597 182.029 34.6544V26.1257C182.029 20.4203 177.382 15.7443 171.648 15.7443H130.975V15.7737Z" fill="#0F1134"/>
<path d="M167.618 24.9505H135.474C134.886 24.9505 134.415 24.48 134.415 23.8918C134.415 23.3036 134.886 22.833 135.474 22.833H167.618C168.206 22.833 168.677 23.3036 168.677 23.8918C168.677 24.48 168.206 24.9505 167.618 24.9505Z" fill="#0F1134"/>
<path d="M167.618 31.5677H135.474C134.886 31.5677 134.415 31.0972 134.415 30.509C134.415 29.9208 134.886 29.4502 135.474 29.4502H167.618C168.206 29.4502 168.677 29.9208 168.677 30.509C168.677 31.0972 168.206 31.5677 167.618 31.5677Z" fill="#0F1134"/>
<path d="M167.618 38.1556H135.474C134.886 38.1556 134.415 37.685 134.415 37.0969C134.415 36.5087 134.886 36.0381 135.474 36.0381H167.618C168.206 36.0381 168.677 36.5087 168.677 37.0969C168.677 37.685 168.206 38.1556 167.618 38.1556Z" fill="#0F1134"/>
</svg>
