<svg width="164" height="46" viewBox="0 0 164 46" fill="none" xmlns="http://www.w3.org/2000/svg">
<path d="M43.6 30.75C43.12 30.75 42.73 31.14 42.73 31.62C42.73 32.1 43.12 32.49 43.6 32.49C44.08 32.49 44.47 32.1 44.47 31.62C44.47 31.14 44.08 30.75 43.6 30.75Z" fill="white"/>
<path d="M48.59 33.23C48.11 33.23 47.72 33.62 47.72 34.1V37.68C47.72 38.09 47.38 38.43 46.97 38.43H45.23C44.82 38.43 44.48 38.09 44.48 37.68V34.1C44.48 33.62 44.09 33.23 43.61 33.23H40.95C39.59 33.23 38.48 34.34 38.48 35.7V38.34C38.48 38.75 38.14 39.09 37.73 39.09H30.11C28.98 39.09 28.06 38.17 28.06 37.04C28.06 35.91 28.98 34.99 30.11 34.99H32.89C33.37 34.99 33.76 34.6 33.76 34.12C33.76 33.64 33.37 33.25 32.89 33.25H30.11C28.02 33.25 26.31 34.95 26.31 37.05C26.31 39.15 28.01 40.85 30.11 40.85H37.76C39.12 40.85 40.23 39.74 40.23 38.38V35.74C40.23 35.33 40.57 34.99 40.98 34.99H42.73V37.72C42.73 39.08 43.84 40.19 45.2 40.19H47C48.36 40.19 49.47 39.08 49.47 37.72V34.12C49.47 33.64 49.08 33.25 48.6 33.25L48.59 33.23Z" fill="white"/>
<path d="M50.33 39.0801C49.85 39.0801 49.46 39.4701 49.46 39.9501C49.46 40.4301 49.85 40.8201 50.33 40.8201C50.81 40.8201 51.2 40.4301 51.2 39.9501C51.2 39.4701 50.81 39.0801 50.33 39.0801Z" fill="white"/>
<path d="M32.86 7.47999C33.34 7.47999 33.73 7.08999 33.73 6.60999C33.73 6.12999 33.34 5.73999 32.86 5.73999C32.38 5.73999 31.99 6.12999 31.99 6.60999C31.99 7.08999 32.38 7.47999 32.86 7.47999Z" fill="white"/>
<path d="M15.23 7.47999C15.71 7.47999 16.1 7.08999 16.1 6.60999C16.1 6.12999 15.71 5.73999 15.23 5.73999C14.75 5.73999 14.36 6.12999 14.36 6.60999C14.36 7.08999 14.75 7.47999 15.23 7.47999Z" fill="white"/>
<path d="M12.73 7.47999C13.21 7.47999 13.6 7.08999 13.6 6.60999C13.6 6.12999 13.21 5.73999 12.73 5.73999C12.25 5.73999 11.86 6.12999 11.86 6.60999C11.86 7.08999 12.25 7.47999 12.73 7.47999Z" fill="white"/>
<path d="M46.38 5.98C46.18 5.81 45.92 5.75 45.65 5.8C45.24 5.88 44.95 6.25 44.95 6.69V12.7C44.95 13.11 44.61 13.45 44.2 13.45H42.7V10.72C42.7 9.36 41.59 8.25 40.23 8.25H38.43C37.07 8.25 35.96 9.36 35.96 10.72V13.45H33.72V9.13C33.72 8.87 33.6 8.62 33.4 8.46C33.2 8.29 32.94 8.23 32.67 8.28C32.26 8.36 31.97 8.73 31.97 9.17V12.71C31.97 13.12 31.63 13.46 31.22 13.46H29.89C29.79 13.46 29.69 13.48 29.6 13.51C29.68 13.27 29.73 13.01 29.73 12.74V12.06C29.73 9.97001 28.03 8.26 25.93 8.26H22.23C21.46 8.26 20.74 8.49 20.14 8.89C20.09 8.72 20 8.57 19.86 8.46C19.66 8.29 19.4 8.23 19.13 8.28C18.72 8.36 18.43 8.73 18.43 9.17V12.71C18.43 13.12 18.09 13.46 17.68 13.46H16.87C16.46 13.46 16.12 13.12 16.12 12.71V9.13C16.12 8.65 15.73 8.26 15.25 8.26C15.03 8.26 14.83 8.35 14.67 8.48C14.36 8.34 14.02 8.26 13.65 8.26H11.85C10.49 8.26 9.38 9.37 9.38 10.73V12.74C9.38 14.1 10.49 15.21 11.85 15.21H14.21C14.65 15.21 15.01 14.88 15.07 14.46C15.52 14.92 16.14 15.21 16.84 15.21H17.71C18.4 15.21 19.03 14.92 19.48 14.46C19.54 14.88 19.9 15.21 20.34 15.21H27.26C27.95 15.21 28.58 14.92 29.03 14.46C29.09 14.88 29.45 15.21 29.89 15.21H31.25C31.94 15.21 32.57 14.92 33.02 14.46C33.08 14.88 33.44 15.21 33.88 15.21H40.22C40.91 15.21 41.54 14.92 41.99 14.46C42.05 14.88 42.41 15.21 42.85 15.21H44.22C45.58 15.21 46.69 14.1 46.69 12.74V6.66C46.69 6.4 46.57 6.15 46.37 5.99L46.38 5.98ZM14.23 13.46H11.9C11.49 13.46 11.15 13.12 11.15 12.71V10.75C11.15 10.34 11.49 10 11.9 10H13.64C14.05 10 14.39 10.34 14.39 10.75V12.73C14.39 13 14.44 13.26 14.52 13.5C14.43 13.47 14.33 13.45 14.23 13.45V13.46ZM28 12.71C28 13.12 27.66 13.46 27.25 13.46H20.19V12.06C20.19 10.93 21.11 10.01 22.24 10.01H25.94C27.07 10.01 27.99 10.93 27.99 12.06V12.71H28ZM40.96 12.71C40.96 13.12 40.62 13.46 40.21 13.46H37.72V10.76C37.72 10.35 38.06 10.01 38.47 10.01H40.21C40.62 10.01 40.96 10.35 40.96 10.76V12.72V12.71Z" fill="white"/>
<path d="M49.14 5.98003C48.98 5.85003 48.79 5.78003 48.59 5.78003C48.53 5.78003 48.47 5.78003 48.41 5.80003C48 5.88003 47.71 6.25003 47.71 6.69003V14.33C47.71 14.81 48.1 15.2 48.58 15.2C49.06 15.2 49.45 14.81 49.45 14.33V6.66003C49.45 6.40003 49.33 6.15003 49.13 5.99003L49.14 5.98003Z" fill="white"/>
<path d="M10.57 28.4399C10.09 28.4399 9.70001 28.8299 9.70001 29.3099C9.70001 29.7899 10.09 30.1799 10.57 30.1799C11.05 30.1799 11.44 29.7899 11.44 29.3099C11.44 28.8299 11.05 28.4399 10.57 28.4399Z" fill="white"/>
<path d="M8.08002 28.4399C7.60002 28.4399 7.21002 28.8299 7.21002 29.3099C7.21002 29.7899 7.60002 30.1799 8.08002 30.1799C8.56002 30.1799 8.95002 29.7899 8.95002 29.3099C8.95002 28.8299 8.56002 28.4399 8.08002 28.4399Z" fill="white"/>
<path d="M16.4 19.99C16.88 19.99 17.27 19.6 17.27 19.12C17.27 18.64 16.88 18.25 16.4 18.25C15.92 18.25 15.53 18.64 15.53 19.12C15.53 19.6 15.92 19.99 16.4 19.99Z" fill="white"/>
<path d="M5.82001 20.0401C6.30001 20.0401 6.69001 19.65 6.69001 19.17C6.69001 18.69 6.30001 18.3 5.82001 18.3C5.34001 18.3 4.95001 18.69 4.95001 19.17C4.95001 19.65 5.34001 20.0401 5.82001 20.0401Z" fill="white"/>
<path d="M3.33002 20.0401C3.81002 20.0401 4.20002 19.65 4.20002 19.17C4.20002 18.69 3.81002 18.3 3.33002 18.3C2.85002 18.3 2.46002 18.69 2.46002 19.17C2.46002 19.65 2.85002 20.0401 3.33002 20.0401Z" fill="white"/>
<path d="M45.65 18.31C45.24 18.39 44.95 18.76 44.95 19.2V25.21C44.95 25.62 44.61 25.96 44.2 25.96H42.86C42.76 25.96 42.66 25.98 42.57 26.01C42.65 25.77 42.7 25.51 42.7 25.24V23.23C42.7 21.87 41.59 20.76 40.23 20.76H38.43C37.07 20.76 35.96 21.87 35.96 23.23V25.96H28.74V23.26C28.74 22.85 29.08 22.51 29.49 22.51H31.23C31.63 22.51 31.96 22.83 31.98 23.23C31.98 23.71 32.37 24.1 32.85 24.1C33.33 24.1 33.72 23.71 33.72 23.23C33.72 21.87 32.61 20.76 31.25 20.76H29.45C28.09 20.76 26.98 21.87 26.98 23.23V25.96H24.74V21.59C24.74 21.33 24.62 21.08 24.42 20.92C24.22 20.75 23.96 20.69 23.69 20.74C23.28 20.82 22.99 21.19 22.99 21.63V27.13C22.99 27.54 22.65 27.88 22.24 27.88H21.19C20.71 27.88 20.32 28.27 20.32 28.75C20.32 29.23 20.71 29.62 21.19 29.62H22.27C23.44 29.62 24.42 28.8 24.67 27.71H40.21C40.9 27.71 41.53 27.42 41.98 26.96C42.04 27.38 42.4 27.71 42.84 27.71H44.21C45.57 27.71 46.68 26.6 46.68 25.24V19.16C46.68 18.9 46.56 18.65 46.36 18.49C46.16 18.32 45.9 18.26 45.63 18.31H45.65ZM40.95 25.22C40.95 25.63 40.61 25.97 40.2 25.97H37.71V23.27C37.71 22.86 38.05 22.52 38.46 22.52H40.2C40.61 22.52 40.95 22.86 40.95 23.27V25.23V25.22Z" fill="white"/>
<path d="M48.59 18.29C48.53 18.29 48.47 18.29 48.41 18.31C48 18.39 47.71 18.76 47.71 19.2V26.84C47.71 27.32 48.1 27.71 48.58 27.71C49.06 27.71 49.45 27.32 49.45 26.84V19.17C49.45 18.91 49.33 18.66 49.13 18.5C48.97 18.37 48.78 18.3 48.58 18.3L48.59 18.29Z" fill="white"/>
<path d="M17.3 20.77H15.5C14.14 20.77 13.03 21.88 13.03 23.24V25.97H10.79V21.65C10.79 21.39 10.67 21.14 10.47 20.98C10.27 20.81 10.01 20.75 9.74 20.8C9.33 20.88 9.04 21.25 9.04 21.69V25.23C9.04 25.64 8.7 25.98 8.29 25.98H7.49C7.08 25.98 6.74 25.64 6.74 25.23V21.65C6.74 21.17 6.35 20.78 5.87 20.78C5.65 20.78 5.45 20.87 5.29 21C4.98 20.86 4.64 20.78 4.27 20.78H2.47C1.11 20.78 0 21.89 0 23.25V25.26C0 26.62 1.11 27.73 2.47 27.73H4.83C5.27 27.73 5.63 27.4 5.69 26.98C6.14 27.44 6.76 27.73 7.46 27.73H8.32C9.01 27.73 9.64 27.44 10.09 26.98C10.15 27.4 10.51 27.73 10.95 27.73H17.29C18.65 27.73 19.76 26.62 19.76 25.26V23.25C19.76 21.89 18.65 20.78 17.29 20.78L17.3 20.77ZM4.85 25.97H2.52C2.11 25.97 1.77 25.63 1.77 25.22V23.26C1.77 22.85 2.11 22.51 2.52 22.51H4.26C4.67 22.51 5.01 22.85 5.01 23.26V25.24C5.01 25.51 5.06 25.77 5.14 26.01C5.05 25.98 4.95 25.96 4.85 25.96V25.97ZM18.02 25.22C18.02 25.63 17.68 25.97 17.27 25.97H14.78V23.27C14.78 22.86 15.12 22.52 15.53 22.52H17.27C17.68 22.52 18.02 22.86 18.02 23.27V25.23V25.22Z" fill="white"/>
<path d="M142.39 6.6799C140.35 4.6399 137.05 4.6399 135.02 6.6799C132.98 8.7199 132.98 12.0199 135.02 14.0499C137.27 16.2899 138.66 19.3999 138.66 22.8199C138.66 29.6599 133.11 35.2099 126.27 35.2099C122.85 35.2099 119.75 33.8199 117.51 31.5799L111.08 25.1499C110.58 24.6499 109.93 24.3999 109.27 24.3999H108.24L96.33 25.1499L110.13 38.9499C114.26 43.0799 119.97 45.6299 126.27 45.6299C138.87 45.6299 149.09 35.4099 149.09 22.8099C149.09 16.4999 146.53 10.7899 142.4 6.6599L142.39 6.6799Z" fill="white"/>
<path d="M117.5 31.5899L111.07 25.1599C110.57 24.6599 109.92 24.4099 109.26 24.4099H108.23L96.3199 25.1599L110.12 38.9599C114.25 43.0899 119.96 45.6399 126.26 45.6399V35.2099C122.84 35.2099 119.74 33.8199 117.5 31.5799V31.5899Z" fill="white"/>
<path d="M92.71 25.16L86.28 31.59C84.04 33.83 80.94 35.22 77.52 35.22C70.68 35.22 65.13 29.67 65.13 22.83C65.13 15.99 70.68 10.44 77.52 10.44C80.94 10.44 84.04 11.83 86.28 14.07L92.71 20.5C93.21 21 93.86 21.25 94.52 21.25H95.5499L107.46 20.5L93.66 6.7C89.5299 2.55 83.82 0 77.52 0C64.92 0 54.7 10.22 54.7 22.82C54.7 35.42 64.92 45.64 77.52 45.64C83.82 45.64 89.5299 43.09 93.66 38.96L107.46 25.16C107.96 24.66 108.61 24.41 109.27 24.41H94.52C93.8699 24.41 93.21 24.66 92.71 25.16Z" fill="white"/>
<path d="M107.46 20.49L93.6599 6.69C89.5299 2.55 83.8199 0 77.5199 0V10.43C80.9399 10.43 84.0399 11.82 86.2799 14.06L92.7099 20.49C93.2099 20.99 93.8599 21.24 94.5199 21.24H95.5499L107.46 20.49Z" fill="white"/>
<path d="M117.5 6.6799C115.46 4.6399 112.16 4.6399 110.13 6.6799C109.55 7.2599 96.3299 20.4799 96.3299 20.4799C95.8299 20.9799 95.1799 21.2299 94.5199 21.2299H109.27C109.92 21.2299 110.58 20.9799 111.08 20.4799C111.08 20.4799 117.05 14.5099 117.51 14.0499C119.55 12.0099 119.55 8.7099 117.51 6.6799H117.5Z" fill="white"/>
<path d="M126.26 10.42C129.137 10.42 131.47 8.0874 131.47 5.21C131.47 2.3326 129.137 0 126.26 0C123.383 0 121.05 2.3326 121.05 5.21C121.05 8.0874 123.383 10.42 126.26 10.42Z" fill="white"/>
<path d="M155.91 45.6401C159.931 45.6401 163.19 42.3807 163.19 38.3601C163.19 34.3394 159.931 31.0801 155.91 31.0801C151.889 31.0801 148.63 34.3394 148.63 38.3601C148.63 42.3807 151.889 45.6401 155.91 45.6401Z" fill="white"/>
</svg>
