<svg width="60" height="60" viewBox="0 0 60 60" fill="none" xmlns="http://www.w3.org/2000/svg">
<rect width="60" height="60" rx="30" fill="white"/>
<path d="M25.92 32.446C28.116 32.446 31.104 32.914 31.104 36.01C31.104 38.026 29.556 39.538 26.892 39.538C24.984 39.538 23.292 38.962 21.78 38.35C20.952 37.99 20.592 38.134 20.304 38.89L19.512 41.05C19.224 41.878 19.404 42.274 20.232 42.706C22.032 43.642 24.372 44.218 27.216 44.218C32.04 44.218 36.612 41.23 36.612 36.262C36.612 33.058 34.2 30.862 31.896 30.214C33.984 29.53 35.568 27.406 35.568 24.778C35.568 20.35 31.824 18.226 27.828 18.226C24.984 18.226 22.68 18.91 20.52 20.206C19.908 20.566 19.908 21.034 20.124 21.61L20.916 23.698C21.168 24.31 21.528 24.526 22.356 24.094C24.12 23.194 25.524 22.798 27 22.798C28.908 22.798 30.06 23.842 30.06 25.354C30.06 27.406 28.692 28.27 26.388 28.27H25.092C24.228 28.27 24.012 28.702 24.012 29.458V31.258C24.012 32.014 24.228 32.446 25.092 32.446H25.92Z" fill="#008C9D"/>
</svg>
