<svg width="65" height="60" viewBox="0 0 65 60" fill="none" xmlns="http://www.w3.org/2000/svg">
<rect width="64.784" height="60" rx="30" fill="white"/>
<path d="M38.008 23.498C38.008 18.818 34.624 16.226 29.764 16.226C26.776 16.226 24.076 17.198 21.808 18.566C21.196 18.926 21.016 19.394 21.304 20.006L22.384 22.31C22.744 23.066 23.32 22.958 23.86 22.67C26.092 21.554 27.496 21.05 29.044 21.05C30.844 21.05 32.284 21.806 32.284 23.75C32.284 25.298 30.772 27.206 28.576 29.366C26.74 31.202 23.932 33.83 21.16 36.314C20.512 36.926 20.368 37.25 20.368 38.222V40.382C20.368 41.426 20.656 41.75 21.736 41.75H36.28C37.18 41.75 37.504 41.318 37.504 40.49V38.042C37.504 37.214 37.18 36.854 36.28 36.854H32.68C30.124 36.854 27.46 36.926 27.208 36.998L30.196 34.55C33.364 31.922 38.008 27.89 38.008 23.498Z" fill="#008C9D"/>
</svg>
