<svg width="60" height="60" viewBox="0 0 60 60" fill="none" xmlns="http://www.w3.org/2000/svg">
<g clip-path="url(#clip0_0_4525)">
<path d="M56.7118 20.9404C57.6877 23.7834 58.1969 26.8386 58.1969 29.9998C58.1969 45.5727 45.5732 58.1964 30.0003 58.1964C14.4275 58.1964 1.80371 45.5727 1.80371 29.9998C1.80371 14.427 14.4275 1.80322 30.0003 1.80322C33.7768 1.80322 37.3836 2.5458 40.6722 3.88243" stroke="white" stroke-width="1.7" stroke-linecap="round" stroke-linejoin="round"/>
<path d="M49.4768 30.0001C49.4768 40.7568 40.7568 49.4768 30.0001 49.4768C19.2434 49.4768 10.5234 40.7568 10.5234 30.0001C10.5234 19.2434 19.2434 10.5234 30.0001 10.5234C38.0623 10.5234 45.0001 15.4244 47.9492 22.4258C48.9251 24.7596 49.4768 27.3268 49.4768 30.0001Z" stroke="white" stroke-width="1.7" stroke-linecap="round" stroke-linejoin="round"/>
<path d="M38.8682 35.9832C36.9587 38.8262 33.6914 40.6933 29.9997 40.6933C24.1015 40.6933 19.3066 35.9196 19.3066 30.0002C19.3066 24.0808 24.0803 19.3071 29.9997 19.3071C35.9191 19.3071 40.6928 24.0808 40.6928 30.0002" stroke="white" stroke-width="1.7" stroke-linecap="round" stroke-linejoin="round"/>
<path d="M45.5092 15.3608L30 30.0002" stroke="white" stroke-width="1.7" stroke-linecap="round" stroke-linejoin="round"/>
<path d="M53.4018 7.91393L51.5559 3.41605C51.3862 2.99172 50.8346 2.88564 50.5163 3.2251L44.6182 9.44151L45.5093 15.3821L51.3862 16.6127L57.9421 11.0752C58.2815 10.7781 58.2179 10.2265 57.8148 10.0356L53.423 7.93514L53.4018 7.91393Z" stroke="white" stroke-width="1.7" stroke-linecap="round" stroke-linejoin="round"/>
</g>
<defs>
<clipPath id="clip0_0_4525">
<rect width="60" height="60" fill="white"/>
</clipPath>
</defs>
</svg>
