<svg width="60" height="60" viewBox="0 0 60 60" fill="none" xmlns="http://www.w3.org/2000/svg">
<rect width="60" height="60" rx="30" fill="white"/>
<path d="M36.316 41.75C37.072 41.75 37.504 41.534 37.504 40.67V26.45C37.504 25.586 37.036 25.37 36.28 25.37H33.04C32.356 25.37 31.78 25.622 31.78 26.45V31.886H25.732L32.284 18.134C32.68 17.378 32.572 16.766 31.42 16.766H28.396C27.532 16.766 27.208 17.054 26.812 17.882L20.044 31.562C19.612 32.426 19.54 32.858 19.54 33.614V35.306C19.54 36.134 19.72 36.674 20.728 36.674H31.78V40.67C31.78 41.534 32.212 41.75 32.968 41.75H36.316Z" fill="#008C9D"/>
</svg>
