<svg width="163" height="46" viewBox="0 0 163 46" fill="none" xmlns="http://www.w3.org/2000/svg">
<g clip-path="url(#clip0_0_3366)">
<path d="M142.219 6.66622C140.184 4.63079 136.886 4.63079 134.851 6.66622C132.815 8.70165 132.815 11.9994 134.851 14.0348C137.099 16.2753 138.488 19.3758 138.488 22.7998C138.488 29.6397 132.942 35.178 126.109 35.178C122.693 35.178 119.593 33.7895 117.352 31.5489L110.93 25.1271C110.433 24.6301 109.779 24.3776 109.124 24.3776H108.098L96.1934 25.1271L109.984 38.9175C114.11 43.0436 119.806 45.5918 126.102 45.5918C138.693 45.5918 148.902 35.3831 148.902 22.7919C148.902 16.4883 146.345 10.7844 142.211 6.65833L142.219 6.66622Z" fill="#00BFD0"/>
<path d="M117.352 31.5571L110.93 25.1352C110.433 24.6382 109.779 24.3857 109.124 24.3857H108.098L96.1934 25.1352L109.984 38.9256C114.11 43.0517 119.806 45.6 126.102 45.6V35.1783C122.685 35.1783 119.585 33.7897 117.344 31.5492L117.352 31.5571Z" fill="url(#paint0_linear_0_3366)"/>
<path d="M92.5961 25.1352L86.1742 31.557C83.9337 33.7976 80.8411 35.1861 77.4171 35.1861C70.5772 35.1861 65.0389 29.6399 65.0389 22.8078C65.0389 15.9758 70.585 10.4296 77.4171 10.4296C80.8332 10.4296 83.9337 11.8181 86.1742 14.0587L92.5961 20.4805C93.0931 20.9775 93.7479 21.23 94.4027 21.23H95.4283L107.333 20.4805L93.5428 6.69009C89.4167 2.54823 83.7128 0 77.4171 0C64.8259 0 54.6172 10.2087 54.6172 22.8C54.6172 35.3912 64.8259 45.5999 77.4171 45.5999C83.7128 45.5999 89.4088 43.0517 93.5349 38.9256L107.325 25.1352C107.822 24.6382 108.477 24.3857 109.132 24.3857H94.3948C93.74 24.3857 93.0852 24.6382 92.5882 25.1352H92.5961Z" fill="#004096"/>
<path d="M107.325 20.4647L93.5347 6.67431C89.4166 2.54823 83.7126 0 77.417 0V10.4217C80.833 10.4217 83.9335 11.8102 86.1741 14.0508L92.5959 20.4726C93.093 20.9697 93.7478 21.2221 94.4026 21.2221H95.4282L107.333 20.4726L107.325 20.4647Z" fill="url(#paint1_linear_0_3366)"/>
<path d="M117.352 6.67403C115.317 4.6386 112.019 4.6386 109.984 6.67403C109.4 7.25784 96.1934 20.4645 96.1934 20.4645C95.6963 20.9615 95.0415 21.2139 94.3867 21.2139H109.124C109.779 21.2139 110.433 20.9615 110.93 20.4645C110.93 20.4645 116.895 14.4923 117.352 14.0426C119.388 12.0072 119.388 8.70946 117.352 6.67403Z" fill="#00BFD0"/>
<path d="M126.109 10.4138C128.985 10.4138 131.316 8.08261 131.316 5.20691C131.316 2.33121 128.985 0 126.109 0C123.234 0 120.902 2.33121 120.902 5.20691C120.902 8.08261 123.234 10.4138 126.109 10.4138Z" fill="#00BFD0"/>
<path d="M155.726 45.5996C159.743 45.5996 163 42.3429 163 38.3257C163 34.3084 159.743 31.0518 155.726 31.0518C151.709 31.0518 148.452 34.3084 148.452 38.3257C148.452 42.3429 151.709 45.5996 155.726 45.5996Z" fill="#00BFD0"/>
<path d="M48.5194 33.1993C48.0381 33.1993 47.6436 33.5938 47.6436 34.075V37.6488C47.6436 38.0591 47.3123 38.3983 46.8942 38.3983H45.1506C44.7404 38.3983 44.4012 38.067 44.4012 37.6488V34.075C44.4012 33.5938 44.0067 33.1993 43.5254 33.1993H40.8747C39.5177 33.1993 38.4132 34.3038 38.4132 35.6607V38.2958C38.4132 38.706 38.0819 39.0452 37.6637 39.0452H30.0506C28.9224 39.0452 27.9994 38.1222 27.9994 36.994C27.9994 35.8659 28.9224 34.9428 30.0506 34.9428H32.8276C33.3089 34.9428 33.7033 34.5484 33.7033 34.0671C33.7033 33.5859 33.3089 33.1914 32.8276 33.1914H30.0506C27.9599 33.1914 26.2559 34.8955 26.2559 36.9861C26.2559 39.0768 27.9599 40.7809 30.0506 40.7809H37.6874C39.0444 40.7809 40.1488 39.6764 40.1488 38.3194V35.6844C40.1488 35.2742 40.4802 34.9349 40.8983 34.9349H42.6497V37.6646C42.6497 39.0216 43.7542 40.1261 45.1112 40.1261H46.9099C48.2669 40.1261 49.3714 39.0216 49.3714 37.6646V34.0671C49.3714 33.5859 48.9769 33.1914 48.4957 33.1914L48.5194 33.1993Z" fill="#060932"/>
<path d="M50.2624 39.0371C49.7812 39.0371 49.3867 39.4316 49.3867 39.9128C49.3867 40.3941 49.7812 40.7885 50.2624 40.7885C50.7437 40.7885 51.1381 40.3941 51.1381 39.9128C51.1381 39.4316 50.7437 39.0371 50.2624 39.0371Z" fill="#060932"/>
<path d="M43.5329 30.7217C43.0517 30.7217 42.6572 31.1161 42.6572 31.5974C42.6572 32.0786 43.0517 32.4731 43.5329 32.4731C44.0142 32.4731 44.4086 32.0786 44.4086 31.5974C44.4086 31.1161 44.0142 30.7217 43.5329 30.7217Z" fill="#060932"/>
<path d="M10.5398 28.3379C10.0585 28.3379 9.66406 28.7324 9.66406 29.2136C9.66406 29.6948 10.0585 30.0893 10.5398 30.0893C11.021 30.0893 11.4155 29.6948 11.4155 29.2136C11.4155 28.7324 11.021 28.3379 10.5398 28.3379Z" fill="#060932"/>
<path d="M8.04661 28.3379C7.56536 28.3379 7.1709 28.7324 7.1709 29.2136C7.1709 29.6948 7.56536 30.0893 8.04661 30.0893C8.52785 30.0893 8.92231 29.6948 8.92231 29.2136C8.92231 28.7324 8.52785 28.3379 8.04661 28.3379Z" fill="#060932"/>
<path d="M16.362 20.0151C16.8433 20.0151 17.2377 19.6206 17.2377 19.1394C17.2377 18.6581 16.8433 18.2637 16.362 18.2637C15.8808 18.2637 15.4863 18.6581 15.4863 19.1394C15.4863 19.6206 15.8808 20.0151 16.362 20.0151Z" fill="#060932"/>
<path d="M5.79856 20.0151C6.2798 20.0151 6.67427 19.6206 6.67427 19.1394C6.67427 18.6581 6.2798 18.2637 5.79856 18.2637C5.31731 18.2637 4.92285 18.6581 4.92285 19.1394C4.92285 19.6206 5.31731 20.0151 5.79856 20.0151Z" fill="#060932"/>
<path d="M3.3054 20.0151C3.78664 20.0151 4.1811 19.6206 4.1811 19.1394C4.1811 18.6581 3.78664 18.2637 3.3054 18.2637C2.82415 18.2637 2.42969 18.6581 2.42969 19.1394C2.42969 19.6206 2.82415 20.0151 3.3054 20.0151Z" fill="#060932"/>
<path d="M48.5193 18.2715C48.464 18.2715 48.4009 18.2715 48.3457 18.2873C47.9433 18.3662 47.6436 18.737 47.6436 19.1787V26.8077C47.6436 27.2889 48.038 27.6834 48.5193 27.6834C49.0005 27.6834 49.395 27.2889 49.395 26.8077V19.1393C49.395 18.879 49.2766 18.6344 49.0794 18.4687C48.9216 18.3346 48.7323 18.2715 48.5272 18.2715H48.5193Z" fill="#060932"/>
<path d="M17.2616 20.749H15.4629C14.1059 20.749 13.0014 21.8535 13.0014 23.2105V25.9402H10.7688V21.6247C10.7688 21.3644 10.6504 21.1198 10.4532 20.9541C10.2481 20.7885 9.98773 20.7175 9.72738 20.7727C9.32503 20.8516 9.03312 21.2224 9.03312 21.6642V25.1986C9.03312 25.6088 8.70178 25.948 8.28365 25.948H7.48683C7.07659 25.948 6.73735 25.6167 6.73735 25.1986V21.6247C6.73735 21.1435 6.34289 20.749 5.86164 20.749C5.64074 20.749 5.44351 20.8358 5.28573 20.9699C4.97805 20.8279 4.63092 20.749 4.26801 20.749H2.46926C1.11231 20.749 0.0078125 21.8535 0.0078125 23.2105V25.2222C0.0078125 26.5792 1.11231 27.6837 2.46926 27.6837H4.82026C5.26206 27.6837 5.61708 27.3602 5.68019 26.9342C6.12988 27.3918 6.75313 27.6837 7.44738 27.6837H8.29942C8.99368 27.6837 9.61693 27.3918 10.0666 26.9342C10.1297 27.3602 10.4847 27.6837 10.9265 27.6837H17.2616C18.6186 27.6837 19.7231 26.5792 19.7231 25.2222V23.2105C19.7231 21.8535 18.6186 20.749 17.2616 20.749ZM4.82026 25.9402H2.49293C2.08269 25.9402 1.74345 25.6088 1.74345 25.1907V23.2341C1.74345 22.8239 2.0748 22.4847 2.49293 22.4847H4.23646C4.6467 22.4847 4.98594 22.816 4.98594 23.2341V25.2143C4.98594 25.4826 5.03327 25.7429 5.11216 25.9875C5.02538 25.9559 4.92282 25.9323 4.82026 25.9323V25.9402ZM17.9795 25.1907C17.9795 25.6009 17.6482 25.9402 17.2301 25.9402H14.7449V23.242C14.7449 22.8318 15.0763 22.4926 15.4944 22.4926H17.238C17.6482 22.4926 17.9874 22.8239 17.9874 23.242V25.1986L17.9795 25.1907Z" fill="#060932"/>
<path d="M46.3103 18.4763C46.1052 18.3106 45.8448 18.2396 45.5845 18.2948C45.1821 18.3737 44.8902 18.7445 44.8902 19.1863V25.1979C44.8902 25.6082 44.5589 25.9474 44.1408 25.9474H42.7996C42.697 25.9474 42.6024 25.9711 42.5077 26.0026C42.5866 25.7581 42.6339 25.4977 42.6339 25.2295V23.2177C42.6339 21.8608 41.5294 20.7563 40.1725 20.7563H38.3737C37.0168 20.7563 35.9123 21.8608 35.9123 23.2177V25.9474H28.6936V23.2493C28.6936 22.839 29.0249 22.4998 29.4431 22.4998H31.1866C31.589 22.4998 31.9203 22.8154 31.9361 23.2177C31.9361 23.699 32.3305 24.0934 32.8118 24.0934C33.293 24.0934 33.6875 23.699 33.6875 23.2177C33.6875 21.8608 32.583 20.7563 31.226 20.7563H29.4273C28.0703 20.7563 26.9658 21.8608 26.9658 23.2177V25.9474H24.7332V21.632C24.7332 21.3716 24.6148 21.1271 24.4176 20.9614C24.2125 20.7957 23.9521 20.7247 23.6918 20.7799C23.2895 20.8588 22.9897 21.2296 22.9897 21.6714L23.0054 27.6042C23.0054 28.0144 22.6741 28.3536 22.256 28.3536H21.2146C20.7333 28.3536 20.3389 28.7481 20.3389 29.2293C20.3389 29.7106 20.7333 30.1051 21.2146 30.1051H22.2717C23.6129 30.1051 24.6937 29.04 24.7332 27.7067H40.1961C40.8904 27.7067 41.5136 27.4148 41.9633 26.9572C42.0264 27.3833 42.3815 27.7067 42.8233 27.7067H44.1881C45.5451 27.7067 46.6495 26.6022 46.6495 25.2453V19.1705C46.6495 18.9102 46.5312 18.6656 46.334 18.5L46.3103 18.4763ZM40.8904 25.1979C40.8904 25.6082 40.559 25.9474 40.1409 25.9474H37.6558V23.2493C37.6558 22.839 37.9871 22.4998 38.4053 22.4998H40.1488C40.559 22.4998 40.8983 22.8312 40.8983 23.2493V25.2058L40.8904 25.1979Z" fill="#060932"/>
<path d="M26.8865 15.8418C26.4052 15.8418 26.0107 16.2363 26.0107 16.7175C26.0107 17.1988 26.4052 17.5932 26.8865 17.5932C27.3677 17.5932 27.7622 17.1988 27.7622 16.7175C27.7622 16.2363 27.3677 15.8418 26.8865 15.8418Z" fill="#060932"/>
<path d="M46.3102 5.98019C46.1051 5.81452 45.8448 5.74351 45.5844 5.79874C45.1821 5.87763 44.8902 6.24843 44.8902 6.69022V12.7018C44.8902 13.1121 44.5588 13.4513 44.1407 13.4513H42.6417V9.1359C42.6417 8.65465 42.2472 8.26019 41.766 8.26019C41.2848 8.26019 40.8903 8.65465 40.8903 9.1359V12.7097C40.8903 13.12 40.5589 13.4592 40.1408 13.4592H38.7129V10.7295C38.7129 9.37257 37.6084 8.26808 36.2514 8.26808H34.4527C33.0957 8.26808 31.9912 9.37257 31.9912 10.7295V12.7413C31.9912 14.0982 33.0957 15.2027 34.4527 15.2027H36.9536C36.9062 15.5656 36.6064 15.8575 36.2277 15.8575H35.1785C34.6972 15.8575 34.3028 16.252 34.3028 16.7333C34.3028 17.2145 34.6972 17.609 35.1785 17.609H36.2514C37.5847 17.609 38.6734 16.536 38.7129 15.2106H40.1724C40.8666 15.2106 41.4899 14.9187 41.9396 14.4611C42.0027 14.8872 42.3577 15.2106 42.7995 15.2106H44.1643C45.5213 15.2106 46.6258 14.1061 46.6258 12.7492V6.67445C46.6258 6.4141 46.5075 6.16953 46.3102 6.00386V5.98019ZM33.7347 12.7018V10.7453C33.7347 10.3351 34.0661 9.99583 34.4842 9.99583H36.2277C36.638 9.99583 36.9772 10.3272 36.9772 10.7453V13.4434H34.4921C34.0819 13.4434 33.7426 13.1121 33.7426 12.694L33.7347 12.7018Z" fill="#060932"/>
<path d="M49.0715 5.98043C48.9137 5.84632 48.7244 5.7832 48.5193 5.7832C48.464 5.7832 48.4009 5.7832 48.3457 5.79898C47.9433 5.87787 47.6436 6.24867 47.6436 6.69047V14.3194C47.6436 14.8006 48.038 15.1951 48.5193 15.1951C49.0005 15.1951 49.395 14.8006 49.395 14.3194V6.65102C49.395 6.39068 49.2766 6.14611 49.0794 5.98043H49.0715Z" fill="#060932"/>
<path d="M29.8767 5.77539C29.8215 5.77539 29.7583 5.77539 29.7031 5.79117C29.3008 5.87006 29.001 6.24086 29.001 6.68266V14.3116C29.001 14.7928 29.3954 15.1873 29.8767 15.1873C30.3579 15.1873 30.7524 14.7928 30.7524 14.3116V6.64321C30.7524 6.38286 30.6341 6.1383 30.4368 5.97262C30.279 5.8385 30.0897 5.77539 29.8846 5.77539H29.8767Z" fill="#060932"/>
<path d="M26.8865 8.25293C26.4053 8.25293 26.0108 8.64739 26.0108 9.12864V12.7025C26.0108 13.1127 25.6795 13.452 25.2613 13.452H24.4487C24.0385 13.452 23.6993 13.1206 23.6993 12.7025V9.12864C23.6993 8.64739 23.3048 8.25293 22.8236 8.25293C22.6027 8.25293 22.4054 8.33971 22.2476 8.47383C21.94 8.33182 21.5928 8.25293 21.2299 8.25293H19.4312C18.0742 8.25293 16.9697 9.35743 16.9697 10.7144V12.7261C16.9697 14.0831 18.0742 15.1876 19.4312 15.1876H21.7822C22.224 15.1876 22.579 14.8641 22.6421 14.4381C23.0918 14.8957 23.715 15.1876 24.4093 15.1876H25.2771C26.6341 15.1876 27.7386 14.0831 27.7386 12.7261V9.12864C27.7386 8.64739 27.3441 8.25293 26.8629 8.25293H26.8865ZM21.8058 13.4441H19.4785C19.0683 13.4441 18.729 13.1127 18.729 12.6946V10.738C18.729 10.3278 19.0604 9.98857 19.4785 9.98857H21.222C21.6323 9.98857 21.9715 10.3199 21.9715 10.738V12.7183C21.9715 12.9865 22.0189 13.2468 22.0977 13.4914C22.011 13.4598 21.9084 13.4362 21.8058 13.4362V13.4441Z" fill="#060932"/>
<path d="M41.7654 17.5932C42.249 17.5932 42.6411 17.2011 42.6411 16.7175C42.6411 16.2339 42.249 15.8418 41.7654 15.8418C41.2817 15.8418 40.8896 16.2339 40.8896 16.7175C40.8896 17.2011 41.2817 17.5932 41.7654 17.5932Z" fill="#060932"/>
<path d="M22.7995 7.52681C23.2832 7.52681 23.6752 7.13474 23.6752 6.6511C23.6752 6.16746 23.2832 5.77539 22.7995 5.77539C22.3159 5.77539 21.9238 6.16746 21.9238 6.6511C21.9238 7.13474 22.3159 7.52681 22.7995 7.52681Z" fill="#060932"/>
<path d="M20.3073 7.52681C20.791 7.52681 21.1831 7.13474 21.1831 6.6511C21.1831 6.16746 20.791 5.77539 20.3073 5.77539C19.8237 5.77539 19.4316 6.16746 19.4316 6.6511C19.4316 7.13474 19.8237 7.52681 20.3073 7.52681Z" fill="#060932"/>
</g>
<defs>
<linearGradient id="paint0_linear_0_3366" x1="101.345" y1="20.3464" x2="119.269" y2="38.2629" gradientUnits="userSpaceOnUse">
<stop stop-color="#008A9C"/>
<stop offset="1" stop-color="#00BCCD" stop-opacity="0"/>
</linearGradient>
<linearGradient id="paint1_linear_0_3366" x1="100.185" y1="23.2575" x2="82.6318" y2="5.70393" gradientUnits="userSpaceOnUse">
<stop stop-color="#000D4E"/>
<stop offset="1" stop-color="#014180" stop-opacity="0"/>
</linearGradient>
<clipPath id="clip0_0_3366">
<rect width="163" height="45.5999" fill="white"/>
</clipPath>
</defs>
</svg>
