<svg width="272" height="229" viewBox="0 0 272 229" fill="none" xmlns="http://www.w3.org/2000/svg">
<path d="M114.817 21.0098H37.2033C30.6973 21.0098 25.4131 26.294 25.4131 32.8V138.118H114.848V20.9792L114.817 21.0098Z" fill="white"/>
<path d="M114.817 139.003H25.3826C24.8939 139.003 24.5273 138.606 24.5273 138.148V32.8306C24.5273 25.8359 30.2087 20.1545 37.2034 20.1545H114.817C115.306 20.1545 115.672 20.5516 115.672 21.0098V138.148C115.672 138.637 115.275 139.003 114.817 139.003ZM26.2684 137.262H113.962V21.865H37.2034C31.1861 21.865 26.2684 26.7827 26.2684 32.8V137.262Z" fill="#0F1134"/>
<path d="M48.4438 32.4639V41.9939H127.585V32.4639C127.432 26.1107 122.24 20.9792 115.856 20.9792H37.631C37.4783 20.9792 37.1729 20.9792 37.1729 20.9792C43.3429 21.2236 48.2911 26.2329 48.4438 32.4335V32.4639Z" fill="#E6E6E6"/>
<path d="M128.47 42.8797H47.5883V32.4945C47.4661 26.7827 42.8845 22.1094 37.1421 21.8956V20.1545C37.1421 20.1545 37.4781 20.1545 37.6308 20.1545H115.855C122.636 20.1545 128.287 25.6831 128.44 32.464V42.8797H128.47ZM49.3294 41.1387H126.729V32.464C126.607 26.6299 121.72 21.865 115.855 21.865H43.0677C46.7331 24.0031 49.2072 27.9434 49.3294 32.464V41.1692V41.1387Z" fill="#0F1134"/>
<path d="M85.2198 88.2693L77.1254 96.7607L69.4282 101.923C66.893 103.603 65.213 106.291 64.7243 109.284V109.437L64.2356 109.864C61.5171 112.369 60.2343 116.095 60.8757 119.761L62.1586 127.152L55.0112 122.632L55.225 112.705C55.1028 110.75 53.9115 108.978 52.1094 108.184L50.6128 107.512C49.3299 106.932 47.8943 107.848 47.8332 109.223L47.2834 124.74C47.1917 127.122 48.3525 129.382 50.3684 130.696L61.2728 137.843C64.1745 144.135 69.0311 149.297 75.1095 152.566L85.3114 158.094L116.894 197.741L136.596 172.053L100.767 134.239L103.913 130.971C106.815 127.947 107.945 123.609 106.906 119.547L102.752 103.694C102.355 102.137 100.645 101.342 99.1786 102.014L97.9874 102.564C95.4216 103.755 93.9555 106.443 94.322 109.223L95.33 116.798C95.6355 119.18 94.6886 121.532 92.7948 122.998L81.0962 106.688L88.0299 95.9665C89.16 94.1949 89.496 92.0263 88.9462 90.0104L88.7018 89.1551C88.2742 87.6584 86.3805 87.1697 85.3114 88.2999L85.2198 88.2693Z" fill="white"/>
<path d="M116.894 199.116L84.7305 158.766L74.6813 153.329C68.5419 150 63.5326 144.716 60.5698 138.423L49.8792 131.398C47.6494 129.932 46.3054 127.366 46.4276 124.678L46.9774 109.162C47.008 108.215 47.4967 107.36 48.3214 106.871C49.1156 106.382 50.1235 106.291 50.9788 106.688L52.4755 107.36C54.583 108.307 55.9575 110.322 56.1103 112.613L55.8964 122.143L60.9668 125.381L60.02 119.913C59.348 115.943 60.6919 111.972 63.6547 109.223L63.8991 109.009C64.4794 105.771 66.3121 102.961 68.939 101.19L76.6362 96.0276L84.6083 87.6583C85.3414 86.8947 86.3799 86.5894 87.3879 86.8643C88.3959 87.1086 89.19 87.8721 89.4649 88.8801L89.7093 89.7354C90.3202 91.9957 89.9536 94.4087 88.7013 96.3941L82.1037 106.627L92.8859 121.685C94.1077 120.402 94.688 118.631 94.4437 116.859L93.4357 109.284C93.0081 106.107 94.688 103.053 97.5898 101.709L98.781 101.159C99.6973 100.731 100.766 100.731 101.713 101.159C102.66 101.587 103.302 102.411 103.577 103.419L107.731 119.272C108.861 123.609 107.639 128.283 104.523 131.52L101.958 134.178L137.725 171.931L116.894 199.085V199.116ZM49.818 108.184C49.6042 108.184 49.421 108.245 49.2377 108.368C48.9323 108.551 48.749 108.887 48.7184 109.253L48.1687 124.77C48.1076 126.847 49.1156 128.832 50.8566 129.963L61.9748 137.263L62.0665 137.477C64.8766 143.555 69.6415 148.625 75.5366 151.802L86.0134 157.544L116.894 196.305L135.465 172.084L99.5752 134.208L103.302 130.36C105.99 127.58 107.059 123.518 106.051 119.761L101.897 103.908C101.774 103.419 101.438 102.992 100.98 102.778C100.522 102.564 100.003 102.564 99.5141 102.778L98.3228 103.328C96.0931 104.366 94.8408 106.657 95.1462 109.101L96.1542 116.676C96.5207 119.333 95.4211 122.021 93.3135 123.67L92.611 124.22L92.0612 123.518L80.0266 106.688L87.2657 95.4473C88.2737 93.8895 88.5791 91.9652 88.0599 90.1936L87.8155 89.3384C87.6933 88.9413 87.3879 88.6358 86.9908 88.5442C86.5937 88.4525 86.1661 88.5442 85.8912 88.8496L77.7969 97.341L69.947 102.625C67.6256 104.183 66.0678 106.657 65.6402 109.406L65.5791 109.712L65.3347 110.078L64.8765 110.506C62.3413 112.827 61.1806 116.248 61.7915 119.608L63.4104 128.924L54.1859 123.09L54.3997 112.674C54.3081 111.086 53.3002 109.65 51.8035 108.978L50.3068 108.307C50.3068 108.307 50.0013 108.215 49.8486 108.215L49.818 108.184Z" fill="#0F1134"/>
<path d="M75.0174 120.799C74.6814 120.799 74.3455 120.585 74.2233 120.249L70.1914 109.1C69.3972 106.87 69.8249 104.335 71.3216 102.533L76.4836 96.2714C76.789 95.9048 77.3083 95.8743 77.6443 96.1492C78.0108 96.4546 78.0414 96.9739 77.7665 97.3099L72.6044 103.572C71.4743 104.946 71.1383 106.84 71.7492 108.52L75.781 119.669C75.9338 120.096 75.72 120.585 75.2924 120.738C75.2007 120.768 75.1091 120.799 75.0174 120.799Z" fill="#0F1134"/>
<path d="M69.3665 124.8C69.0305 124.8 68.6944 124.587 68.5723 124.251L63.4408 110.169C63.2881 109.742 63.5019 109.253 63.9295 109.1C64.3572 108.948 64.8458 109.161 64.9986 109.589L70.1301 123.67C70.2828 124.098 70.069 124.587 69.6413 124.739C69.5497 124.77 69.4581 124.8 69.3665 124.8Z" fill="#0F1134"/>
<path d="M63.3801 130.42C63.0747 130.42 62.7693 130.237 62.6471 129.962L61.4253 127.549C61.2115 127.152 61.3947 126.633 61.7918 126.419C62.1889 126.205 62.7082 126.389 62.922 126.786L64.1437 129.199C64.3575 129.596 64.1743 130.115 63.7772 130.329C63.655 130.39 63.5329 130.42 63.4107 130.42H63.3801Z" fill="#0F1134"/>
<path d="M72.8184 168.112L90.2593 90.0096L97.0402 78.6775L98.3536 91.8422L80.9127 169.945C78.1331 171.258 74.8038 170.494 72.8489 168.143L72.8184 168.112Z" fill="white"/>
<path d="M72.8184 168.112L89.8317 91.9341L97.8955 93.7363L80.8821 169.914C78.1026 171.228 74.7732 170.464 72.8184 168.112Z" fill="#A4D32E"/>
<path d="M78.0418 171.442C75.812 171.442 73.6434 170.464 72.1772 168.693L71.9023 168.357L71.994 167.929L89.1905 90.8955L98.9648 93.0642L81.646 170.495L81.249 170.678C80.2105 171.167 79.1109 171.411 78.0113 171.411L78.0418 171.442ZM73.7656 167.898C75.415 169.609 77.9196 170.189 80.1494 169.334L96.8878 94.4387L90.504 93.0031L73.7656 167.898Z" fill="#0F1134"/>
<path d="M78.0414 171.442C75.8117 171.442 73.643 170.465 72.1769 168.693C71.9936 168.479 71.9325 168.204 71.9936 167.96L89.4345 89.8574C89.4345 89.8574 89.4956 89.6742 89.5262 89.6131L96.3071 78.281C96.4903 77.9756 96.8874 77.7924 97.2539 77.884C97.6205 77.9757 97.8954 78.2811 97.9259 78.6476L99.2394 91.8123C99.2394 91.8123 99.2394 91.9956 99.2394 92.0872L81.7984 170.19C81.7373 170.465 81.5541 170.678 81.3097 170.77C80.2712 171.259 79.1716 171.503 78.072 171.503L78.0414 171.442ZM73.7652 167.899C75.4146 169.609 77.9193 170.19 80.149 169.334L97.4678 91.7818L96.4293 81.3966L91.084 90.3767L73.7652 167.929V167.899Z" fill="#0F1134"/>
<path d="M130.761 89.3685L153.7 33.3803C162.925 10.8384 190.843 2.86631 210.574 17.1612L216.133 21.193L228.504 33.1359C241.333 45.5065 242.218 65.7576 230.55 79.2278L225.724 84.7868C219.127 92.3924 209.536 96.7298 199.487 96.6992L135.435 96.4243C131.83 96.4243 129.387 92.759 130.761 89.3991V89.3685Z" fill="#0F1134"/>
<path d="M201.54 56.0305L177.865 60.6968L186.896 106.518L210.571 101.852L201.54 56.0305Z" fill="white"/>
<path d="M186.933 107.298C186.75 107.298 186.597 107.237 186.444 107.146C186.261 107.024 186.108 106.81 186.078 106.596L177.036 60.7791C177.006 60.5653 177.036 60.321 177.159 60.1377C177.281 59.9545 177.495 59.8017 177.708 59.7711L201.38 55.0978C201.839 55.0062 202.297 55.3116 202.388 55.7698L211.43 101.587C211.521 102.045 211.216 102.503 210.758 102.595L187.086 107.268C187.086 107.268 186.963 107.268 186.933 107.268V107.298ZM178.93 61.2983L187.635 105.405L209.627 101.067L200.922 56.9611L178.93 61.2983Z" fill="#0F1134"/>
<path d="M154.067 47.6447L156.907 64.6887C158.618 75.0127 169.736 80.8467 179.205 76.3872L192.369 70.2172C202.51 65.4523 205.901 52.7152 199.456 43.5518L183.695 21.1321L167.781 25.7749C158.343 28.5239 152.448 37.9011 154.067 47.6143V47.6447Z" fill="white"/>
<path d="M175.539 17.375L182.106 34.8465L150.187 46.484L148.874 35.7628C147.896 27.7907 153.364 20.5211 161.122 19.4215L175.539 17.375Z" fill="#0F1134"/>
<path d="M202.297 55.3721C207.206 55.3721 211.185 51.3927 211.185 46.4837C211.185 41.5747 207.206 37.5952 202.297 37.5952C197.388 37.5952 193.408 41.5747 193.408 46.4837C193.408 51.3927 197.388 55.3721 202.297 55.3721Z" fill="white"/>
<path d="M175.479 21.8952L189.773 39.7027C193.255 44.0401 198.967 44.0706 202.48 39.7027L207.428 33.5633L194.05 19.299C189.834 14.8089 182.779 14.6867 178.411 18.9935L175.479 21.8952Z" fill="#0F1134"/>
<path d="M125.507 90.7734C125.507 90.7734 125.202 90.7428 125.08 90.6512C124.652 90.4068 124.53 89.8875 124.744 89.4599C136.045 69.5449 151.806 31.4252 151.989 31.0587C152.173 30.6311 152.661 30.4173 153.12 30.6006C153.547 30.7838 153.761 31.3031 153.578 31.7307C153.425 32.1278 137.634 70.339 126.24 90.3457C126.088 90.6206 125.782 90.7734 125.477 90.7734H125.507Z" fill="#0F1134"/>
<path d="M194.08 63.3752C194.08 63.3752 190.628 71.103 181.129 76.6316L194.08 63.3752Z" fill="white"/>
<path d="M181.129 77.5171C180.824 77.5171 180.549 77.3645 180.366 77.0896C180.121 76.6619 180.274 76.1426 180.671 75.8983C189.835 70.553 193.256 63.1001 193.286 63.0391C193.469 62.6114 193.989 62.3977 194.416 62.6115C194.844 62.7947 195.058 63.314 194.844 63.7416C194.691 64.0776 191.148 71.7748 181.526 77.395C181.404 77.4867 181.252 77.5171 181.099 77.5171H181.129Z" fill="#0F1134"/>
<path d="M153.823 50.8824C153.639 50.8824 153.426 50.8213 153.273 50.6686C152.906 50.3631 152.845 49.8133 153.151 49.4468C154.8 47.492 157.03 46.8199 157.152 46.7893C157.61 46.6672 158.099 46.9115 158.221 47.3697C158.343 47.8279 158.099 48.3166 157.641 48.4388C157.61 48.4388 155.777 49.0191 154.495 50.5464C154.311 50.7602 154.067 50.8518 153.823 50.8518V50.8824Z" fill="#0F1134"/>
<path d="M167.751 45.842C167.384 45.842 167.048 45.5977 166.926 45.2311C166.773 44.7729 167.048 44.2842 167.507 44.1315C168.026 43.9787 172.669 42.5737 175.265 43.8871C175.692 44.101 175.876 44.6202 175.662 45.0479C175.448 45.4755 174.929 45.6587 174.501 45.4449C172.821 44.5896 169.248 45.4144 168.026 45.7809C167.934 45.7809 167.843 45.8115 167.781 45.8115L167.751 45.842Z" fill="#0F1134"/>
<path d="M164.269 52.8376L163.322 54.4565C162.436 55.9532 163.536 57.8775 165.277 57.8775H166.957L164.3 52.8376H164.269Z" fill="white"/>
<path d="M166.926 58.7632H165.246C164.116 58.7632 163.108 58.1829 162.528 57.1749C161.978 56.1975 161.978 55.0062 162.528 54.0288L163.474 52.41C163.719 52.0129 164.238 51.8601 164.666 52.1045C165.063 52.3488 165.216 52.8681 164.971 53.2957L164.024 54.9145C163.78 55.3422 163.749 55.892 164.024 56.3197C164.269 56.7473 164.727 57.0221 165.246 57.0221H166.926C167.415 57.0221 167.781 57.4192 167.781 57.8774C167.781 58.3355 167.384 58.7326 166.926 58.7326V58.7632Z" fill="#0F1134"/>
<path d="M172.821 72.3555C170.866 72.3555 168.27 71.1031 165.032 68.5374C164.818 68.3541 164.696 68.0792 164.696 67.8043C164.696 67.5294 164.88 67.2545 165.124 67.1018L175.051 61.1456C175.295 60.9929 175.57 60.9929 175.845 61.0845C176.089 61.2067 176.273 61.4205 176.364 61.6954C176.548 62.5201 178.105 69.698 174.807 71.8056C174.226 72.1721 173.585 72.3555 172.852 72.3555H172.821ZM167.109 67.9265C171.355 71.0115 173.157 70.7977 173.86 70.3395C175.448 69.3316 175.234 65.544 174.868 63.2837L167.079 67.9571L167.109 67.9265Z" fill="#0F1134"/>
<path d="M170.653 52.7763C171.834 52.7763 172.791 51.819 172.791 50.6382C172.791 49.4573 171.834 48.5 170.653 48.5C169.472 48.5 168.515 49.4573 168.515 50.6382C168.515 51.819 169.472 52.7763 170.653 52.7763Z" fill="#0F1134"/>
<path d="M158.831 55.4636C160.012 55.4636 160.97 54.5063 160.97 53.3254C160.97 52.1446 160.012 51.1873 158.831 51.1873C157.651 51.1873 156.693 52.1446 156.693 53.3254C156.693 54.5063 157.651 55.4636 158.831 55.4636Z" fill="#0F1134"/>
<path d="M247.472 197.496V132.314C247.472 125.289 245.304 118.447 241.302 112.704L236.935 106.443C228.016 93.675 211.583 88.5435 196.982 93.9499L184.978 98.4095L164.147 129.473C158.924 137.262 158.404 147.281 162.803 155.558V197.496H247.472Z" fill="#008C9D"/>
<path d="M202.297 55.3723L195.669 95.8134C195.669 95.8134 207.948 96.6075 216.653 91.8425C225.358 87.1081 202.297 55.3418 202.297 55.3418V55.3723Z" fill="#0F1134"/>
<path d="M90.1375 60.7792C88.3048 60.7792 87.3274 60.2599 86.4721 59.7712C85.7085 59.3436 85.0365 58.9771 83.662 58.9771C82.2875 58.9771 81.6156 59.3436 80.8519 59.7712C79.9967 60.2294 79.0498 60.7792 77.1866 60.7792C75.3234 60.7792 74.3765 60.2599 73.5213 59.7712C72.7577 59.3436 72.0857 58.9771 70.7112 58.9771C69.3367 58.9771 68.6646 59.3436 67.901 59.7712C67.0458 60.2294 66.0989 60.7792 64.2357 60.7792C62.3725 60.7792 61.4256 60.2599 60.5704 59.7712C59.8067 59.3436 59.1348 58.9771 57.7603 58.9771C56.3858 58.9771 55.7138 59.3436 54.9502 59.7712C54.0949 60.2294 53.148 60.7792 51.2848 60.7792C49.4216 60.7792 48.4747 60.2599 47.6194 59.7712C46.8558 59.3436 46.1839 58.9771 44.8093 58.9771C44.3206 58.9771 43.9541 58.58 43.9541 58.1218C43.9541 57.6637 44.3512 57.2666 44.8093 57.2666C46.642 57.2666 47.6195 57.7858 48.4747 58.2745C49.2383 58.7022 49.9103 59.0687 51.2848 59.0687C52.6593 59.0687 53.3313 58.7022 54.0949 58.2745C54.9502 57.8164 55.897 57.2666 57.7603 57.2666C59.6235 57.2666 60.5704 57.7858 61.4256 58.2745C62.1892 58.7022 62.8612 59.0687 64.2357 59.0687C65.6102 59.0687 66.2822 58.7022 67.0458 58.2745C67.901 57.8164 68.848 57.2666 70.7112 57.2666C72.5744 57.2666 73.5213 57.7858 74.3765 58.2745C75.1401 58.7022 75.8121 59.0687 77.1866 59.0687C78.5611 59.0687 79.2331 58.7022 79.9967 58.2745C80.852 57.8164 81.7988 57.2666 83.662 57.2666C85.5253 57.2666 86.4721 57.7858 87.3274 58.2745C88.091 58.7022 88.763 59.0687 90.1375 59.0687C91.512 59.0687 92.184 58.7022 92.9476 58.2745C93.8029 57.8164 94.7497 57.2666 96.613 57.2666C97.1017 57.2666 97.4682 57.6637 97.4682 58.1218C97.4682 58.58 97.0711 58.9771 96.613 58.9771C95.2079 58.9771 94.5665 59.3436 93.8029 59.7712C92.9476 60.2294 92.0007 60.7792 90.1375 60.7792Z" fill="#0F1134"/>
<path d="M90.1375 67.8957C88.3048 67.8957 87.3274 67.3764 86.4721 66.8877C85.7085 66.4601 85.0365 66.0935 83.662 66.0935C82.2875 66.0935 81.6156 66.4601 80.8519 66.8877C79.9967 67.3459 79.0498 67.8957 77.1866 67.8957C75.3234 67.8957 74.3765 67.3764 73.5213 66.8877C72.7577 66.4601 72.0857 66.0935 70.7112 66.0935C69.3367 66.0935 68.6646 66.4601 67.901 66.8877C67.0458 67.3459 66.0989 67.8957 64.2357 67.8957C62.3725 67.8957 61.4256 67.3764 60.5704 66.8877C59.8067 66.4601 59.1348 66.0935 57.7603 66.0935C56.3858 66.0935 55.7138 66.4601 54.9502 66.8877C54.0949 67.3459 53.148 67.8957 51.2848 67.8957C49.4216 67.8957 48.4747 67.3764 47.6194 66.8877C46.8558 66.4601 46.1839 66.0935 44.8093 66.0935C44.3206 66.0935 43.9541 65.6965 43.9541 65.2383C43.9541 64.7801 44.3512 64.3831 44.8093 64.3831C46.642 64.3831 47.6195 64.9024 48.4747 65.3911C49.2383 65.8187 49.9103 66.1852 51.2848 66.1852C52.6593 66.1852 53.3313 65.8187 54.0949 65.3911C54.9502 64.9329 55.897 64.3831 57.7603 64.3831C59.6235 64.3831 60.5704 64.9024 61.4256 65.3911C62.1892 65.8187 62.8612 66.1852 64.2357 66.1852C65.6102 66.1852 66.2822 65.8187 67.0458 65.3911C67.901 64.9329 68.848 64.3831 70.7112 64.3831C72.5744 64.3831 73.5213 64.9024 74.3765 65.3911C75.1401 65.8187 75.8121 66.1852 77.1866 66.1852C78.5611 66.1852 79.2331 65.8187 79.9967 65.3911C80.852 64.9329 81.7988 64.3831 83.662 64.3831C85.5253 64.3831 86.4721 64.9024 87.3274 65.3911C88.091 65.8187 88.763 66.1852 90.1375 66.1852C91.512 66.1852 92.184 65.8187 92.9476 65.3911C93.8029 64.9329 94.7497 64.3831 96.613 64.3831C97.1017 64.3831 97.4682 64.7801 97.4682 65.2383C97.4682 65.6965 97.0711 66.0935 96.613 66.0935C95.2079 66.0935 94.5665 66.4601 93.8029 66.8877C92.9476 67.3459 92.0007 67.8957 90.1375 67.8957Z" fill="#0F1134"/>
<path d="M90.1375 75.0126C88.3048 75.0126 87.3274 74.4933 86.4721 74.0046C85.7085 73.577 85.0365 73.2105 83.662 73.2105C82.2875 73.2105 81.6156 73.577 80.8519 74.0046C79.9967 74.4628 79.0498 75.0126 77.1866 75.0126C75.3234 75.0126 74.3765 74.4933 73.5213 74.0046C72.7577 73.577 72.0857 73.2105 70.7112 73.2105C69.3367 73.2105 68.6646 73.577 67.901 74.0046C67.0458 74.4628 66.0989 75.0126 64.2357 75.0126C62.3725 75.0126 61.4256 74.4933 60.5704 74.0046C59.8067 73.577 59.1348 73.2105 57.7603 73.2105C56.3858 73.2105 55.7138 73.577 54.9502 74.0046C54.0949 74.4628 53.148 75.0126 51.2848 75.0126C49.4216 75.0126 48.4747 74.4933 47.6194 74.0046C46.8558 73.577 46.1839 73.2105 44.8093 73.2105C44.3206 73.2105 43.9541 72.8134 43.9541 72.3552C43.9541 71.8971 44.3512 71.5 44.8093 71.5C46.642 71.5 47.6195 72.0192 48.4747 72.5079C49.2383 72.9356 49.9103 73.3021 51.2848 73.3021C52.6593 73.3021 53.3313 72.9356 54.0949 72.5079C54.9502 72.0498 55.897 71.5 57.7603 71.5C59.6235 71.5 60.5704 72.0192 61.4256 72.5079C62.1892 72.9356 62.8612 73.3021 64.2357 73.3021C65.6102 73.3021 66.2822 72.9356 67.0458 72.5079C67.901 72.0498 68.848 71.5 70.7112 71.5C72.5744 71.5 73.5213 72.0192 74.3765 72.5079C75.1401 72.9356 75.8121 73.3021 77.1866 73.3021C78.5611 73.3021 79.2331 72.9356 79.9967 72.5079C80.852 72.0498 81.7988 71.5 83.662 71.5C85.5253 71.5 86.4721 72.0192 87.3274 72.5079C88.091 72.9356 88.763 73.3021 90.1375 73.3021C91.512 73.3021 92.184 72.9356 92.9476 72.5079C93.8029 72.0498 94.7497 71.5 96.613 71.5C97.1017 71.5 97.4682 71.8971 97.4682 72.3552C97.4682 72.8134 97.0711 73.2105 96.613 73.2105C95.2079 73.2105 94.5665 73.577 93.8029 74.0046C92.9476 74.4628 92.0007 75.0126 90.1375 75.0126Z" fill="#0F1134"/>
<path d="M90.1375 82.1296C88.3048 82.1296 87.3274 81.6103 86.4721 81.1216C85.7085 80.694 85.0365 80.3274 83.662 80.3274C82.2875 80.3274 81.6156 80.694 80.8519 81.1216C79.9967 81.5798 79.0498 82.1296 77.1866 82.1296C75.3234 82.1296 74.3765 81.6103 73.5213 81.1216C72.7577 80.694 72.0857 80.3274 70.7112 80.3274C69.3367 80.3274 68.6646 80.694 67.901 81.1216C67.0458 81.5798 66.0989 82.1296 64.2357 82.1296C62.3725 82.1296 61.4256 81.6103 60.5704 81.1216C59.8067 80.694 59.1348 80.3274 57.7603 80.3274C56.3858 80.3274 55.7138 80.694 54.9502 81.1216C54.0949 81.5798 53.148 82.1296 51.2848 82.1296C49.4216 82.1296 48.4747 81.6103 47.6194 81.1216C46.8558 80.694 46.1839 80.3274 44.8093 80.3274C44.3206 80.3274 43.9541 79.9304 43.9541 79.4722C43.9541 79.014 44.3512 78.6169 44.8093 78.6169C46.642 78.6169 47.6195 79.1362 48.4747 79.6249C49.2383 80.0525 49.9103 80.4191 51.2848 80.4191C52.6593 80.4191 53.3313 80.0525 54.0949 79.6249C54.9502 79.1667 55.897 78.6169 57.7603 78.6169C59.6235 78.6169 60.5704 79.1362 61.4256 79.6249C62.1892 80.0525 62.8612 80.4191 64.2357 80.4191C65.6102 80.4191 66.2822 80.0525 67.0458 79.6249C67.901 79.1667 68.848 78.6169 70.7112 78.6169C72.5744 78.6169 73.5213 79.1362 74.3765 79.6249C75.1401 80.0525 75.8121 80.4191 77.1866 80.4191C78.5611 80.4191 79.2331 80.0525 79.9967 79.6249C80.852 79.1667 81.7988 78.6169 83.662 78.6169C85.5253 78.6169 86.4721 79.1362 87.3274 79.6249C88.091 80.0525 88.763 80.4191 90.1375 80.4191C91.512 80.4191 92.184 80.0525 92.9476 79.6249C93.8029 79.1667 94.7497 78.6169 96.613 78.6169C97.1017 78.6169 97.4682 79.014 97.4682 79.4722C97.4682 79.9304 97.0711 80.3274 96.613 80.3274C95.2079 80.3274 94.5665 80.694 93.8029 81.1216C92.9476 81.5798 92.0007 82.1296 90.1375 82.1296Z" fill="#0F1134"/>
<path d="M189.468 115.362L147.377 180.086L119.215 152.474L96.8262 176.604L123.278 208.157C137.573 222.268 160.848 221.199 173.799 205.896L210.483 162.554" fill="#008C9D"/>
<path d="M147.469 218.969C138.214 218.969 129.234 215.304 122.636 208.798L95.6348 176.604L119.154 151.252L147.194 178.742L188.704 114.904C188.979 114.507 189.498 114.385 189.895 114.66C190.292 114.935 190.415 115.454 190.14 115.851L147.469 181.461L119.185 153.726L97.8951 176.665L123.858 207.637C130.547 214.235 139.497 217.656 148.904 217.228C158.373 216.801 166.926 212.586 173.065 205.377L209.749 162.034C210.055 161.668 210.605 161.637 210.971 161.943C211.338 162.248 211.399 162.798 211.063 163.165L174.379 206.507C168.056 213.991 158.801 218.542 148.996 218.969C148.477 218.969 147.958 219 147.438 219L147.469 218.969Z" fill="#0F1134"/>
</svg>
