<svg width="224" height="209" viewBox="0 0 224 209" fill="none" xmlns="http://www.w3.org/2000/svg">
<path d="M90.817 11.0097H13.2033C6.6973 11.0097 1.41309 16.2939 1.41309 22.7999V128.118H90.8476V10.9792L90.817 11.0097Z" fill="white"/>
<path d="M90.8171 129.003H1.38259C0.893875 129.003 0.527344 128.606 0.527344 128.148V22.8305C0.527344 15.8358 6.20866 10.1545 13.2034 10.1545H90.8171C91.3058 10.1545 91.6724 10.5516 91.6724 11.0098V128.148C91.6724 128.637 91.2752 129.003 90.8171 129.003ZM2.26841 127.262H89.9618V11.865H13.2034C7.18609 11.865 2.26841 16.7827 2.26841 22.8V127.262Z" fill="#0F1134"/>
<path d="M24.4438 22.4639V31.9939H103.585V22.4639C103.432 16.1106 98.2395 10.9792 91.8557 10.9792H13.631C13.4783 10.9792 13.1729 10.9792 13.1729 10.9792C19.3429 11.2235 24.2911 16.2329 24.4438 22.4334V22.4639Z" fill="#E6E6E6"/>
<path d="M104.471 32.8796H23.5888V22.4945C23.4666 16.7827 18.885 12.1093 13.1426 11.8955V10.1545C13.1426 10.1545 13.4786 10.1545 13.6313 10.1545H91.8559C98.6368 10.1545 104.288 15.683 104.44 22.4639V32.8796H104.471ZM25.3299 31.1387H102.73V22.4639C102.608 16.6299 97.7205 11.865 91.8559 11.865H19.0682C22.7336 14.0031 25.2077 17.9433 25.3299 22.4639V31.1691V31.1387Z" fill="#0F1134"/>
<path d="M61.2198 78.2694L53.1254 86.7608L45.4282 91.9228C42.893 93.6028 41.213 96.2907 40.7243 99.2841V99.4367L40.2356 99.8644C37.5171 102.369 36.2343 106.095 36.8757 109.761L38.1586 117.153L31.0112 112.632L31.225 102.705C31.1028 100.75 29.9115 98.9786 28.1094 98.1844L26.6128 97.5124C25.3299 96.9321 23.8943 97.8484 23.8332 99.2229L23.2834 114.74C23.1917 117.122 24.3525 119.382 26.3684 120.696L37.2728 127.843C40.1745 134.135 45.0311 139.297 51.1095 142.566L61.3114 148.094L92.8945 187.741L112.596 162.053L76.7669 124.239L79.913 120.971C82.8148 117.947 83.9449 113.609 82.9064 109.547L78.7523 93.6943C78.3552 92.1366 76.6447 91.3425 75.1786 92.0144L73.9874 92.5642C71.4216 93.7555 69.9555 96.4434 70.322 99.2229L71.33 106.798C71.6355 109.18 70.6886 111.532 68.7948 112.999L57.0962 96.6878L64.0299 85.9666C65.16 84.195 65.496 82.0264 64.9462 80.0104L64.7018 79.1552C64.2742 77.6585 62.3805 77.1698 61.3114 78.3L61.2198 78.2694Z" fill="white"/>
<path d="M92.8939 189.116L60.7305 148.766L50.6813 143.329C44.5419 140 39.5326 134.716 36.5698 128.424L25.8792 121.398C23.6494 119.932 22.3054 117.366 22.4276 114.678L22.9774 99.1619C23.008 98.215 23.4967 97.3597 24.3214 96.871C25.1156 96.3823 26.1235 96.2907 26.9788 96.6878L28.4755 97.3598C30.583 98.3066 31.9575 100.323 32.1103 102.613L31.8964 112.143L36.9668 115.381L36.02 109.914C35.348 105.943 36.6919 101.972 39.6547 99.2229L39.8991 99.0092C40.4794 95.7715 42.3121 92.9613 44.939 91.1897L52.6362 86.0277L60.6083 77.6585C61.3414 76.8949 62.3799 76.5895 63.3879 76.8644C64.3959 77.1087 65.19 77.8723 65.4649 78.8802L65.7093 79.7355C66.3202 81.9958 65.9536 84.4089 64.7013 86.3943L58.1037 96.6267L68.8859 111.685C70.1077 110.402 70.688 108.631 70.4437 106.859L69.4357 99.2841C69.0081 96.1074 70.688 93.0529 73.5898 91.709L74.781 91.1592C75.6973 90.7316 76.7664 90.7316 77.7133 91.1592C78.6602 91.5868 79.3016 92.4115 79.5765 93.4195L83.7306 109.272C84.8607 113.609 83.6389 118.283 80.5234 121.521L77.9577 124.178L113.725 161.931L92.8939 189.085V189.116ZM25.818 98.1844C25.6042 98.1844 25.421 98.2455 25.2377 98.3677C24.9323 98.5509 24.749 98.887 24.7184 99.2535L24.1687 114.77C24.1076 116.847 25.1156 118.833 26.8566 119.963L37.9748 127.263L38.0665 127.477C40.8766 133.555 45.6415 138.625 51.5366 141.802L62.0134 147.544L92.8939 186.306L111.465 162.084L75.5752 124.208L79.3016 120.36C81.9895 117.58 83.0586 113.518 82.0506 109.761L77.8965 93.9082C77.7744 93.4195 77.4384 92.9919 76.9802 92.7781C76.522 92.5643 76.0028 92.5643 75.5141 92.7781L74.3228 93.3278C72.0931 94.3664 70.8408 96.6572 71.1462 99.1008L72.1542 106.676C72.5207 109.333 71.4211 112.021 69.3135 113.671L68.611 114.22L68.0612 113.518L56.0266 96.6878L63.2657 85.4474C64.2737 83.8896 64.5791 81.9653 64.0599 80.1937L63.8155 79.3385C63.6933 78.9414 63.3879 78.6359 62.9908 78.5443C62.5937 78.4527 62.1661 78.5443 61.8912 78.8498L53.7969 87.3411L45.947 92.6253C43.6256 94.1831 42.0678 96.6572 41.6402 99.4062L41.5791 99.7117L41.3347 100.078L40.8765 100.506C38.3413 102.827 37.1806 106.248 37.7915 109.608L39.4104 118.924L30.1859 113.09L30.3997 102.674C30.3081 101.086 29.3002 99.6506 27.8035 98.9786L26.3068 98.3066C26.3068 98.3066 26.0013 98.215 25.8486 98.215L25.818 98.1844Z" fill="#0F1134"/>
<path d="M51.0174 110.799C50.6814 110.799 50.3455 110.585 50.2233 110.249L46.1914 99.1C45.3972 96.8702 45.8249 94.335 47.3216 92.5328L52.4836 86.2712C52.789 85.9047 53.3083 85.8741 53.6443 86.149C54.0108 86.4545 54.0414 86.9738 53.7665 87.3097L48.6044 93.5714C47.4743 94.9459 47.1383 96.8397 47.7492 98.5196L51.781 109.668C51.9338 110.096 51.72 110.585 51.2924 110.737C51.2007 110.768 51.1091 110.799 51.0174 110.799Z" fill="#0F1134"/>
<path d="M45.3665 114.8C45.0305 114.8 44.6944 114.586 44.5723 114.251L39.4408 100.169C39.2881 99.7418 39.5019 99.2531 39.9295 99.1004C40.3572 98.9477 40.8458 99.1614 40.9986 99.5891L46.1301 113.67C46.2828 114.098 46.069 114.587 45.6413 114.739C45.5497 114.77 45.4581 114.8 45.3665 114.8Z" fill="#0F1134"/>
<path d="M39.3801 120.421C39.0747 120.421 38.7693 120.237 38.6471 119.962L37.4253 117.549C37.2115 117.152 37.3947 116.633 37.7918 116.419C38.1889 116.205 38.7082 116.389 38.922 116.786L40.1437 119.199C40.3575 119.596 40.1743 120.115 39.7772 120.329C39.655 120.39 39.5329 120.421 39.4107 120.421H39.3801Z" fill="#0F1134"/>
<path d="M48.8184 158.112L66.2593 80.0095L73.0402 68.6774L74.3536 81.8421L56.9127 159.945C54.1331 161.258 50.8038 160.494 48.8489 158.142L48.8184 158.112Z" fill="white"/>
<path d="M48.8184 158.112L65.8317 81.934L73.8955 83.7362L56.8821 159.914C54.1026 161.228 50.7732 160.464 48.8184 158.112Z" fill="#A4D32E"/>
<path d="M54.0418 161.441C51.812 161.441 49.6434 160.464 48.1772 158.692L47.9023 158.356L47.994 157.929L65.1905 80.8954L74.9648 83.0641L57.646 160.495L57.249 160.678C56.2105 161.167 55.1109 161.411 54.0113 161.411L54.0418 161.441ZM49.7656 157.898C51.415 159.609 53.9196 160.189 56.1494 159.334L72.8878 84.4386L66.504 83.003L49.7656 157.898Z" fill="#0F1134"/>
<path d="M54.0414 161.442C51.8117 161.442 49.643 160.465 48.1769 158.693C47.9936 158.479 47.9325 158.204 47.9936 157.96L65.4345 79.8574C65.4345 79.8574 65.4956 79.6742 65.5262 79.6131L72.3071 68.281C72.4903 67.9756 72.8874 67.7924 73.2539 67.884C73.6205 67.9756 73.8954 68.2811 73.9259 68.6476L75.2394 81.8123C75.2394 81.8123 75.2394 81.9956 75.2394 82.0872L57.7984 160.19C57.7373 160.465 57.5541 160.678 57.3097 160.77C56.2712 161.259 55.1716 161.503 54.072 161.503L54.0414 161.442ZM49.7652 157.899C51.4146 159.609 53.9193 160.19 56.149 159.334L73.4678 81.7817L72.4293 71.3966L67.084 80.3767L49.7652 157.929V157.899Z" fill="#0F1134"/>
<path d="M106.761 79.3685L129.7 23.3803C138.925 0.838434 166.843 -7.13369 186.574 7.16117L192.133 11.193L204.504 23.1359C217.333 35.5065 218.218 55.7576 206.55 69.2278L201.724 74.7868C195.127 82.3924 185.536 86.7298 175.487 86.6992L111.435 86.4243C107.83 86.4243 105.387 82.759 106.761 79.3991V79.3685Z" fill="#0F1134"/>
<path d="M177.54 46.0306L153.865 50.6968L162.896 96.5179L186.571 91.8516L177.54 46.0306Z" fill="white"/>
<path d="M162.933 97.2985C162.75 97.2985 162.597 97.2375 162.444 97.1459C162.261 97.0237 162.108 96.8099 162.078 96.5961L153.036 50.7792C153.006 50.5654 153.036 50.3211 153.159 50.1378C153.281 49.9546 153.495 49.8018 153.708 49.7712L177.38 45.0979C177.839 45.0063 178.297 45.3117 178.388 45.7699L187.43 91.5867C187.521 92.0449 187.216 92.5031 186.758 92.5948L163.086 97.2681C163.086 97.2681 162.963 97.2681 162.933 97.2681V97.2985ZM154.93 51.2984L163.635 95.4048L185.627 91.0675L176.922 46.9612L154.93 51.2984Z" fill="#0F1134"/>
<path d="M130.067 37.6449L132.907 54.6888C134.618 65.0129 145.736 70.8468 155.205 66.3873L168.369 60.2173C178.51 55.4524 181.901 42.7153 175.456 33.5519L159.695 11.1322L143.781 15.775C134.343 18.524 128.448 27.9012 130.067 37.6144V37.6449Z" fill="white"/>
<path d="M151.539 7.37511L158.106 24.8466L126.187 36.4841L124.874 25.7629C123.896 17.7908 129.364 10.5212 137.122 9.42159L151.539 7.37511Z" fill="#0F1134"/>
<path d="M178.297 45.3722C183.206 45.3722 187.185 41.3928 187.185 36.4838C187.185 31.5748 183.206 27.5953 178.297 27.5953C173.388 27.5953 169.408 31.5748 169.408 36.4838C169.408 41.3928 173.388 45.3722 178.297 45.3722Z" fill="white"/>
<path d="M151.479 11.8953L165.773 29.7028C169.255 34.0401 174.967 34.0707 178.48 29.7028L183.428 23.5633L170.05 9.29902C165.834 4.80897 158.779 4.68677 154.411 8.99356L151.479 11.8953Z" fill="#0F1134"/>
<path d="M101.507 80.7735C101.507 80.7735 101.202 80.7429 101.08 80.6513C100.652 80.4069 100.53 79.8876 100.744 79.46C112.045 59.5449 127.806 21.4253 127.989 21.0588C128.173 20.6312 128.661 20.4174 129.12 20.6006C129.547 20.7839 129.761 21.3031 129.578 21.7308C129.425 22.1278 113.634 60.3391 102.24 80.3458C102.088 80.6207 101.782 80.7735 101.477 80.7735H101.507Z" fill="#0F1134"/>
<path d="M170.08 53.3753C170.08 53.3753 166.628 61.103 157.129 66.6316L170.08 53.3753Z" fill="white"/>
<path d="M157.129 67.5171C156.824 67.5171 156.549 67.3644 156.366 67.0895C156.121 66.6619 156.274 66.1426 156.671 65.8982C165.835 60.5529 169.256 53.1001 169.286 53.039C169.469 52.6114 169.989 52.3976 170.416 52.6114C170.844 52.7947 171.058 53.3139 170.844 53.7416C170.691 54.0776 167.148 61.7748 157.526 67.395C157.404 67.4866 157.252 67.5171 157.099 67.5171H157.129Z" fill="#0F1134"/>
<path d="M129.823 40.8823C129.639 40.8823 129.426 40.8212 129.273 40.6684C128.906 40.363 128.845 39.8132 129.151 39.4467C130.8 37.4918 133.03 36.8198 133.152 36.7892C133.61 36.667 134.099 36.9114 134.221 37.3696C134.343 37.8277 134.099 38.3165 133.641 38.4387C133.61 38.4387 131.777 39.019 130.495 40.5462C130.311 40.7601 130.067 40.8517 129.823 40.8517V40.8823Z" fill="#0F1134"/>
<path d="M143.751 35.8421C143.384 35.8421 143.048 35.5978 142.926 35.2312C142.773 34.7731 143.048 34.2843 143.507 34.1316C144.026 33.9788 148.669 32.5738 151.265 33.8873C151.692 34.1011 151.876 34.6203 151.662 35.048C151.448 35.4756 150.929 35.6588 150.501 35.445C148.821 34.5897 145.248 35.4145 144.026 35.781C143.934 35.781 143.843 35.8116 143.781 35.8116L143.751 35.8421Z" fill="#0F1134"/>
<path d="M140.269 42.8376L139.322 44.4565C138.436 45.9532 139.536 47.8775 141.277 47.8775H142.957L140.3 42.8376H140.269Z" fill="white"/>
<path d="M142.926 48.7631H141.246C140.116 48.7631 139.108 48.1828 138.528 47.1748C137.978 46.1974 137.978 45.0062 138.528 44.0288L139.474 42.4099C139.719 42.0128 140.238 41.8601 140.666 42.1044C141.063 42.3488 141.216 42.868 140.971 43.2956L140.024 44.9145C139.78 45.3421 139.749 45.892 140.024 46.3196C140.269 46.7472 140.727 47.0221 141.246 47.0221H142.926C143.415 47.0221 143.781 47.4191 143.781 47.8773C143.781 48.3355 143.384 48.7326 142.926 48.7326V48.7631Z" fill="#0F1134"/>
<path d="M148.821 62.3555C146.866 62.3555 144.27 61.1032 141.032 58.5374C140.818 58.3542 140.696 58.0792 140.696 57.8043C140.696 57.5294 140.88 57.2546 141.124 57.1018L151.051 51.1456C151.295 50.9929 151.57 50.9929 151.845 51.0845C152.089 51.2067 152.273 51.4205 152.364 51.6954C152.548 52.5201 154.105 59.698 150.807 61.8056C150.226 62.1722 149.585 62.3555 148.852 62.3555H148.821ZM143.109 57.9265C147.355 61.0115 149.157 60.7977 149.86 60.3395C151.448 59.3316 151.234 55.5441 150.868 53.2838L143.079 57.9571L143.109 57.9265Z" fill="#0F1134"/>
<path d="M146.653 42.7762C147.834 42.7762 148.791 41.8189 148.791 40.6381C148.791 39.4572 147.834 38.4999 146.653 38.4999C145.472 38.4999 144.515 39.4572 144.515 40.6381C144.515 41.8189 145.472 42.7762 146.653 42.7762Z" fill="#0F1134"/>
<path d="M134.831 45.4637C136.012 45.4637 136.97 44.5064 136.97 43.3255C136.97 42.1447 136.012 41.1874 134.831 41.1874C133.651 41.1874 132.693 42.1447 132.693 43.3255C132.693 44.5064 133.651 45.4637 134.831 45.4637Z" fill="#0F1134"/>
<path d="M223.472 187.496V122.314C223.472 115.289 221.304 108.447 217.302 102.704L212.935 96.4425C204.016 83.6749 187.583 78.5434 172.982 83.9498L160.978 88.4094L140.147 119.473C134.924 127.262 134.404 137.281 138.803 145.558V187.496H223.472Z" fill="#008C9D"/>
<path d="M178.297 45.3723L171.669 85.8133C171.669 85.8133 183.948 86.6074 192.653 81.8425C201.358 77.1081 178.297 45.3418 178.297 45.3418V45.3723Z" fill="#0F1134"/>
<path d="M66.1375 50.7791C64.3048 50.7791 63.3274 50.2598 62.4721 49.7711C61.7085 49.3434 61.0365 48.977 59.662 48.977C58.2875 48.977 57.6156 49.3434 56.8519 49.7711C55.9967 50.2292 55.0498 50.7791 53.1866 50.7791C51.3234 50.7791 50.3765 50.2598 49.5213 49.7711C48.7577 49.3434 48.0857 48.977 46.7112 48.977C45.3367 48.977 44.6646 49.3434 43.901 49.7711C43.0458 50.2292 42.0989 50.7791 40.2357 50.7791C38.3725 50.7791 37.4256 50.2598 36.5704 49.7711C35.8067 49.3434 35.1348 48.977 33.7603 48.977C32.3858 48.977 31.7138 49.3434 30.9502 49.7711C30.0949 50.2292 29.148 50.7791 27.2848 50.7791C25.4216 50.7791 24.4747 50.2598 23.6194 49.7711C22.8558 49.3434 22.1839 48.977 20.8093 48.977C20.3206 48.977 19.9541 48.5799 19.9541 48.1217C19.9541 47.6636 20.3512 47.2665 20.8093 47.2665C22.642 47.2665 23.6195 47.7857 24.4747 48.2744C25.2383 48.702 25.9103 49.0686 27.2848 49.0686C28.6593 49.0686 29.3313 48.702 30.0949 48.2744C30.9502 47.8162 31.897 47.2665 33.7603 47.2665C35.6235 47.2665 36.5704 47.7857 37.4256 48.2744C38.1892 48.702 38.8612 49.0686 40.2357 49.0686C41.6102 49.0686 42.2822 48.702 43.0458 48.2744C43.901 47.8162 44.848 47.2665 46.7112 47.2665C48.5744 47.2665 49.5213 47.7857 50.3765 48.2744C51.1401 48.702 51.8121 49.0686 53.1866 49.0686C54.5611 49.0686 55.2331 48.702 55.9967 48.2744C56.852 47.8162 57.7988 47.2665 59.662 47.2665C61.5253 47.2665 62.4721 47.7857 63.3274 48.2744C64.091 48.702 64.763 49.0686 66.1375 49.0686C67.512 49.0686 68.184 48.702 68.9476 48.2744C69.8029 47.8162 70.7497 47.2665 72.613 47.2665C73.1017 47.2665 73.4682 47.6636 73.4682 48.1217C73.4682 48.5799 73.0711 48.977 72.613 48.977C71.2079 48.977 70.5665 49.3434 69.8029 49.7711C68.9476 50.2292 68.0007 50.7791 66.1375 50.7791Z" fill="#0F1134"/>
<path d="M66.1375 57.8956C64.3048 57.8956 63.3274 57.3764 62.4721 56.8877C61.7085 56.4601 61.0365 56.0935 59.662 56.0935C58.2875 56.0935 57.6156 56.4601 56.8519 56.8877C55.9967 57.3459 55.0498 57.8956 53.1866 57.8956C51.3234 57.8956 50.3765 57.3764 49.5213 56.8877C48.7577 56.4601 48.0857 56.0935 46.7112 56.0935C45.3367 56.0935 44.6646 56.4601 43.901 56.8877C43.0458 57.3459 42.0989 57.8956 40.2357 57.8956C38.3725 57.8956 37.4256 57.3764 36.5704 56.8877C35.8067 56.4601 35.1348 56.0935 33.7603 56.0935C32.3858 56.0935 31.7138 56.4601 30.9502 56.8877C30.0949 57.3459 29.148 57.8956 27.2848 57.8956C25.4216 57.8956 24.4747 57.3764 23.6194 56.8877C22.8558 56.4601 22.1839 56.0935 20.8093 56.0935C20.3206 56.0935 19.9541 55.6964 19.9541 55.2383C19.9541 54.7801 20.3512 54.383 20.8093 54.383C22.642 54.383 23.6195 54.9023 24.4747 55.391C25.2383 55.8187 25.9103 56.1851 27.2848 56.1851C28.6593 56.1851 29.3313 55.8187 30.0949 55.391C30.9502 54.9329 31.897 54.383 33.7603 54.383C35.6235 54.383 36.5704 54.9023 37.4256 55.391C38.1892 55.8187 38.8612 56.1851 40.2357 56.1851C41.6102 56.1851 42.2822 55.8187 43.0458 55.391C43.901 54.9329 44.848 54.383 46.7112 54.383C48.5744 54.383 49.5213 54.9023 50.3765 55.391C51.1401 55.8187 51.8121 56.1851 53.1866 56.1851C54.5611 56.1851 55.2331 55.8187 55.9967 55.391C56.852 54.9329 57.7988 54.383 59.662 54.383C61.5253 54.383 62.4721 54.9023 63.3274 55.391C64.091 55.8187 64.763 56.1851 66.1375 56.1851C67.512 56.1851 68.184 55.8187 68.9476 55.391C69.8029 54.9329 70.7497 54.383 72.613 54.383C73.1017 54.383 73.4682 54.7801 73.4682 55.2383C73.4682 55.6964 73.0711 56.0935 72.613 56.0935C71.2079 56.0935 70.5665 56.4601 69.8029 56.8877C68.9476 57.3459 68.0007 57.8956 66.1375 57.8956Z" fill="#0F1134"/>
<path d="M66.1375 65.0125C64.3048 65.0125 63.3274 64.4932 62.4721 64.0045C61.7085 63.5768 61.0365 63.2104 59.662 63.2104C58.2875 63.2104 57.6156 63.5768 56.8519 64.0045C55.9967 64.4626 55.0498 65.0125 53.1866 65.0125C51.3234 65.0125 50.3765 64.4932 49.5213 64.0045C48.7577 63.5768 48.0857 63.2104 46.7112 63.2104C45.3367 63.2104 44.6646 63.5768 43.901 64.0045C43.0458 64.4626 42.0989 65.0125 40.2357 65.0125C38.3725 65.0125 37.4256 64.4932 36.5704 64.0045C35.8067 63.5768 35.1348 63.2104 33.7603 63.2104C32.3858 63.2104 31.7138 63.5768 30.9502 64.0045C30.0949 64.4626 29.148 65.0125 27.2848 65.0125C25.4216 65.0125 24.4747 64.4932 23.6194 64.0045C22.8558 63.5768 22.1839 63.2104 20.8093 63.2104C20.3206 63.2104 19.9541 62.8133 19.9541 62.3551C19.9541 61.897 20.3512 61.4999 20.8093 61.4999C22.642 61.4999 23.6195 62.0191 24.4747 62.5078C25.2383 62.9354 25.9103 63.302 27.2848 63.302C28.6593 63.302 29.3313 62.9354 30.0949 62.5078C30.9502 62.0496 31.897 61.4999 33.7603 61.4999C35.6235 61.4999 36.5704 62.0191 37.4256 62.5078C38.1892 62.9354 38.8612 63.302 40.2357 63.302C41.6102 63.302 42.2822 62.9354 43.0458 62.5078C43.901 62.0496 44.848 61.4999 46.7112 61.4999C48.5744 61.4999 49.5213 62.0191 50.3765 62.5078C51.1401 62.9354 51.8121 63.302 53.1866 63.302C54.5611 63.302 55.2331 62.9354 55.9967 62.5078C56.852 62.0496 57.7988 61.4999 59.662 61.4999C61.5253 61.4999 62.4721 62.0191 63.3274 62.5078C64.091 62.9354 64.763 63.302 66.1375 63.302C67.512 63.302 68.184 62.9354 68.9476 62.5078C69.8029 62.0496 70.7497 61.4999 72.613 61.4999C73.1017 61.4999 73.4682 61.897 73.4682 62.3551C73.4682 62.8133 73.0711 63.2104 72.613 63.2104C71.2079 63.2104 70.5665 63.5768 69.8029 64.0045C68.9476 64.4626 68.0007 65.0125 66.1375 65.0125Z" fill="#0F1134"/>
<path d="M66.1375 72.1297C64.3048 72.1297 63.3274 71.6104 62.4721 71.1217C61.7085 70.6941 61.0365 70.3275 59.662 70.3275C58.2875 70.3275 57.6156 70.6941 56.8519 71.1217C55.9967 71.5799 55.0498 72.1297 53.1866 72.1297C51.3234 72.1297 50.3765 71.6104 49.5213 71.1217C48.7577 70.6941 48.0857 70.3275 46.7112 70.3275C45.3367 70.3275 44.6646 70.6941 43.901 71.1217C43.0458 71.5799 42.0989 72.1297 40.2357 72.1297C38.3725 72.1297 37.4256 71.6104 36.5704 71.1217C35.8067 70.6941 35.1348 70.3275 33.7603 70.3275C32.3858 70.3275 31.7138 70.6941 30.9502 71.1217C30.0949 71.5799 29.148 72.1297 27.2848 72.1297C25.4216 72.1297 24.4747 71.6104 23.6194 71.1217C22.8558 70.6941 22.1839 70.3275 20.8093 70.3275C20.3206 70.3275 19.9541 69.9305 19.9541 69.4723C19.9541 69.0141 20.3512 68.6171 20.8093 68.6171C22.642 68.6171 23.6195 69.1363 24.4747 69.625C25.2383 70.0526 25.9103 70.4192 27.2848 70.4192C28.6593 70.4192 29.3313 70.0526 30.0949 69.625C30.9502 69.1668 31.897 68.6171 33.7603 68.6171C35.6235 68.6171 36.5704 69.1363 37.4256 69.625C38.1892 70.0526 38.8612 70.4192 40.2357 70.4192C41.6102 70.4192 42.2822 70.0526 43.0458 69.625C43.901 69.1668 44.848 68.6171 46.7112 68.6171C48.5744 68.6171 49.5213 69.1363 50.3765 69.625C51.1401 70.0526 51.8121 70.4192 53.1866 70.4192C54.5611 70.4192 55.2331 70.0526 55.9967 69.625C56.852 69.1668 57.7988 68.6171 59.662 68.6171C61.5253 68.6171 62.4721 69.1363 63.3274 69.625C64.091 70.0526 64.763 70.4192 66.1375 70.4192C67.512 70.4192 68.184 70.0526 68.9476 69.625C69.8029 69.1668 70.7497 68.6171 72.613 68.6171C73.1017 68.6171 73.4682 69.0141 73.4682 69.4723C73.4682 69.9305 73.0711 70.3275 72.613 70.3275C71.2079 70.3275 70.5665 70.6941 69.8029 71.1217C68.9476 71.5799 68.0007 72.1297 66.1375 72.1297Z" fill="#0F1134"/>
<path d="M165.468 105.362L123.377 170.086L95.2153 142.474L72.8262 166.604L99.2778 198.157C113.573 212.268 136.848 211.199 149.799 195.896L186.483 152.554" fill="#008C9D"/>
<path d="M123.469 208.969C114.214 208.969 105.234 205.304 98.6362 198.798L71.6348 166.604L95.1541 141.252L123.194 168.742L164.704 104.904C164.979 104.507 165.498 104.385 165.895 104.66C166.292 104.935 166.415 105.454 166.14 105.851L123.469 171.461L95.1846 143.726L73.8951 166.665L99.858 197.637C106.547 204.235 115.497 207.656 124.904 207.228C134.373 206.801 142.926 202.586 149.065 195.377L185.749 152.034C186.055 151.668 186.605 151.637 186.971 151.943C187.338 152.248 187.399 152.798 187.063 153.164L150.379 196.507C144.056 203.991 134.801 208.542 124.996 208.969C124.477 208.969 123.958 209 123.438 209L123.469 208.969Z" fill="#0F1134"/>
</svg>
