<svg width="24" height="24" viewBox="0 0 24 24" fill="none" xmlns="http://www.w3.org/2000/svg">
<rect width="24" height="24" rx="12" fill="white"/>
<path d="M9.00065 17.6665C8.7209 17.6659 8.44637 17.5908 8.20531 17.4488C7.97406 17.3166 7.78193 17.1254 7.64844 16.8949C7.51496 16.6643 7.44488 16.4026 7.44531 16.1362V7.86249C7.44488 7.59608 7.51496 7.3343 7.64844 7.10375C7.78193 6.8732 7.97406 6.68208 8.20531 6.54982C8.44268 6.40931 8.71303 6.33418 8.98886 6.33208C9.26469 6.32997 9.53616 6.40096 9.77565 6.53782L17.109 10.6752C17.3455 10.8062 17.5426 10.9981 17.6799 11.2311C17.8171 11.464 17.8895 11.7294 17.8895 11.9998C17.8895 12.2702 17.8171 12.5356 17.6799 12.7686C17.5426 13.0015 17.3455 13.1935 17.109 13.3245L9.77565 17.4618C9.53925 17.5957 9.2723 17.6662 9.00065 17.6665ZM9.00065 6.99982C8.83918 7.00001 8.6807 7.0434 8.54165 7.12549C8.41134 7.19946 8.30295 7.30662 8.22748 7.43607C8.15201 7.56552 8.11216 7.71264 8.11198 7.86249V16.1372C8.11216 16.287 8.15201 16.4341 8.22748 16.5636C8.30295 16.693 8.41134 16.8002 8.54165 16.8742C8.67872 16.9552 8.8348 16.9986 8.99404 16.9998C9.15328 17.001 9.31001 16.9601 9.44831 16.8812L16.7816 12.7438C16.9153 12.6709 17.0269 12.5634 17.1047 12.4325C17.1824 12.3015 17.2235 12.1521 17.2235 11.9998C17.2235 11.8475 17.1824 11.6981 17.1047 11.5672C17.0269 11.4362 16.9153 11.3287 16.7816 11.2558L9.44831 7.11849C9.31179 7.04107 9.1576 7.0002 9.00065 6.99982Z" fill="#008C9D"/>
</svg>
