<svg width="80" height="80" viewBox="0 0 80 80" fill="none" xmlns="http://www.w3.org/2000/svg">
<circle cx="40" cy="40" r="40" fill="white"/>
<path d="M55.9904 35.4056C55.9904 35.4021 55.9908 35.3987 55.9908 35.3952C55.9908 31.1881 52.5803 27.7777 48.3733 27.7777C44.1662 27.7777 40.7559 31.1881 40.7559 35.3952C40.7559 39.6023 44.1666 43.0127 48.3733 43.0127C49.238 43.0127 50.0656 42.862 50.84 42.5964C49.1262 52.428 41.4594 58.7684 48.5665 53.5501C56.4472 47.7636 55.9992 35.6276 55.9904 35.4056Z" fill="#008C9D"/>
<path d="M31.6175 43.0126C32.4821 43.0126 33.3097 42.8619 34.0845 42.5963C32.3703 52.4279 24.7035 58.7683 31.8106 53.55C39.6913 47.7636 39.2434 35.6276 39.2345 35.4056C39.2345 35.4021 39.2349 35.3987 39.2349 35.3952C39.2349 31.1881 35.8245 27.7777 31.6175 27.7777C27.4104 27.7777 24 31.1881 24 35.3952C24 39.6023 27.4107 43.0126 31.6175 43.0126Z" fill="#008C9D"/>
</svg>
