<svg width="17" height="16" viewBox="0 0 17 16" fill="none" xmlns="http://www.w3.org/2000/svg">
<path d="M14.5705 15.7572L11.1395 12.3263C10.6001 12.7938 9.97074 13.158 9.25148 13.4187C8.53222 13.6794 7.768 13.8098 6.95884 13.8098C5.01684 13.8098 3.37153 13.1355 2.02292 11.7869C0.674306 10.4383 0 8.81093 0 6.90489C0 4.99885 0.674306 3.37153 2.02292 2.02292C3.37153 0.674306 5.00784 0 6.93186 0C8.8379 0 10.4607 0.674306 11.8004 2.02292C13.14 3.37153 13.8098 4.99885 13.8098 6.90489C13.8098 7.6781 13.6839 8.42433 13.4322 9.14359C13.1804 9.86285 12.8028 10.5372 12.2993 11.1665L15.7842 14.5974C15.9461 14.7413 16.027 14.9256 16.027 15.1504C16.027 15.3751 15.9371 15.5774 15.7573 15.7572C15.5954 15.9191 15.3976 16 15.1639 16C14.9301 16 14.7323 15.9191 14.5705 15.7572ZM6.93186 12.1914C8.38836 12.1914 9.62909 11.6745 10.654 10.6405C11.679 9.60661 12.1914 8.36139 12.1914 6.90489C12.1914 5.44839 11.679 4.20317 10.654 3.16924C9.62909 2.1353 8.38836 1.61833 6.93186 1.61833C5.45738 1.61833 4.20317 2.1353 3.16924 3.16924C2.1353 4.20317 1.61833 5.44839 1.61833 6.90489C1.61833 8.36139 2.1353 9.60661 3.16924 10.6405C4.20317 11.6745 5.45738 12.1914 6.93186 12.1914Z" fill="#0F1134" fill-opacity="0.6"/>
</svg>
