<svg width="59" height="60" viewBox="0 0 59 60" fill="none" xmlns="http://www.w3.org/2000/svg">
<path d="M44.3568 48.0751C46.5084 48.0751 48.2526 46.3309 48.2526 44.1793C48.2526 42.0277 46.5084 40.2834 44.3568 40.2834C42.2052 40.2834 40.4609 42.0277 40.4609 44.1793C40.4609 46.3309 42.2052 48.0751 44.3568 48.0751Z" stroke="#008C9D" stroke-width="1.7" stroke-linecap="round" stroke-linejoin="round"/>
<path fill-rule="evenodd" clip-rule="evenodd" d="M56.0048 47.3632L54.2646 46.3546C54.4228 45.6427 54.5216 44.9308 54.5216 44.1793C54.5216 43.4278 54.4228 42.6961 54.2646 42.0039L56.0048 40.9954C56.8156 40.5207 57.1518 39.5122 56.7761 38.6618C56.3806 37.7719 55.8862 36.9413 55.3324 36.1898C54.7787 35.4383 53.7306 35.2406 52.9396 35.6954L51.1795 36.704C50.1116 35.735 48.8262 35.0033 47.4221 34.5484V32.4917C47.4221 31.5623 46.7299 30.7712 45.8005 30.6526C45.3259 30.5933 44.8512 30.5735 44.3568 30.5735C43.8624 30.5735 43.3878 30.5933 42.9132 30.6526C41.9837 30.7515 41.2916 31.5623 41.2916 32.4917V34.5484C39.8875 35.0033 38.6021 35.735 37.5342 36.704L35.7741 35.6954C34.9633 35.2208 33.9349 35.4383 33.3812 36.1898C32.8077 36.9611 32.3331 37.7917 31.9376 38.6618C31.5618 39.5122 31.898 40.5207 32.7088 40.9954L34.4491 42.0039C34.2909 42.7159 34.192 43.4278 34.192 44.1793C34.192 44.9308 34.2909 45.6625 34.4491 46.3546L32.7088 47.3632C31.898 47.8378 31.5618 48.8464 31.9376 49.6968C32.3331 50.5867 32.8275 51.3975 33.3812 52.1687C33.9349 52.9202 34.9831 53.118 35.7741 52.6631L37.5342 51.6546C38.6021 52.6236 39.8875 53.3553 41.2916 53.8101V55.8668C41.2916 56.7963 41.9837 57.5873 42.9132 57.706C43.3878 57.7653 43.8624 57.7851 44.3568 57.7851C44.8512 57.7851 45.3259 57.7653 45.8005 57.706C46.7299 57.6071 47.4221 56.7963 47.4221 55.8668V53.8101C48.8262 53.3553 50.1116 52.6236 51.1795 51.6546L52.9396 52.6631C53.7504 53.1378 54.7787 52.9202 55.3324 52.1687C55.9059 51.3975 56.3806 50.5669 56.7761 49.6968C57.1518 48.8464 56.8156 47.8378 56.0048 47.3632Z" stroke="#008C9D" stroke-width="1.7" stroke-linecap="round" stroke-linejoin="round"/>
<path d="M44.3574 22.6632V17.0073" stroke="#008C9D" stroke-width="1.7" stroke-linecap="round" stroke-linejoin="round"/>
<path d="M29.0307 1.68091H9.61079C5.22055 1.68091 1.68066 5.24057 1.68066 9.61103V50.1516C1.68066 54.5418 5.24032 58.0817 9.61079 58.0817L30.3557 58.2992" stroke="#008C9D" stroke-width="1.7" stroke-linecap="round" stroke-linejoin="round"/>
<path d="M29.0303 1.68091L44.3566 17.0072" stroke="#008C9D" stroke-width="1.7" stroke-linecap="round" stroke-linejoin="round"/>
<path d="M29.0303 1.68091V17.0072H44.3566" stroke="#008C9D" stroke-width="1.7" stroke-linecap="round" stroke-linejoin="round"/>
<path d="M10.0459 19.1628H21.2984" stroke="#008C9D" stroke-width="1.7" stroke-linecap="round" stroke-linejoin="round"/>
<path d="M10.0459 25.2737H30.4744" stroke="#008C9D" stroke-width="1.7" stroke-linecap="round" stroke-linejoin="round"/>
<path d="M10.0459 31.3843H30.4744" stroke="#008C9D" stroke-width="1.7" stroke-linecap="round" stroke-linejoin="round"/>
<path d="M10.0459 48.7476C10.0459 48.7476 17.7585 43.0719 15.4645 42.4391C13.1705 41.8063 11.4104 54.0277 13.8231 51.4767C16.2357 48.9256 17.3827 47.1062 19.3208 47.126C21.2588 47.1457 26.5983 46.592 26.5983 46.592" stroke="#008C9D" stroke-width="1.7" stroke-linecap="round" stroke-linejoin="round"/>
</svg>
