<svg width="63" height="60" viewBox="0 0 63 60" fill="none" xmlns="http://www.w3.org/2000/svg">
<path d="M1.75781 35.8926V55.4101" stroke="#008C9D" stroke-width="1.7" stroke-linecap="round" stroke-linejoin="round"/>
<path d="M20.3037 52.6809V58.2426" stroke="#008C9D" stroke-width="1.7" stroke-linecap="round" stroke-linejoin="round"/>
<path d="M1.75781 35.665C1.75781 33.3287 3.63927 31.4473 5.97559 31.4473H18.691C20.5931 31.4473 22.1438 32.9979 22.1438 34.9001V50.8408C22.1438 51.337 21.9577 51.8125 21.6062 52.1433C21.2547 52.4948 20.7792 52.6809 20.3036 52.6809H4.54899C3.80468 52.6809 3.10171 52.9704 2.58483 53.4872C2.06794 54.0041 1.77849 54.7071 1.77849 55.4514C1.77849 56.1957 2.06794 56.8987 2.58483 57.4156C3.10171 57.9324 3.80468 58.2219 4.54899 58.2219H22.1644" stroke="#008C9D" stroke-width="1.7" stroke-linecap="round" stroke-linejoin="round"/>
<path d="M43.2536 40.7098C49.4197 40.7098 54.4183 35.7112 54.4183 29.5451C54.4183 23.379 49.4197 18.3804 43.2536 18.3804C37.0875 18.3804 32.0889 23.379 32.0889 29.5451C32.0889 35.7112 37.0875 40.7098 43.2536 40.7098Z" stroke="#008C9D" stroke-width="1.7" stroke-linecap="round" stroke-linejoin="round"/>
<path d="M27.0439 51.5229C29.6904 45.1756 35.955 40.7097 43.2535 40.7097" stroke="#008C9D" stroke-width="1.7" stroke-linecap="round" stroke-linejoin="round"/>
<path d="M60.8073 58.2426C60.8073 48.5459 52.9507 40.6892 43.2539 40.6892" stroke="#008C9D" stroke-width="1.7" stroke-linecap="round" stroke-linejoin="round"/>
<path fill-rule="evenodd" clip-rule="evenodd" d="M30.2689 12.922C30.2689 19.0833 25.2654 24.0868 19.1042 24.0868C12.9429 24.0868 7.93945 19.0833 7.93945 12.922C7.93945 6.76077 12.9429 1.75732 19.1042 1.75732C25.2654 1.75732 30.2689 6.76077 30.2689 12.922Z" stroke="#008C9D" stroke-width="1.7" stroke-linecap="round" stroke-linejoin="round"/>
<path d="M10.0273 26.6092C12.6738 24.9966 15.7958 24.0662 19.1245 24.0662" stroke="#008C9D" stroke-width="1.7" stroke-linecap="round" stroke-linejoin="round"/>
<path d="M27.8914 26.4232C25.3069 24.9345 22.309 24.0662 19.125 24.0662" stroke="#008C9D" stroke-width="1.7" stroke-linecap="round" stroke-linejoin="round"/>
<path d="M7.13281 46.6438H16.7675" stroke="#008C9D" stroke-width="1.7" stroke-linecap="round" stroke-linejoin="round"/>
<path d="M7.13281 41.082H16.7675" stroke="#008C9D" stroke-width="1.7" stroke-linecap="round" stroke-linejoin="round"/>
</svg>
