<svg width="63" height="61" viewBox="0 0 63 61" fill="none" xmlns="http://www.w3.org/2000/svg">
<path d="M18.7728 48.9218C22.5866 48.9218 25.6784 45.83 25.6784 42.0162C25.6784 38.2023 22.5866 35.1106 18.7728 35.1106C14.9589 35.1106 11.8672 38.2023 11.8672 42.0162C11.8672 45.83 14.9589 48.9218 18.7728 48.9218Z" stroke="#008C9D" stroke-width="1.7" stroke-linecap="round" stroke-linejoin="round"/>
<path d="M10.4204 50.3691L3.61816 57.1713" stroke="#008C9D" stroke-width="1.7" stroke-linecap="round" stroke-linejoin="round"/>
<path d="M43.2536 41.2098C49.4197 41.2098 54.4183 36.2112 54.4183 30.0451C54.4183 23.879 49.4197 18.8804 43.2536 18.8804C37.0875 18.8804 32.0889 23.879 32.0889 30.0451C32.0889 36.2112 37.0875 41.2098 43.2536 41.2098Z" stroke="#008C9D" stroke-width="1.7" stroke-linecap="round" stroke-linejoin="round"/>
<path d="M25.7002 58.7426C25.7002 49.0459 33.5568 41.1892 43.2536 41.1892" stroke="#008C9D" stroke-width="1.7" stroke-linecap="round" stroke-linejoin="round"/>
<path d="M60.8073 58.7426C60.8073 49.0459 52.9507 41.1892 43.2539 41.1892" stroke="#008C9D" stroke-width="1.7" stroke-linecap="round" stroke-linejoin="round"/>
<path fill-rule="evenodd" clip-rule="evenodd" d="M30.2689 13.422C30.2689 19.5833 25.2654 24.5868 19.1042 24.5868C12.9429 24.5868 7.93945 19.5833 7.93945 13.422C7.93945 7.26077 12.9429 2.25732 19.1042 2.25732C25.2654 2.25732 30.2689 7.26077 30.2689 13.422Z" stroke="#008C9D" stroke-width="1.7" stroke-linecap="round" stroke-linejoin="round"/>
<path d="M1.75781 39.535C3.01901 31.0787 10.2967 24.5867 19.1045 24.5867" stroke="#008C9D" stroke-width="1.7" stroke-linecap="round" stroke-linejoin="round"/>
<path d="M27.8914 26.9232C25.3069 25.4345 22.309 24.5662 19.125 24.5662" stroke="#008C9D" stroke-width="1.7" stroke-linecap="round" stroke-linejoin="round"/>
</svg>
