<svg width="23" height="20" viewBox="0 0 23 20" fill="none" xmlns="http://www.w3.org/2000/svg">
<path d="M21.4628 16.4246L18.216 13.1778C18.6182 11.7957 18.2818 10.2381 17.1922 9.1485C16.0003 7.95654 14.2598 7.65673 12.7827 8.24905L14.9838 10.4501C15.6054 11.0717 15.6054 12.0882 14.9838 12.7097C14.3622 13.3313 13.3458 13.3313 12.7242 12.7097L10.5231 10.5086C9.86497 12.1394 10.311 14.1065 11.8467 15.2838C12.8778 16.0735 14.2306 16.2783 15.4445 15.9346L18.6986 19.1887" stroke="#008C9D" stroke-linecap="round" stroke-linejoin="round"/>
<path d="M21.4628 16.4246V2.9109L14.5158 0.607422V4.66592L7.56152 2.36245V19.4008" stroke="#008C9D" stroke-linecap="round" stroke-linejoin="round"/>
<path d="M7.56172 6.4275L0.607422 4.12402V19.4001H18.9182" stroke="#008C9D" stroke-linecap="round" stroke-linejoin="round"/>
<path d="M2.73535 12.0879H5.48489" stroke="#008C9D" stroke-linecap="round" stroke-linejoin="round"/>
<path d="M2.73535 14.3984H5.48489" stroke="#008C9D" stroke-linecap="round" stroke-linejoin="round"/>
<path d="M2.73535 16.7168H5.48489" stroke="#008C9D" stroke-linecap="round" stroke-linejoin="round"/>
</svg>
