<svg width="100" height="61" viewBox="0 0 100 61" fill="none" xmlns="http://www.w3.org/2000/svg">
<path d="M49.8678 54.5925C63.1737 54.5925 73.9602 43.806 73.9602 30.5001C73.9602 17.1943 63.1737 6.40771 49.8678 6.40771C36.5619 6.40771 25.7754 17.1943 25.7754 30.5001C25.7754 43.806 36.5619 54.5925 49.8678 54.5925Z" stroke="#008C9D" stroke-width="1.7" stroke-linecap="round" stroke-linejoin="round"/>
<path d="M36.2376 25.7807C33.6304 28.256 33.4983 32.3484 35.9736 34.9556C38.4488 37.5629 42.5413 37.6949 45.1485 35.2197L49.868 30.7642L45.4125 26.0448C42.9373 23.4375 38.8449 23.3055 36.2376 25.7807Z" stroke="#008C9D" stroke-width="1.7" stroke-linecap="round" stroke-linejoin="round"/>
<path d="M63.5312 35.2197C66.1385 32.7444 66.2705 28.652 63.7953 26.0448C61.32 23.4375 57.2276 23.3055 54.6203 25.7807L49.9009 30.2362L54.3563 34.9556C56.8316 37.5629 60.924 37.6949 63.5312 35.2197Z" stroke="#008C9D" stroke-width="1.7" stroke-linecap="round" stroke-linejoin="round"/>
<path d="M49.8679 3.30518C69.9669 3.30518 87.5577 14.2623 96.9306 30.4999C87.5246 46.7375 69.9669 57.6946 49.8679 57.6946C29.7689 57.6946 12.2111 46.7375 2.80518 30.4999C12.2111 14.2623 29.7689 3.30518 49.8679 3.30518Z" stroke="#008C9D" stroke-width="1.7" stroke-linecap="round" stroke-linejoin="round"/>
</svg>
