<svg width="16" height="16" viewBox="0 0 16 16" fill="none" xmlns="http://www.w3.org/2000/svg">
<path d="M4.49991 1C4.3673 1 4.24012 1.05268 4.14635 1.14645C4.05259 1.24021 3.99991 1.36739 3.99991 1.5C3.99991 1.63261 4.05259 1.75979 4.14635 1.85355C4.24012 1.94732 4.3673 2 4.49991 2H13.2929L1.14641 14.1465C0.951198 14.3418 0.951198 14.6583 1.14641 14.8535C1.34166 15.0488 1.65821 15.0488 1.85346 14.8535L14 2.70705V11.5C14 11.6327 14.0526 11.7598 14.1464 11.8536C14.2402 11.9474 14.3673 12 14.5 12C14.6326 12 14.7597 11.9474 14.8535 11.8536C14.9473 11.7598 15 11.6327 15 11.5V1.50005C14.9999 1.36745 14.9473 1.24028 14.8535 1.14651C14.7597 1.05275 14.6326 1.00006 14.5 1.00005L4.49991 1Z" fill="black"/>
</svg>
