<svg width="26" height="20" viewBox="0 0 26 20" fill="none" xmlns="http://www.w3.org/2000/svg">
<path d="M14.5854 0.75H8.2186C6.78121 0.75 5.61719 1.91402 5.61719 3.35141V16.6495C5.61719 18.0869 6.78121 19.2509 8.2186 19.2509H17.0105C18.4479 19.2509 19.6119 18.0869 19.6119 16.6495V5.77646" stroke="white" stroke-linecap="round" stroke-linejoin="round"/>
<path d="M8.86328 8.69531H16.3589" stroke="white" stroke-linecap="round" stroke-linejoin="round"/>
<path d="M8.86328 11.9844H16.3589" stroke="white" stroke-linecap="round" stroke-linejoin="round"/>
<path d="M8.86328 15.2734H14.0661" stroke="white" stroke-linecap="round" stroke-linejoin="round"/>
<path d="M14.5859 0.75L19.6124 5.77646" stroke="white" stroke-linecap="round" stroke-linejoin="round"/>
<path d="M14.5859 0.75V5.77646H19.6124" stroke="white" stroke-linecap="round" stroke-linejoin="round"/>
<path d="M5.16799 10.8818H0.75" stroke="white" stroke-linecap="round" stroke-linejoin="round"/>
<path d="M5.61048 13.792H1.74805V16.799" stroke="white" stroke-linecap="round" stroke-linejoin="round"/>
<path d="M5.61048 7.98069H1.74805V4.97363" stroke="white" stroke-linecap="round" stroke-linejoin="round"/>
<path d="M1.74715 5.29117C1.92248 5.29117 2.06461 5.14904 2.06461 4.97371C2.06461 4.79838 1.92248 4.65625 1.74715 4.65625C1.57182 4.65625 1.42969 4.79838 1.42969 4.97371C1.42969 5.14904 1.57182 5.29117 1.74715 5.29117Z" stroke="white" stroke-linecap="round" stroke-linejoin="round"/>
<path d="M1.74715 17.1164C1.92248 17.1164 2.06461 16.9742 2.06461 16.7989C2.06461 16.6236 1.92248 16.4814 1.74715 16.4814C1.57182 16.4814 1.42969 16.6236 1.42969 16.7989C1.42969 16.9742 1.57182 17.1164 1.74715 17.1164Z" stroke="white" stroke-linecap="round" stroke-linejoin="round"/>
<path d="M20.0527 10.8818H24.4707" stroke="white" stroke-linecap="round" stroke-linejoin="round"/>
<path d="M19.6113 7.98069H23.4738V4.97363" stroke="white" stroke-linecap="round" stroke-linejoin="round"/>
<path d="M19.6113 13.792H23.4738V16.799" stroke="white" stroke-linecap="round" stroke-linejoin="round"/>
<path d="M23.4737 17.1164C23.649 17.1164 23.7912 16.9742 23.7912 16.7989C23.7912 16.6236 23.649 16.4814 23.4737 16.4814C23.2984 16.4814 23.1562 16.6236 23.1562 16.7989C23.1562 16.9742 23.2984 17.1164 23.4737 17.1164Z" stroke="white" stroke-linecap="round" stroke-linejoin="round"/>
<path d="M23.4737 5.29117C23.649 5.29117 23.7912 5.14904 23.7912 4.97371C23.7912 4.79838 23.649 4.65625 23.4737 4.65625C23.2984 4.65625 23.1562 4.79838 23.1562 4.97371C23.1562 5.14904 23.2984 5.29117 23.4737 5.29117Z" stroke="white" stroke-linecap="round" stroke-linejoin="round"/>
</svg>
