<svg width="21" height="20" viewBox="0 0 21 20" fill="none" xmlns="http://www.w3.org/2000/svg">
<g clip-path="url(#clip0_0_15169)">
<path d="M8.39602 5.29004H5.72708C4.08202 5.29004 2.74414 6.62792 2.74414 8.27297V16.7986H17.8909V9.30369" stroke="white" stroke-linecap="round" stroke-linejoin="round"/>
<path d="M0.580078 16.7988H20.0545V17.263C20.0545 18.4575 19.0852 19.4268 17.8907 19.4268H2.7439C1.54936 19.4268 0.580078 18.4575 0.580078 17.263V16.7988Z" stroke="white" stroke-linecap="round" stroke-linejoin="round"/>
<path d="M13.0167 7.25585H18.4911C19.3512 7.25585 20.0543 6.5596 20.0543 5.69271V2.14322C20.0543 1.28315 19.358 0.580078 18.4911 0.580078H12.0065C11.1464 0.580078 10.4434 1.27632 10.4434 2.14322V8.66881C10.4434 9.09885 10.9621 9.31728 11.2693 9.01011L13.0236 7.25585" stroke="white" stroke-linecap="round" stroke-linejoin="round"/>
<path d="M13.1271 4.05982C13.0824 4.05982 13.0469 4.0243 13.0469 3.97962C13.0469 3.93494 13.0824 3.89941 13.1271 3.89941C13.1718 3.89941 13.2073 3.93494 13.2073 3.97962C13.2073 4.0243 13.1718 4.05982 13.1271 4.05982Z" fill="white" stroke="white"/>
<path d="M15.4396 4.05982C15.3949 4.05982 15.3594 4.0243 15.3594 3.97962C15.3594 3.93494 15.3949 3.89941 15.4396 3.89941C15.4843 3.89941 15.5198 3.93494 15.5198 3.97962C15.5198 4.0243 15.4843 4.05982 15.4396 4.05982Z" fill="white" stroke="white"/>
<path d="M17.7618 4.05982C17.7172 4.05982 17.6816 4.0243 17.6816 3.97962C17.6816 3.93494 17.7172 3.89941 17.7618 3.89941C17.8065 3.89941 17.8421 3.93494 17.8421 3.97962C17.8421 4.0243 17.8065 4.05982 17.7618 4.05982Z" fill="white" stroke="white"/>
</g>
<defs>
<clipPath id="clip0_0_15169">
<rect width="20.6348" height="20" fill="white"/>
</clipPath>
</defs>
</svg>
