<svg width="221" height="221" viewBox="0 0 221 221" fill="none" xmlns="http://www.w3.org/2000/svg">
<path d="M95.1624 107.059C96.3165 107.059 97.8869 107.305 97.8869 108.932C97.8869 109.992 97.0733 110.786 95.6732 110.786C94.6705 110.786 93.7812 110.484 92.9866 110.162C92.5514 109.973 92.3622 110.048 92.2109 110.446L91.7946 111.581C91.6433 112.016 91.7379 112.224 92.173 112.451C93.119 112.943 94.3488 113.246 95.8435 113.246C98.3788 113.246 100.782 111.676 100.782 109.065C100.782 107.381 99.514 106.227 98.3031 105.886C99.4005 105.527 100.233 104.41 100.233 103.029C100.233 100.702 98.2653 99.5857 96.1652 99.5857C94.6705 99.5857 93.4596 99.9452 92.3244 100.626C92.0028 100.816 92.0028 101.061 92.1163 101.364L92.5325 102.462C92.665 102.783 92.8542 102.897 93.2893 102.67C94.2164 102.197 94.9543 101.989 95.73 101.989C96.7328 101.989 97.3382 102.537 97.3382 103.332C97.3382 104.41 96.6192 104.864 95.4084 104.864H94.7272C94.2732 104.864 94.1596 105.091 94.1596 105.489V106.435C94.1596 106.832 94.2732 107.059 94.7272 107.059H95.1624ZM111.78 103.408C111.78 100.948 110.002 99.5857 107.447 99.5857C105.877 99.5857 104.458 100.097 103.266 100.816C102.944 101.005 102.85 101.251 103.001 101.572L103.569 102.783C103.758 103.181 104.061 103.124 104.345 102.972C105.518 102.386 106.255 102.121 107.069 102.121C108.015 102.121 108.772 102.518 108.772 103.54C108.772 104.354 107.977 105.356 106.823 106.492C105.858 107.456 104.382 108.838 102.926 110.143C102.585 110.465 102.509 110.635 102.509 111.146V112.281C102.509 112.83 102.661 113 103.228 113H110.872C111.345 113 111.515 112.773 111.515 112.338V111.051C111.515 110.616 111.345 110.427 110.872 110.427H108.98C107.637 110.427 106.237 110.465 106.104 110.503L107.674 109.216C109.339 107.835 111.78 105.716 111.78 103.408ZM125.73 99.8506C125.73 99.6803 125.579 99.5857 125.333 99.5857H123.97C123.554 99.5857 123.384 99.6992 123.176 100.04L115.192 112.773C115.135 112.868 115.116 112.943 115.116 113C115.116 113.17 115.286 113.246 115.456 113.246H117.065C117.405 113.246 117.594 113.132 117.765 112.868L125.598 100.191C125.673 100.078 125.73 99.9452 125.73 99.8506ZM127.792 109.651C127.792 107.494 126.619 106.227 124.822 106.227C123.024 106.227 121.851 107.494 121.851 109.651C121.851 111.808 123.024 113.095 124.822 113.095C126.619 113.095 127.792 111.808 127.792 109.651ZM125.617 109.651C125.617 111.032 125.257 111.505 124.822 111.505C124.387 111.505 124.027 111.032 124.027 109.651C124.027 108.27 124.387 107.816 124.822 107.816C125.257 107.816 125.617 108.27 125.617 109.651ZM119.051 103.199C119.051 101.043 117.878 99.7749 116.081 99.7749C114.283 99.7749 113.11 101.043 113.11 103.199C113.11 105.356 114.283 106.643 116.081 106.643C117.878 106.643 119.051 105.356 119.051 103.199ZM116.875 103.199C116.875 104.581 116.516 105.054 116.081 105.054C115.646 105.054 115.286 104.581 115.286 103.199C115.286 101.818 115.646 101.364 116.081 101.364C116.516 101.364 116.875 101.818 116.875 103.199Z" fill="#0F1134"/>
<path d="M110.196 0C49.3254 0 0 49.3641 0 110.246C0 171.127 49.3551 220.491 110.225 220.491C171.096 220.491 220.451 171.127 220.451 110.246C220.451 49.3641 171.066 0 110.196 0ZM110.196 208.41C55.9733 208.41 12.0197 164.448 12.0197 110.216C12.0197 55.9836 55.9733 12.0219 110.196 12.0219C164.418 12.0219 208.372 55.9836 208.372 110.216C208.372 164.448 164.418 208.41 110.196 208.41Z" fill="#F0F0F0"/>
<path d="M110.195 12.0516C164.418 12.0516 208.371 56.0133 208.371 110.246C208.371 124.583 205.285 138.178 199.765 150.467C198.637 152.96 199.468 155.899 201.605 157.591C204.662 159.966 209.202 158.897 210.775 155.365C216.948 141.592 220.391 126.334 220.391 110.275C220.421 49.3641 171.066 0 110.195 0V12.0516Z" fill="#BCCF0D"/>
</svg>
