<svg width="221" height="221" viewBox="0 0 221 221" fill="none" xmlns="http://www.w3.org/2000/svg">
<path d="M91.6622 109.267C91.6622 112.181 92.7974 115.246 96.6003 115.246C99.5518 115.246 101.255 112.957 101.255 110.402C101.255 107.602 99.4951 106.335 97.0922 106.335C96.4111 106.335 95.5408 106.562 94.9732 106.883C95.1246 105.048 96.203 104.026 97.9436 104.026C98.4545 104.026 98.8707 104.102 99.3626 104.235C99.76 104.348 99.9492 104.253 100.025 103.875L100.309 102.551C100.384 102.153 100.309 102.021 99.9113 101.888C99.3248 101.699 98.6626 101.586 97.9058 101.586C93.4785 101.586 91.6622 105.105 91.6622 109.267ZM98.2464 110.592C98.2464 111.67 97.7166 112.786 96.6192 112.786C95.3516 112.786 94.7272 111.727 94.7272 109.74V109.494C95.1435 109.059 96.0327 108.756 96.676 108.756C97.7544 108.756 98.2464 109.551 98.2464 110.592ZM103.455 114.262C103.247 114.659 103.323 115 103.909 115H105.801C106.312 115 106.577 114.943 106.842 114.413L111.723 104.632C111.931 104.235 111.969 104.026 111.969 103.667V102.494C111.969 102.059 111.761 101.87 111.326 101.87H103.531C103.077 101.87 102.963 102.097 102.963 102.494V103.78C102.963 104.14 103.077 104.443 103.531 104.443H108.564L103.455 114.262ZM125.73 101.851C125.73 101.68 125.579 101.586 125.333 101.586H123.97C123.554 101.586 123.384 101.699 123.176 102.04L115.192 114.773C115.135 114.868 115.116 114.943 115.116 115C115.116 115.17 115.286 115.246 115.456 115.246H117.065C117.405 115.246 117.594 115.132 117.765 114.868L125.598 102.191C125.673 102.078 125.73 101.945 125.73 101.851ZM127.792 111.651C127.792 109.494 126.619 108.227 124.822 108.227C123.024 108.227 121.851 109.494 121.851 111.651C121.851 113.808 123.024 115.095 124.822 115.095C126.619 115.095 127.792 113.808 127.792 111.651ZM125.617 111.651C125.617 113.032 125.257 113.505 124.822 113.505C124.387 113.505 124.027 113.032 124.027 111.651C124.027 110.27 124.387 109.816 124.822 109.816C125.257 109.816 125.617 110.27 125.617 111.651ZM119.051 105.199C119.051 103.043 117.878 101.775 116.081 101.775C114.283 101.775 113.11 103.043 113.11 105.199C113.11 107.356 114.283 108.643 116.081 108.643C117.878 108.643 119.051 107.356 119.051 105.199ZM116.875 105.199C116.875 106.581 116.516 107.054 116.081 107.054C115.646 107.054 115.286 106.581 115.286 105.199C115.286 103.818 115.646 103.364 116.081 103.364C116.516 103.364 116.875 103.818 116.875 105.199Z" fill="#0F1134"/>
<path d="M110.225 0C49.3551 0 0 49.3641 0 110.246C0 171.127 49.3551 220.491 110.225 220.491C171.096 220.491 220.451 171.127 220.451 110.246C220.451 49.3641 171.096 0 110.225 0ZM110.225 208.41C56.0031 208.41 12.0494 164.448 12.0494 110.216C12.0494 55.9836 56.0031 12.0219 110.225 12.0219C164.448 12.0219 208.402 55.9836 208.402 110.216C208.402 164.448 164.448 208.41 110.225 208.41Z" fill="#F0F0F0"/>
<path d="M110.227 0V12.0516C166.735 12.0516 212.113 59.8128 208.136 117.192C204.812 165.428 165.904 204.551 117.706 208.143C90.7583 210.131 65.8877 201.226 47.0716 185.375C44.5193 183.238 40.7501 183.564 38.6133 186.117C36.4468 188.67 36.8029 192.499 39.3849 194.666C60.605 212.506 88.5917 222.48 118.953 220.135C172.938 215.979 216.416 172.107 220.156 118.082C224.608 53.6683 173.68 0 110.227 0Z" fill="#00BECE"/>
</svg>
