<svg width="25" height="25" viewBox="0 0 25 25" fill="none" xmlns="http://www.w3.org/2000/svg">
<path d="M20.9958 24.7147H15.2799C13.7959 24.7147 12.4831 23.9319 11.7655 22.6273C11.0561 21.3227 11.1132 19.7979 11.9205 18.5422L15.9567 12.3044C16.4377 11.5624 17.245 11.1221 18.1338 11.1221C19.0225 11.1221 19.8298 11.5624 20.3109 12.3044L24.3471 18.5422C25.1543 19.7897 25.2114 21.3145 24.502 22.6273C23.7926 23.9319 22.4798 24.7147 20.9876 24.7147H20.9958ZM18.1338 12.5164C17.7179 12.5164 17.351 12.7202 17.1227 13.0627L13.0865 19.3005C12.5565 20.1159 12.5239 21.1107 12.9805 21.9668C13.4371 22.823 14.3014 23.3285 15.2717 23.3285H20.9876C21.958 23.3285 22.8141 22.8148 23.2789 21.9668C23.7437 21.1188 23.7029 20.1159 23.1729 19.3005L19.1367 13.0627C18.9084 12.7121 18.5415 12.5164 18.1256 12.5164H18.1338Z" fill="white"/>
<path d="M18.1345 20.564C17.7513 20.564 17.4414 20.2541 17.4414 19.8709V15.6716C17.4414 15.2884 17.7513 14.9785 18.1345 14.9785C18.5177 14.9785 18.8276 15.2884 18.8276 15.6716V19.8709C18.8276 20.2541 18.5177 20.564 18.1345 20.564Z" fill="white"/>
<path d="M18.1345 22.2353C17.9551 22.2353 17.7757 22.1619 17.6453 22.0315C17.5148 21.9092 17.4414 21.7298 17.4414 21.5422C17.4414 21.4526 17.4577 21.3629 17.4985 21.2813C17.5311 21.1916 17.58 21.1182 17.6453 21.053C17.8409 20.8655 18.1426 20.8002 18.4036 20.9062C18.4851 20.9389 18.5585 20.9878 18.6237 21.053C18.689 21.1182 18.7379 21.1998 18.7787 21.2813C18.8113 21.3629 18.8276 21.4526 18.8276 21.5422C18.8276 21.6401 18.8113 21.7216 18.7787 21.8113C18.7379 21.8929 18.689 21.9744 18.6237 22.0315C18.5585 22.0967 18.4851 22.1538 18.4036 22.1864C18.3139 22.219 18.2242 22.2353 18.1345 22.2353Z" fill="white"/>
<path d="M9.60467 22.5215C9.51497 22.5215 9.42528 22.5052 9.34374 22.4645L7.74557 21.804C7.26448 22.1465 6.68555 22.334 6.07401 22.334C5.29938 22.334 4.58183 22.0323 4.03552 21.4941L3.23643 20.6951C2.69012 20.1487 2.39658 19.4312 2.39658 18.6566C2.39658 18.045 2.58412 17.4661 2.92658 16.985L2.42104 15.7538C1.05933 15.5255 0.015625 14.335 0.015625 12.908V11.7828C0.015625 10.3559 1.05933 9.16538 2.42104 8.93707L2.92658 7.72213C2.1275 6.59688 2.22534 5.02317 3.23643 4.01208L4.03552 3.213C5.04661 2.20191 6.62032 2.10406 7.74557 2.90315L8.97681 2.3976C9.20512 1.03589 10.3956 -0.0078125 11.8225 -0.0078125H12.9478C14.3747 -0.0078125 15.5652 1.03589 15.7935 2.3976L17.0084 2.90315C17.4895 2.56068 18.0685 2.37314 18.68 2.37314C19.4546 2.37314 20.1722 2.67484 20.7185 3.213L21.5176 4.01208C22.0639 4.5584 22.3574 5.27595 22.3574 6.05057C22.3574 6.66212 22.1699 7.24105 21.8274 7.72213L22.333 8.95337C23.6947 9.18168 24.7384 10.3722 24.7384 11.7991V12.9243C24.7384 13.3076 24.4285 13.6174 24.0453 13.6174C23.6621 13.6174 23.3522 13.3076 23.3522 12.9243V11.7991C23.3522 10.9756 22.6836 10.2988 21.8519 10.2988C21.5747 10.2988 21.3219 10.1275 21.2077 9.87477L20.376 7.8689C20.27 7.60797 20.3271 7.31443 20.5228 7.11058C20.8 6.83335 20.955 6.45011 20.955 6.05057C20.955 5.65103 20.8 5.27594 20.5146 4.99056L19.7156 4.19147C19.4383 3.91424 19.0551 3.75931 18.6555 3.75931C18.256 3.75931 17.8809 3.91424 17.5955 4.19962C17.3998 4.39532 17.0981 4.46055 16.8372 4.3464L14.8477 3.52285C14.5867 3.41685 14.4155 3.16407 14.4155 2.87868C14.4155 2.05514 13.7469 1.37836 12.9152 1.37836H11.7899C10.9664 1.37836 10.2896 2.04698 10.2896 2.87868C10.2896 3.15592 10.1184 3.40869 9.86559 3.52285L7.85972 4.35455C7.5988 4.46055 7.30525 4.40347 7.1014 4.20778C6.51432 3.62069 5.56846 3.62885 4.98138 4.20778L4.18229 5.00686C3.59521 5.59395 3.60336 6.53981 4.18229 7.12689C4.37799 7.32259 4.44322 7.62428 4.33722 7.88521L3.51367 9.87477C3.40767 10.1357 3.15489 10.2988 2.86951 10.2988C2.04596 10.2988 1.36918 10.9674 1.36918 11.7991V12.9243C1.36918 13.7479 2.0378 14.4247 2.86951 14.4247C3.14674 14.4247 3.39951 14.5959 3.51367 14.8487L4.34537 16.8545C4.45137 17.1155 4.39429 17.409 4.1986 17.6129C3.92137 17.8901 3.76644 18.2733 3.76644 18.6729C3.76644 19.0724 3.92137 19.4475 4.20675 19.7329L5.00584 20.532C5.28307 20.8092 5.66631 20.9641 6.06585 20.9641C6.4654 20.9641 6.84048 20.8092 7.12587 20.5238C7.32156 20.3281 7.62326 20.2629 7.88418 20.3771L9.87375 21.2006C10.2244 21.3474 10.3956 21.7551 10.2488 22.1057C10.1347 22.3748 9.8819 22.5378 9.60467 22.5378V22.5215Z" fill="white"/>
<path d="M11.1132 17.4009C11.048 17.4009 10.9827 17.3928 10.9175 17.3765C8.69964 16.7323 7.15039 14.6694 7.15039 12.3536C7.15039 9.47529 9.49057 7.12695 12.3771 7.12695C14.2199 7.12695 15.8914 8.06466 16.8454 9.63837C17.0411 9.96453 16.9433 10.3885 16.609 10.5924C16.2828 10.7881 15.8588 10.6902 15.655 10.3559C14.9537 9.19806 13.7225 8.50497 12.3689 8.50497C10.2489 8.50497 8.52841 10.2255 8.52841 12.3455C8.52841 14.0415 9.66996 15.5581 11.3007 16.0311C11.6677 16.1371 11.8797 16.5203 11.7737 16.8872C11.684 17.1889 11.4068 17.3846 11.1051 17.3846L11.1132 17.4009Z" fill="white"/>
</svg>
