<svg width="16" height="16" viewBox="0 0 16 16" fill="none" xmlns="http://www.w3.org/2000/svg">
<path d="M15 12V14C15 14.5515 14.5515 15 14 15H2C1.4485 15 1 14.5515 1 14V12C1 11.724 1.224 11.5 1.5 11.5C1.776 11.5 2 11.724 2 12V14H14V12C14 11.724 14.224 11.5 14.5 11.5C14.776 11.5 15 11.724 15 12Z" fill="white"/>
<path d="M4.14662 8.3535C3.95112 8.158 3.95112 7.842 4.14662 7.6465C4.34212 7.451 4.65812 7.451 4.85362 7.6465L7.50012 10.293V1.5C7.50012 1.224 7.72412 1 8.00012 1C8.27612 1 8.50012 1.224 8.50012 1.5V10.293L11.1466 7.6465C11.3421 7.451 11.6581 7.451 11.8536 7.6465C12.0491 7.842 12.0491 8.158 11.8536 8.3535L8.35363 11.8535C8.15563 12.052 7.83812 12.0455 7.64612 11.8535L4.14662 8.3535Z" fill="white"/>
</svg>
