<svg width="25" height="26" viewBox="0 0 25 26" fill="none" xmlns="http://www.w3.org/2000/svg">
<path d="M13.0772 25.5082C13.0772 25.5082 13.003 25.5082 12.97 25.5H11.9311C10.4881 25.5 9.2843 24.4446 9.05343 23.0676L7.82487 22.5564C7.33839 22.9027 6.75297 23.0923 6.13456 23.0923C5.35125 23.0923 4.62566 22.7873 4.07322 22.2431L3.26517 21.435C2.71273 20.8826 2.4159 20.157 2.40765 19.3737C2.40765 18.7553 2.5973 18.1699 2.9436 17.6834L2.43239 16.4383C1.05541 16.2075 0 15.0036 0 13.5607V12.4228C0 10.9799 1.05541 9.77606 2.43239 9.54519L2.9436 8.31662C2.5973 7.83015 2.40765 7.24472 2.40765 6.62632C2.40765 5.84301 2.71273 5.11741 3.25693 4.56497L4.06497 3.75693C5.0874 2.7345 6.67876 2.62731 7.81662 3.4436L9.06168 2.93239C9.29255 1.55541 10.4964 0.5 11.9393 0.5H13.0772C14.5201 0.5 15.7239 1.55541 15.9548 2.93239L17.1834 3.4436C17.6699 3.0973 18.2553 2.90765 18.8737 2.90765C19.657 2.90765 20.3826 3.21273 20.935 3.75693L21.7431 4.56497C22.2955 5.11741 22.5923 5.84301 22.5923 6.62632C22.5923 7.24472 22.4027 7.83015 22.0564 8.31662L22.7325 9.94921C22.8809 10.3038 22.7078 10.716 22.3532 10.8644C21.9987 11.0129 21.5864 10.8397 21.438 10.4852L20.597 8.45679C20.4898 8.19294 20.5475 7.89611 20.7454 7.68997C21.0257 7.40963 21.1824 7.0221 21.1824 6.61807C21.1824 6.21405 21.0257 5.83476 20.7371 5.54617L19.9291 4.73813C19.6487 4.45778 19.2612 4.30112 18.8572 4.30112C18.4532 4.30112 18.0739 4.45778 17.7853 4.74637C17.5874 4.94426 17.2823 5.01022 17.0185 4.89479L15.0066 4.06201C14.7427 3.95482 14.5778 3.69921 14.5778 3.41062C14.5778 2.57784 13.9017 1.89347 13.0607 1.89347H11.9228C11.09 1.89347 10.4057 2.56959 10.4057 3.41062C10.4057 3.69096 10.2325 3.94657 9.97691 4.06201L7.94855 4.90303C7.6847 5.01022 7.38786 4.95251 7.18173 4.75462C6.58806 4.1692 5.6316 4.1692 5.03793 4.75462L4.22988 5.56266C3.94954 5.85125 3.79288 6.23054 3.79288 6.63456C3.79288 7.03859 3.94954 7.41788 4.23813 7.70646C4.43602 7.90435 4.50198 8.20943 4.39479 8.47329L3.56201 10.4852C3.45482 10.749 3.19921 10.9139 2.91062 10.9139C2.07784 10.9139 1.39347 11.59 1.39347 12.4311V13.5689C1.39347 14.4017 2.06959 15.0861 2.91062 15.0861C3.19096 15.0861 3.44657 15.2592 3.56201 15.5148L4.40303 17.5432C4.51022 17.8071 4.45251 18.1039 4.25462 18.31C3.97427 18.5904 3.81761 18.9779 3.81761 19.3819C3.81761 19.786 3.97427 20.1652 4.26286 20.4538L5.07091 21.2619C5.3595 21.5422 5.73879 21.6989 6.14281 21.6989C6.54683 21.6989 6.92612 21.5422 7.21471 21.2536C7.4126 21.0557 7.71768 20.9898 7.98153 21.1052L9.9934 21.938C10.2573 22.0452 10.4222 22.3008 10.4222 22.5894C10.4222 23.4222 11.0983 24.1065 11.9393 24.1065H13.0772C13.0772 24.1065 13.1431 24.1065 13.1679 24.1065C13.5389 24.0818 13.8852 23.9334 14.1491 23.6613C14.4212 23.3892 14.8664 23.3892 15.1385 23.6613C15.4106 23.9334 15.4106 24.3786 15.1385 24.6507C14.5861 25.2032 13.8522 25.5082 13.0772 25.5082Z" fill="white"/>
<path d="M11.3122 19.6625C11.205 19.6625 11.0979 19.646 10.9907 19.6213C10.5042 19.4893 10.1496 19.0771 10.1002 18.5741L9.78684 15.5893L7.04112 15.2182C6.60412 15.1605 6.24957 14.8802 6.07641 14.4761C5.91151 14.0721 5.96922 13.6186 6.24132 13.2723L11.1968 6.83268C11.4936 6.45339 11.9884 6.28024 12.4501 6.39567C12.9201 6.51111 13.2746 6.89864 13.3571 7.37687L13.8188 10.1473L16.3502 10.5761C16.7707 10.642 17.1087 10.9224 17.2736 11.3182C17.4303 11.7057 17.3808 12.1509 17.1335 12.489L12.2934 19.176C12.0626 19.4976 11.6998 19.679 11.3122 19.679V19.6625ZM7.54409 13.8742L10.5207 14.2783C10.8422 14.3195 11.0896 14.5751 11.1226 14.8967L11.4442 17.9392L15.8225 11.8953L13.0932 11.4336C12.7964 11.3841 12.5655 11.1533 12.5161 10.8564L12.0378 8.02001L7.53585 13.866L7.54409 13.8742Z" fill="white"/>
<path d="M20.3663 21.7486C19.1378 21.7486 17.9834 21.2786 17.1094 20.4128C16.2271 19.5471 15.7407 18.3845 15.7324 17.1477C15.7324 15.9109 16.2024 14.74 17.0682 13.8578C17.9422 12.9755 19.0965 12.489 20.3333 12.4808L24.2664 12.4561C24.6539 12.4561 24.9673 12.7694 24.9673 13.1487L24.992 17.0817C24.992 18.3185 24.522 19.4894 23.6562 20.3716C22.7822 21.2539 21.6279 21.7404 20.3911 21.7486H20.3581H20.3663ZM23.582 13.8578L20.3498 13.8743C19.4841 13.8743 18.676 14.2206 18.0659 14.839C17.4557 15.4574 17.1259 16.2654 17.1341 17.1312C17.1424 17.997 17.4804 18.805 18.0988 19.4152C18.709 20.0171 19.5171 20.3469 20.3663 20.3469C20.3663 20.3469 20.3828 20.3469 20.3911 20.3469C21.2568 20.3469 22.0649 20.0006 22.675 19.3822C23.2852 18.7638 23.615 17.9557 23.6068 17.09L23.582 13.8578Z" fill="white"/>
<path d="M20.3666 25.0223C18.0744 25.0223 16.2109 23.1588 16.2109 20.8666C16.2109 18.5744 18.0744 16.7109 20.3666 16.7109C20.7541 16.7109 21.0675 17.0243 21.0675 17.4118C21.0675 17.7993 20.7541 18.1127 20.3666 18.1127C18.8495 18.1127 17.6127 19.3495 17.6127 20.8666C17.6127 22.3838 18.8495 23.6206 20.3666 23.6206C20.7541 23.6206 21.0675 23.9339 21.0675 24.3214C21.0675 24.709 20.7541 25.0223 20.3666 25.0223Z" fill="white"/>
</svg>
