<svg width="20" height="20" viewBox="0 0 20 20" fill="none" xmlns="http://www.w3.org/2000/svg">
<g clip-path="url(#clip0_0_15183)">
<path fill-rule="evenodd" clip-rule="evenodd" d="M16.9375 19.4379H12.9745C11.1618 19.4379 10.0635 17.4267 11.0559 15.905L13.8545 11.5848C14.3705 10.7842 15.5415 10.7842 16.0642 11.5848L18.8627 15.905C19.8485 17.4267 18.7569 19.4379 16.9441 19.4379H16.9375Z" stroke="white" stroke-linecap="round" stroke-linejoin="round"/>
<path d="M14.9531 13.6494V16.1238" stroke="white" stroke-linecap="round" stroke-linejoin="round"/>
<path d="M15.0106 17.6923L15.0106 17.6923C15.0191 17.7135 15.0209 17.7235 15.0212 17.7257C15.0209 17.7384 15.0143 17.7563 15.0022 17.7683C14.9913 17.7793 14.9754 17.7858 14.9631 17.787C14.9624 17.7869 14.9615 17.7867 14.9605 17.7865C14.9541 17.785 14.9447 17.7824 14.9311 17.7779C14.9258 17.7742 14.9188 17.7689 14.9093 17.7611C14.901 17.7495 14.8965 17.7353 14.8965 17.7249C14.8965 17.715 14.8972 17.7078 14.8979 17.7026C14.9023 17.695 14.906 17.6888 14.9093 17.6838C14.9122 17.6794 14.9143 17.6766 14.9155 17.6751C14.9167 17.6743 14.9192 17.6729 14.9233 17.6713C14.932 17.6679 14.9446 17.6651 14.9592 17.665C14.9852 17.6649 14.9982 17.6724 15.0016 17.6745C15.0018 17.6749 15.0022 17.6754 15.0025 17.676C15.005 17.6799 15.0079 17.6855 15.0106 17.6923Z" fill="#0F1134" stroke="white"/>
<path d="M13.582 3.26172V9.34177" stroke="white" stroke-linecap="round" stroke-linejoin="round"/>
<path d="M15.1573 19.4377H3.22211C1.75337 19.4377 0.5625 18.2468 0.5625 16.7781V3.26172" stroke="white" stroke-linecap="round" stroke-linejoin="round"/>
<path d="M4.5918 9.30859H10.5329" stroke="white" stroke-linecap="round" stroke-linejoin="round"/>
<path d="M3.01743 9.3708C2.98263 9.3708 2.95508 9.34326 2.95508 9.30845C2.95508 9.27364 2.98263 9.24609 3.01743 9.24609C3.05224 9.24609 3.07979 9.27364 3.07979 9.30845C3.07979 9.34326 3.05224 9.3708 3.01743 9.3708Z" fill="#0F1134" stroke="white"/>
<path d="M4.5918 12.7158H10.5329" stroke="white" stroke-linecap="round" stroke-linejoin="round"/>
<path d="M3.01743 12.778C2.98263 12.778 2.95508 12.7505 2.95508 12.7157C2.95508 12.6809 2.98263 12.6533 3.01743 12.6533C3.05224 12.6533 3.07979 12.6809 3.07979 12.7157C3.07979 12.7505 3.05224 12.778 3.01743 12.778Z" fill="#0F1134" stroke="white"/>
<path d="M4.5918 16.123H8.21072" stroke="white" stroke-linecap="round" stroke-linejoin="round"/>
<path d="M3.01743 16.1853C2.98263 16.1853 2.95508 16.1577 2.95508 16.1229C2.95508 16.0881 2.98263 16.0605 3.01743 16.0605C3.05224 16.0605 3.07979 16.0881 3.07979 16.1229C3.07979 16.1577 3.05224 16.1853 3.01743 16.1853Z" fill="#0F1134" stroke="white"/>
<path d="M8.97798 1.3498C9.46756 0.860217 10.1424 0.5625 10.8834 0.5625C12.372 0.5625 13.5827 1.7666 13.5827 3.26181C13.5827 4.75701 12.372 5.96111 10.8834 5.96111C10.1358 5.96111 9.46756 5.65678 8.97798 5.17381L5.1672 1.3498C4.67762 0.860217 4.00279 0.5625 3.26181 0.5625C1.77322 0.5625 0.5625 1.7666 0.5625 3.26181" stroke="white" stroke-linecap="round" stroke-linejoin="round"/>
</g>
<defs>
<clipPath id="clip0_0_15183">
<rect width="19.7883" height="20" fill="white"/>
</clipPath>
</defs>
</svg>
