<svg width="22" height="18" viewBox="0 0 22 18" fill="none" xmlns="http://www.w3.org/2000/svg">
<path d="M11 17.4375C10.5093 17.4379 10.0288 17.2973 9.61578 17.0325C8.44391 16.2792 6.19016 14.7333 4.28375 12.8456C1.94422 10.5272 0.757812 8.34372 0.757812 6.35435C0.757812 4.972 1.16656 3.70544 1.94 2.692C2.67344 1.72837 3.7095 1.03925 4.88173 0.735326C6.05397 0.431406 7.29435 0.530336 8.40359 1.01622C9.39641 1.44466 10.2819 2.167 11 3.1256C11.7181 2.16466 12.6036 1.44232 13.5964 1.01622C14.7057 0.530336 15.946 0.431406 17.1183 0.735326C18.2905 1.03925 19.3266 1.72837 20.06 2.692C20.8334 3.70544 21.2422 4.972 21.2422 6.35435C21.2422 8.34372 20.0558 10.5262 17.7162 12.8437C15.8098 14.7314 13.557 16.2773 12.3842 17.0306C11.9714 17.2961 11.4909 17.4373 11 17.4375ZM6.22625 1.73716C5.8555 1.73683 5.48634 1.78569 5.12844 1.88247C4.23014 2.12909 3.43737 2.6632 2.87141 3.4031C2.25547 4.21029 1.92969 5.23122 1.92969 6.35622C1.92969 8.02122 2.99891 9.92435 5.10828 12.0131C6.93641 13.8253 9.11469 15.3178 10.2491 16.0443C10.473 16.1874 10.7333 16.2635 10.9991 16.2635C11.2648 16.2635 11.5251 16.1874 11.7491 16.0443C12.8834 15.3159 15.0598 13.8234 16.8898 12.0131C18.9992 9.92435 20.0684 8.02122 20.0684 6.35622C20.0684 5.23122 19.7427 4.21216 19.1267 3.4031C18.5608 2.6632 17.768 2.12909 16.8697 1.88247C15.268 1.44747 13.0175 1.90216 11.5034 4.4831C11.4518 4.5713 11.378 4.64445 11.2894 4.69529C11.2007 4.74613 11.1003 4.77288 10.9981 4.77288C10.8959 4.77288 10.7955 4.74613 10.7069 4.69529C10.6182 4.64445 10.5444 4.5713 10.4928 4.4831C9.30312 2.45154 7.655 1.73716 6.22625 1.73716Z" fill="#DE595D"/>
</svg>
