<svg width="24" height="25" viewBox="0 0 24 25" fill="none" xmlns="http://www.w3.org/2000/svg">
<g clip-path="url(#clip0_121_3962)">
<path d="M18.1604 20.3754C16.8972 20.3754 15.877 19.3471 15.877 18.092C15.877 16.8369 16.9053 15.8086 18.1604 15.8086C19.4154 15.8086 20.4438 16.8369 20.4438 18.092C20.4438 19.3471 19.4154 20.3754 18.1604 20.3754ZM18.1604 17.177C17.6583 17.177 17.2535 17.5819 17.2535 18.0839C17.2535 18.5859 17.6583 18.9908 18.1604 18.9908C18.6624 18.9908 19.0672 18.5859 19.0672 18.0839C19.0672 17.5819 18.6624 17.177 18.1604 17.177Z" fill="white"/>
<path d="M18.1608 24.3417C17.9341 24.3417 17.7074 24.3255 17.4887 24.3012C16.7681 24.2203 16.2175 23.6049 16.2175 22.868V22.5037C15.8936 22.3579 15.5859 22.1879 15.3025 21.9774L14.9948 22.1555C14.3551 22.5199 13.5454 22.3579 13.1163 21.7668C12.8571 21.4106 12.6304 21.0219 12.4523 20.6251C12.1527 19.9531 12.4118 19.1676 13.0515 18.7952L13.3511 18.6251C13.3268 18.447 13.3187 18.2608 13.3187 18.0907C13.3187 17.9207 13.3268 17.7344 13.3511 17.5563L13.0515 17.3863C12.4118 17.0138 12.1527 16.2284 12.4523 15.5563C12.6304 15.1595 12.8571 14.7709 13.1163 14.4146C13.5535 13.8235 14.3632 13.6535 14.9948 14.0259L15.3025 14.2041C15.5859 13.9935 15.8936 13.8235 16.2175 13.6778V13.3134C16.2175 12.5765 16.7681 11.9612 17.4887 11.8802C17.926 11.8316 18.3875 11.8316 18.8329 11.8802C19.5616 11.9612 20.1041 12.5765 20.1041 13.3134V13.6778C20.428 13.8235 20.7357 13.9935 21.0191 14.2041L21.3268 14.0259C21.9665 13.6616 22.7762 13.8235 23.2053 14.4146C23.4644 14.7709 23.6912 15.1514 23.8693 15.5563C24.1689 16.2284 23.9098 17.0138 23.2701 17.3863L22.9705 17.5563C22.9948 17.7344 23.0029 17.9126 23.0029 18.0907C23.0029 18.2689 22.9948 18.447 22.9705 18.6251L23.2701 18.7952C23.9098 19.1676 24.1689 19.9531 23.8693 20.6251C23.6912 21.0219 23.4644 21.4106 23.2053 21.7668C22.7681 22.3579 21.9665 22.528 21.3268 22.1555L21.0191 21.9774C20.7357 22.1879 20.428 22.3579 20.1041 22.5037V22.868C20.1041 23.6049 19.5535 24.2203 18.8329 24.3012C18.6142 24.3255 18.3875 24.3417 18.1608 24.3417ZM15.3673 20.4632C15.5373 20.4632 15.6993 20.528 15.8288 20.6413C16.1932 20.9733 16.6223 21.2243 17.1163 21.3782C17.3997 21.4672 17.594 21.7344 17.594 22.034V22.8761C17.594 22.8761 17.6183 22.9409 17.6426 22.9409C17.9827 22.9814 18.3389 22.9814 18.6709 22.9409C18.7033 22.9409 18.7195 22.9085 18.7195 22.8761V22.034C18.7195 21.7344 18.9138 21.4672 19.1972 21.3782C19.6831 21.2243 20.1122 20.9733 20.4847 20.6413C20.7033 20.4389 21.0353 20.4065 21.2944 20.5523L22.015 20.9652C22.015 20.9652 22.0798 20.9733 22.096 20.9571C22.2984 20.6818 22.4766 20.3822 22.6142 20.0664C22.6223 20.0421 22.6142 20.0016 22.5818 19.9855L21.8693 19.5725C21.6102 19.4186 21.4806 19.1191 21.5373 18.8276C21.594 18.5684 21.6264 18.3255 21.6264 18.0826C21.6264 17.8397 21.6021 17.5968 21.5373 17.3377C21.4725 17.0462 21.6021 16.7466 21.8693 16.5927L22.5818 16.1798C22.5818 16.1798 22.6223 16.1231 22.6142 16.0988C22.4766 15.7911 22.2984 15.4915 22.096 15.2081C22.0798 15.1838 22.0393 15.1838 22.015 15.2L21.2944 15.613C21.0353 15.7587 20.7033 15.7263 20.4847 15.5239C20.1203 15.1919 19.6912 14.9409 19.2053 14.7871C18.9219 14.698 18.7276 14.4308 18.7276 14.1312V13.2891C18.7276 13.2891 18.7033 13.2243 18.679 13.2243C18.3389 13.1838 17.9827 13.1838 17.6507 13.2243C17.6264 13.2243 17.6021 13.2567 17.6021 13.2891V14.1312C17.6021 14.4308 17.4078 14.698 17.1244 14.7871C16.6385 14.9409 16.2094 15.1919 15.845 15.5239C15.6264 15.7263 15.2944 15.7587 15.0353 15.613L14.3146 15.2C14.3146 15.2 14.2499 15.1838 14.2337 15.2081C14.0312 15.4834 13.8531 15.783 13.7154 16.0988C13.7073 16.1231 13.7154 16.1636 13.7478 16.1798L14.4604 16.5927C14.7195 16.7466 14.8491 17.0462 14.7924 17.3377C14.7357 17.6049 14.7033 17.8478 14.7033 18.0826C14.7033 18.3174 14.7276 18.5684 14.7924 18.8276C14.8571 19.1191 14.7276 19.4186 14.4604 19.5725L13.7478 19.9855C13.7478 19.9855 13.7073 20.0421 13.7154 20.0664C13.8531 20.3741 14.0312 20.6737 14.2337 20.9571C14.2499 20.9814 14.2903 20.9814 14.3146 20.9652L15.0353 20.5523C15.1405 20.4875 15.262 20.4632 15.3835 20.4632H15.3673Z" fill="white"/>
<path d="M18.1609 9.96575C17.7803 9.96575 17.4727 9.65805 17.4727 9.27749V6.9617C17.4727 6.58113 17.7803 6.27344 18.1609 6.27344C18.5415 6.27344 18.8492 6.58113 18.8492 6.9617V9.27749C18.8492 9.65805 18.5415 9.96575 18.1609 9.96575Z" fill="white"/>
<path d="M12.4368 24.5587L3.94286 24.4696C1.78092 24.4696 0.0157355 22.7045 0.0157355 20.5344V3.93522C-0.000458787 1.76518 1.76472 0 3.93476 0H11.8862C12.2667 0 12.5744 0.307692 12.5744 0.688259C12.5744 1.06883 12.2667 1.37652 11.8862 1.37652H3.93476C2.52586 1.37652 1.37606 2.52632 1.37606 3.93522V20.5344C1.37606 21.9433 2.52586 23.0931 3.93476 23.0931L12.4368 23.1822C12.8174 23.1822 13.125 23.498 13.117 23.8785C13.117 24.2591 12.8093 24.5587 12.4287 24.5587H12.4368Z" fill="white"/>
<path d="M18.1608 7.6537C17.9826 7.6537 17.8045 7.58893 17.6749 7.45128L11.3996 1.17597C11.1324 0.908765 11.1324 0.471518 11.3996 0.204311C11.6668 -0.0628954 12.1041 -0.0628954 12.3713 0.204311L18.6466 6.47962C18.9138 6.74682 18.9138 7.18407 18.6466 7.45128C18.5089 7.58893 18.3389 7.6537 18.1608 7.6537Z" fill="white"/>
<path d="M18.1608 7.65182H11.8855C11.505 7.65182 11.1973 7.34413 11.1973 6.96356V0.688259C11.1973 0.307692 11.505 0 11.8855 0C12.2661 0 12.5738 0.307692 12.5738 0.688259V6.2753H18.1608C18.5414 6.2753 18.8491 6.583 18.8491 6.96356C18.8491 7.34413 18.5414 7.65182 18.1608 7.65182Z" fill="white"/>
<path d="M8.72104 8.53277H4.12185C3.74129 8.53277 3.43359 8.22508 3.43359 7.84451C3.43359 7.46394 3.74129 7.15625 4.12185 7.15625H8.72104C9.10161 7.15625 9.4093 7.46394 9.4093 7.84451C9.4093 8.22508 9.10161 8.53277 8.72104 8.53277Z" fill="white"/>
<path d="M12.4765 11.0367H4.11209C3.73152 11.0367 3.42383 10.729 3.42383 10.3484C3.42383 9.96785 3.73152 9.66016 4.11209 9.66016H12.4765C12.857 9.66016 13.1647 9.96785 13.1647 10.3484C13.1647 10.729 12.857 11.0367 12.4765 11.0367Z" fill="white"/>
<path d="M12.4765 13.5367H4.11209C3.73152 13.5367 3.42383 13.229 3.42383 12.8484C3.42383 12.4678 3.73152 12.1602 4.11209 12.1602H12.4765C12.857 12.1602 13.1647 12.4678 13.1647 12.8484C13.1647 13.229 12.857 13.5367 12.4765 13.5367Z" fill="white"/>
<path d="M5.43344 21.9029C5.2553 21.9029 5.09336 21.8462 4.9719 21.7571C4.64801 21.5385 4.52656 21.0689 4.51036 20.5183C4.20267 20.7288 3.78162 20.664 3.56299 20.3644C3.33627 20.0567 3.40105 19.6276 3.70874 19.4008C4.08931 19.1255 4.46178 18.8178 4.79376 18.5344C4.89903 18.1458 5.01239 17.8219 5.10146 17.6276C5.57919 16.6073 6.19457 16.6073 6.52656 16.7045C6.87474 16.8017 7.12575 17.0608 7.18243 17.4008C7.22291 17.6357 7.31198 18.1215 6.01644 19.3037C5.98405 19.4494 5.95976 19.6033 5.93546 19.749C6.54275 19.0851 7.08526 18.5668 7.92737 18.5911C8.6885 18.5911 10.81 18.3806 10.8342 18.3725C11.2148 18.332 11.5468 18.6073 11.5873 18.9879C11.6278 19.3685 11.3525 19.7004 10.9719 19.7409C10.8828 19.749 8.80996 19.9595 7.95166 19.9595C7.93546 19.9595 7.91927 19.9595 7.90308 19.9595C7.59538 19.9595 7.30388 20.2672 6.72089 20.915C6.55085 21.1012 6.36461 21.3118 6.15409 21.5304C5.90308 21.7895 5.65206 21.8867 5.41725 21.8867L5.43344 21.9029Z" fill="white"/>
</g>
<defs>
<clipPath id="clip0_121_3962">
<rect width="24" height="24.5587" fill="white"/>
</clipPath>
</defs>
</svg>
