<svg width="24" height="25" viewBox="0 0 24 25" fill="none" xmlns="http://www.w3.org/2000/svg">
<path d="M18.1604 20.3725C16.8972 20.3725 15.877 19.3441 15.877 18.0891C15.877 16.834 16.9053 15.8057 18.1604 15.8057C19.4154 15.8057 20.4438 16.834 20.4438 18.0891C20.4438 19.3441 19.4154 20.3725 18.1604 20.3725ZM18.1604 17.1741C17.6583 17.1741 17.2535 17.5789 17.2535 18.081C17.2535 18.583 17.6583 18.9879 18.1604 18.9879C18.6624 18.9879 19.0672 18.583 19.0672 18.081C19.0672 17.5789 18.6624 17.1741 18.1604 17.1741Z" fill="white"/>
<path d="M18.1608 24.3398C17.9341 24.3398 17.7073 24.3236 17.4887 24.2993C16.7681 24.2183 16.2175 23.6029 16.2175 22.8661V22.5017C15.8936 22.356 15.5859 22.1859 15.3025 21.9754L14.9948 22.1535C14.3551 22.5179 13.5454 22.356 13.1163 21.7649C12.8571 21.4086 12.6304 21.0199 12.4523 20.6232C12.1527 19.9511 12.4118 19.1657 13.0515 18.7932L13.3511 18.6232C13.3268 18.445 13.3187 18.2588 13.3187 18.0888C13.3187 17.9187 13.3268 17.7325 13.3511 17.5543L13.0515 17.3843C12.4118 17.0118 12.1527 16.2264 12.4523 15.5543C12.6304 15.1576 12.8571 14.7689 13.1163 14.4126C13.5535 13.8216 14.3632 13.6515 14.9948 14.024L15.3025 14.2021C15.5859 13.9916 15.8936 13.8216 16.2175 13.6758V13.3114C16.2175 12.5746 16.7681 11.9592 17.4887 11.8782C17.926 11.8297 18.3875 11.8297 18.8329 11.8782C19.5616 11.9592 20.1041 12.5746 20.1041 13.3114V13.6758C20.428 13.8216 20.7357 13.9916 21.0191 14.2021L21.3268 14.024C21.9665 13.6596 22.7762 13.8216 23.2053 14.4126C23.4644 14.7689 23.6912 15.1495 23.8693 15.5543C24.1689 16.2264 23.9098 17.0118 23.2701 17.3843L22.9705 17.5543C22.9948 17.7325 23.0029 17.9106 23.0029 18.0888C23.0029 18.2669 22.9948 18.445 22.9705 18.6232L23.2701 18.7932C23.9098 19.1657 24.1689 19.9511 23.8693 20.6232C23.6912 21.0199 23.4644 21.4086 23.2053 21.7649C22.7681 22.356 21.9665 22.526 21.3268 22.1535L21.0191 21.9754C20.7357 22.1859 20.428 22.356 20.1041 22.5017V22.8661C20.1041 23.6029 19.5535 24.2183 18.8329 24.2993C18.6142 24.3236 18.3875 24.3398 18.1608 24.3398ZM15.3673 20.4612C15.5373 20.4612 15.6993 20.526 15.8288 20.6394C16.1932 20.9714 16.6223 21.2224 17.1163 21.3762C17.3997 21.4653 17.594 21.7325 17.594 22.0321V22.8742C17.594 22.8742 17.6183 22.939 17.6426 22.939C17.9827 22.9794 18.3389 22.9794 18.6709 22.939C18.7033 22.939 18.7195 22.9066 18.7195 22.8742V22.0321C18.7195 21.7325 18.9138 21.4653 19.1972 21.3762C19.6831 21.2224 20.1122 20.9714 20.4847 20.6394C20.7033 20.4369 21.0353 20.4045 21.2944 20.5503L22.015 20.9633C22.015 20.9633 22.0798 20.9714 22.096 20.9552C22.2984 20.6799 22.4766 20.3803 22.6142 20.0645C22.6223 20.0402 22.6142 19.9997 22.5818 19.9835L21.8693 19.5705C21.6102 19.4167 21.4806 19.1171 21.5373 18.8256C21.594 18.5665 21.6264 18.3236 21.6264 18.0807C21.6264 17.8377 21.6021 17.5948 21.5373 17.3357C21.4725 17.0442 21.6021 16.7446 21.8693 16.5908L22.5818 16.1778C22.5818 16.1778 22.6223 16.1211 22.6142 16.0969C22.4766 15.7892 22.2984 15.4896 22.096 15.2062C22.0798 15.1819 22.0393 15.1819 22.015 15.1981L21.2944 15.611C21.0353 15.7568 20.7033 15.7244 20.4847 15.522C20.1203 15.19 19.6912 14.939 19.2053 14.7851C18.9219 14.696 18.7276 14.4288 18.7276 14.1292V13.2871C18.7276 13.2871 18.7033 13.2224 18.679 13.2224C18.3389 13.1819 17.9827 13.1819 17.6507 13.2224C17.6264 13.2224 17.6021 13.2548 17.6021 13.2871V14.1292C17.6021 14.4288 17.4078 14.696 17.1244 14.7851C16.6385 14.939 16.2094 15.19 15.845 15.522C15.6264 15.7244 15.2944 15.7568 15.0353 15.611L14.3146 15.1981C14.3146 15.1981 14.2499 15.1819 14.2337 15.2062C14.0312 15.4815 13.8531 15.7811 13.7154 16.0969C13.7073 16.1211 13.7154 16.1616 13.7478 16.1778L14.4604 16.5908C14.7195 16.7446 14.8491 17.0442 14.7924 17.3357C14.7357 17.6029 14.7033 17.8458 14.7033 18.0807C14.7033 18.3155 14.7276 18.5665 14.7924 18.8256C14.8571 19.1171 14.7276 19.4167 14.4604 19.5705L13.7478 19.9835C13.7478 19.9835 13.7073 20.0402 13.7154 20.0645C13.8531 20.3722 14.0312 20.6718 14.2337 20.9552C14.2499 20.9794 14.2903 20.9794 14.3146 20.9633L15.0353 20.5503C15.1405 20.4855 15.262 20.4612 15.3835 20.4612H15.3673Z" fill="white"/>
<path d="M18.1609 9.9677C17.7803 9.9677 17.4727 9.66001 17.4727 9.27944V6.96365C17.4727 6.58308 17.7803 6.27539 18.1609 6.27539C18.5415 6.27539 18.8492 6.58308 18.8492 6.96365V9.27944C18.8492 9.66001 18.5415 9.9677 18.1609 9.9677Z" fill="white"/>
<path d="M12.4368 24.5587L3.94286 24.4696C1.78092 24.4696 0.0157355 22.7045 0.0157355 20.5344V3.93522C-0.000458787 1.76518 1.76472 0 3.93476 0H11.8862C12.2667 0 12.5744 0.307692 12.5744 0.688259C12.5744 1.06883 12.2667 1.37652 11.8862 1.37652H3.93476C2.52586 1.37652 1.37606 2.52632 1.37606 3.93522V20.5344C1.37606 21.9433 2.52586 23.0931 3.93476 23.0931L12.4368 23.1822C12.8174 23.1822 13.125 23.498 13.117 23.8785C13.117 24.2591 12.8093 24.5587 12.4287 24.5587H12.4368Z" fill="white"/>
<path d="M18.1608 7.65175C17.9826 7.65175 17.8045 7.58697 17.6749 7.44932L11.3996 1.17402C11.1324 0.906812 11.1324 0.469564 11.3996 0.202358C11.6668 -0.0648485 12.1041 -0.0648485 12.3713 0.202358L18.6466 6.47766C18.9138 6.74487 18.9138 7.18212 18.6466 7.44932C18.5089 7.58697 18.3389 7.65175 18.1608 7.65175Z" fill="white"/>
<path d="M18.1608 7.65182H11.8855C11.505 7.65182 11.1973 7.34413 11.1973 6.96356V0.688259C11.1973 0.307692 11.505 0 11.8855 0C12.2661 0 12.5738 0.307692 12.5738 0.688259V6.2753H18.1608C18.5414 6.2753 18.8491 6.583 18.8491 6.96356C18.8491 7.34413 18.5414 7.65182 18.1608 7.65182Z" fill="white"/>
<path d="M8.72104 8.53472H4.12185C3.74129 8.53472 3.43359 8.22703 3.43359 7.84646C3.43359 7.46589 3.74129 7.1582 4.12185 7.1582H8.72104C9.10161 7.1582 9.4093 7.46589 9.4093 7.84646C9.4093 8.22703 9.10161 8.53472 8.72104 8.53472Z" fill="white"/>
<path d="M12.4765 11.0367H4.11209C3.73152 11.0367 3.42383 10.729 3.42383 10.3484C3.42383 9.96785 3.73152 9.66016 4.11209 9.66016H12.4765C12.857 9.66016 13.1647 9.96785 13.1647 10.3484C13.1647 10.729 12.857 11.0367 12.4765 11.0367Z" fill="white"/>
<path d="M12.4765 13.5386H4.11209C3.73152 13.5386 3.42383 13.2309 3.42383 12.8504C3.42383 12.4698 3.73152 12.1621 4.11209 12.1621H12.4765C12.857 12.1621 13.1647 12.4698 13.1647 12.8504C13.1647 13.2309 12.857 13.5386 12.4765 13.5386Z" fill="white"/>
<path d="M5.43344 21.9029C5.2553 21.9029 5.09336 21.8462 4.9719 21.7571C4.64801 21.5385 4.52656 21.0689 4.51036 20.5183C4.20267 20.7288 3.78162 20.664 3.56299 20.3644C3.33627 20.0567 3.40105 19.6276 3.70874 19.4008C4.08931 19.1255 4.46178 18.8178 4.79376 18.5344C4.89903 18.1458 5.01239 17.8219 5.10146 17.6276C5.57919 16.6073 6.19457 16.6073 6.52656 16.7045C6.87474 16.8017 7.12575 17.0608 7.18243 17.4008C7.22291 17.6357 7.31198 18.1215 6.01644 19.3037C5.98405 19.4494 5.95976 19.6033 5.93546 19.749C6.54275 19.0851 7.08526 18.5668 7.92737 18.5911C8.6885 18.5911 10.81 18.3806 10.8342 18.3725C11.2148 18.332 11.5468 18.6073 11.5873 18.9879C11.6278 19.3685 11.3525 19.7004 10.9719 19.7409C10.8828 19.749 8.80996 19.9595 7.95166 19.9595C7.93546 19.9595 7.91927 19.9595 7.90308 19.9595C7.59538 19.9595 7.30388 20.2672 6.72089 20.915C6.55085 21.1012 6.36461 21.3118 6.15409 21.5304C5.90308 21.7895 5.65206 21.8867 5.41725 21.8867L5.43344 21.9029Z" fill="white"/>
</svg>
