<svg width="24" height="24" viewBox="0 0 24 24" fill="none" xmlns="http://www.w3.org/2000/svg">
<path d="M17.6373 7.91969H15.5903C15.1763 7.91969 14.8403 8.25519 14.8403 8.66969C14.8403 9.08419 15.1763 9.41969 15.5903 9.41969H17.6378C18.0513 9.41969 18.3878 9.75619 18.3878 10.1697V19.9777C18.3878 20.3912 18.0513 20.7277 17.6378 20.7277H6.36328C5.94978 20.7277 5.61328 20.3912 5.61328 19.9777V10.1697C5.61328 9.75619 5.94978 9.41969 6.36328 9.41969H8.41078C8.82528 9.41969 9.16078 9.08419 9.16078 8.66969C9.16078 8.25519 8.82528 7.91969 8.41078 7.91969H6.36328C5.12278 7.91969 4.11328 8.92919 4.11328 10.1697V19.9777C4.11328 21.2182 5.12278 22.2277 6.36328 22.2277H17.6378C18.8783 22.2277 19.8878 21.2182 19.8878 19.9777V10.1697C19.8873 8.92869 18.8783 7.91969 17.6373 7.91969ZM9.20378 6.40569L11.2753 4.33419V14.2082C11.2753 14.6222 11.6108 14.9582 12.0253 14.9582C12.4398 14.9582 12.7753 14.6222 12.7753 14.2082V4.33419L14.8468 6.40569C14.9933 6.55219 15.1853 6.62519 15.3773 6.62519C15.5693 6.62519 15.7613 6.55219 15.9078 6.40569C16.2008 6.11319 16.2008 5.63769 15.9078 5.34519L12.5563 1.99319C12.2628 1.70019 11.7883 1.70019 11.4953 1.99319L8.14328 5.34519C7.85028 5.63769 7.85028 6.11319 8.14328 6.40569C8.43628 6.69869 8.91078 6.69869 9.20378 6.40569Z" fill="#747474"/>
</svg>
