<svg width="25" height="25" viewBox="0 0 25 25" fill="none" xmlns="http://www.w3.org/2000/svg">
<path d="M13.066 24.9913H11.9248C10.4775 24.9913 9.2784 23.941 9.04685 22.5599L7.8229 22.0554C7.33497 22.4028 6.74781 22.593 6.13583 22.593C5.35846 22.593 4.62243 22.287 4.07662 21.7412L3.26617 20.939C2.72035 20.3932 2.41436 19.6572 2.41436 18.8798C2.41436 18.2678 2.60457 17.6807 2.95191 17.1927L2.43917 15.9522C1.05809 15.7207 0.0078125 14.5215 0.0078125 13.0743V11.9331C0.0078125 10.4858 1.05809 9.28667 2.43917 9.05512L2.94364 7.83117C2.13318 6.68992 2.24069 5.10209 3.2579 4.07662L4.06008 3.26617C4.60589 2.71208 5.34192 2.41436 6.11929 2.41436C6.73127 2.41436 7.31843 2.60457 7.80636 2.95191L9.04685 2.43917C9.2784 1.05809 10.4775 0.0078125 11.9248 0.0078125H13.066C14.505 0.0078125 15.7124 1.05809 15.944 2.43917L17.1679 2.94364C17.6558 2.5963 18.243 2.40609 18.855 2.40609C19.6324 2.40609 20.3684 2.71208 20.9142 3.2579L21.7247 4.06008C22.2787 4.60589 22.5765 5.34192 22.5765 6.11929C22.5765 6.73127 22.3862 7.31843 22.0389 7.80636L22.5516 9.04685C23.9327 9.2784 24.983 10.4775 24.983 11.9248V13.066C24.983 13.4547 24.6687 13.769 24.2801 13.769C23.8914 13.769 23.5771 13.4547 23.5771 13.066V11.9248C23.5771 11.0895 22.899 10.4114 22.0637 10.4114C21.7825 10.4114 21.5262 10.2377 21.4104 9.98135L20.5669 7.95522C20.4594 7.69058 20.5172 7.39286 20.7157 7.18611C20.9969 6.90493 21.154 6.52452 21.154 6.11929C21.154 5.71406 20.9969 5.33365 20.7157 5.05247L19.9053 4.25029C19.6241 3.96911 19.2437 3.81198 18.8384 3.81198C18.4332 3.81198 18.0528 3.96911 17.7716 4.25029C17.5731 4.44876 17.2672 4.51492 17.0025 4.39915L14.9929 3.56388C14.7283 3.45637 14.5629 3.20001 14.5629 2.91056C14.5629 2.0753 13.8848 1.39716 13.0495 1.39716H11.9082C11.073 1.39716 10.3948 2.0753 10.3948 2.91056C10.3948 3.19174 10.2212 3.4481 9.96481 3.56388L7.93868 4.40742C7.67404 4.51492 7.37632 4.45704 7.16957 4.25856C6.88839 3.97738 6.50798 3.82025 6.10275 3.82025C5.69753 3.82025 5.31711 3.97738 5.03593 4.25856L4.23375 5.06901C3.64658 5.65618 3.64658 6.61549 4.23375 7.21092C4.43223 7.4094 4.49838 7.71539 4.39088 7.98002L3.55561 9.98962C3.4481 10.2543 3.19174 10.4197 2.90229 10.4197C2.06703 10.4197 1.38889 11.0978 1.38889 11.9331V13.0743C1.38889 13.9096 2.06703 14.5877 2.90229 14.5877C3.18347 14.5877 3.43983 14.7614 3.55561 15.0177L4.39915 17.0439C4.50665 17.3085 4.44877 17.6062 4.25029 17.813C3.96911 18.0942 3.81198 18.4746 3.81198 18.8798C3.81198 19.285 3.96911 19.6654 4.25029 19.9466L5.06074 20.7488C5.34192 21.03 5.72233 21.1871 6.12756 21.1871C6.53279 21.1871 6.9132 21.03 7.19438 20.7488C7.39286 20.5503 7.69885 20.4842 7.96349 20.5999L9.97308 21.4352C10.2377 21.5427 10.4114 21.7991 10.4114 22.0885C10.4114 22.9238 11.0895 23.6019 11.9248 23.6019H13.066C13.4547 23.6019 13.769 23.9162 13.769 24.3049C13.769 24.6936 13.4547 25.0078 13.066 25.0078V24.9913Z" fill="white"/>
<path d="M8.75778 15.6782C8.52623 15.6782 8.30294 15.5707 8.17062 15.364C7.60826 14.5122 7.31055 13.5198 7.31055 12.4943C7.31055 9.6329 9.64267 7.30078 12.5041 7.30078C13.728 7.30078 14.9189 7.73082 15.8534 8.52473C16.1511 8.77283 16.1842 9.21941 15.9361 9.51712C15.688 9.81484 15.2414 9.84792 14.9437 9.59982C14.2656 9.02093 13.3972 8.70667 12.5041 8.70667C10.4118 8.70667 8.71643 10.402 8.71643 12.4943C8.71643 13.2386 8.93145 13.9663 9.34495 14.5866C9.55997 14.9091 9.469 15.3474 9.14647 15.5624C9.02242 15.6451 8.8901 15.6782 8.75778 15.6782Z" fill="white"/>
<path d="M22.717 18.5394C21.584 18.5394 20.666 17.6214 20.666 16.4884C20.666 15.3555 21.584 14.4375 22.717 14.4375C23.8499 14.4375 24.7679 15.3555 24.7679 16.4884C24.7679 17.6214 23.8499 18.5394 22.717 18.5394ZM22.717 15.8434C22.3614 15.8434 22.0719 16.1328 22.0719 16.4884C22.0719 16.8441 22.3614 17.1335 22.717 17.1335C23.0726 17.1335 23.362 16.8441 23.362 16.4884C23.362 16.1328 23.0726 15.8434 22.717 15.8434Z" fill="white"/>
<path d="M18.6652 12.7431C18.4833 12.7431 18.3014 12.6769 18.169 12.5363L17.2924 11.6597L16.4158 12.5363C16.1429 12.8092 15.6963 12.8092 15.4234 12.5363C15.1505 12.2634 15.1505 11.8169 15.4234 11.5439L16.7962 10.1711C17.0609 9.9065 17.524 9.9065 17.7886 10.1711L19.1614 11.5439C19.4343 11.8169 19.4343 12.2634 19.1614 12.5363C19.0209 12.6769 18.8472 12.7431 18.6652 12.7431Z" fill="white"/>
<path d="M21.3684 17.1908H18.9701C17.6552 17.1908 16.5801 16.124 16.5801 14.8008V11.0545C16.5801 10.6658 16.8943 10.3516 17.283 10.3516C17.6717 10.3516 17.986 10.6658 17.986 11.0545V14.8008C17.986 15.3466 18.4243 15.7849 18.9701 15.7849H21.3684C21.7571 15.7849 22.0713 16.0992 22.0713 16.4879C22.0713 16.8765 21.7571 17.1908 21.3684 17.1908Z" fill="white"/>
<path d="M11.3048 19.1956C10.1719 19.1956 9.25391 18.2777 9.25391 17.1447C9.25391 16.0117 10.1719 15.0938 11.3048 15.0938C12.4378 15.0938 13.3558 16.0117 13.3558 17.1447C13.3558 18.2777 12.4378 19.1956 11.3048 19.1956ZM11.3048 16.4996C10.9492 16.4996 10.6598 16.7891 10.6598 17.1447C10.6598 17.5003 10.9492 17.7897 11.3048 17.7897C11.6605 17.7897 11.9499 17.5003 11.9499 17.1447C11.9499 16.7891 11.6605 16.4996 11.3048 16.4996Z" fill="white"/>
<path d="M16.7375 21.9326C16.3488 21.9326 16.0346 21.6184 16.0346 21.2297V18.8314C16.0346 18.2856 15.5963 17.8473 15.0504 17.8473H12.6522C12.2635 17.8473 11.9492 17.533 11.9492 17.1444C11.9492 16.7557 12.2635 16.4414 12.6522 16.4414H15.0504C16.3654 16.4414 17.4405 17.5082 17.4405 18.8314V21.2297C17.4405 21.6184 17.1262 21.9326 16.7375 21.9326Z" fill="white"/>
<path d="M16.7384 24.637C15.6055 24.637 14.6875 23.7191 14.6875 22.5861C14.6875 21.4531 15.6055 20.5352 16.7384 20.5352C17.8714 20.5352 18.7894 21.4531 18.7894 22.5861C18.7894 23.7191 17.8714 24.637 16.7384 24.637ZM16.7384 21.941C16.3828 21.941 16.0934 22.2305 16.0934 22.5861C16.0934 22.9417 16.3828 23.2312 16.7384 23.2312C17.094 23.2312 17.3835 22.9417 17.3835 22.5861C17.3835 22.2305 17.094 21.941 16.7384 21.941Z" fill="white"/>
</svg>
