<svg width="56" height="56" viewBox="0 0 56 56" fill="none" xmlns="http://www.w3.org/2000/svg">
<g clip-path="url(#clip0_0_2425)">
<path d="M24.5104 13.0108H31.4088C32.6815 13.0108 33.8947 13.5222 34.7867 14.4262L44.9323 24.7025H38.01L27.9001 14.4262C26.0328 12.535 22.9879 12.535 21.1325 14.4262L11.0107 24.7025" stroke="#0F1134" stroke-width="1.7" stroke-linecap="round" stroke-linejoin="round"/>
<path d="M36.3689 23.2041V37.6433C36.3689 40.2719 34.2398 42.4009 31.6113 42.4009H17.4099C14.7814 42.4009 12.6523 40.2719 12.6523 37.6433V23.2041" stroke="#0F1134" stroke-width="1.7" stroke-linecap="round" stroke-linejoin="round"/>
<path d="M43.2909 24.7021V37.6309C43.2909 40.2594 41.1618 42.3884 38.5333 42.3884H28.1855" stroke="#0F1134" stroke-width="1.7" stroke-linecap="round" stroke-linejoin="round"/>
<path d="M24.5111 32.0417C25.8051 32.0417 26.8542 30.9926 26.8542 29.6986C26.8542 28.4045 25.8051 27.3555 24.5111 27.3555C23.217 27.3555 22.168 28.4045 22.168 29.6986C22.168 30.9926 23.217 32.0417 24.5111 32.0417Z" stroke="#0F1134" stroke-width="1.7" stroke-linecap="round" stroke-linejoin="round"/>
<path fill-rule="evenodd" clip-rule="evenodd" d="M31.5164 31.6253L30.4697 31.0187C30.5649 30.5905 30.6244 30.1623 30.6244 29.7104C30.6244 29.2584 30.5649 28.8183 30.4697 28.402L31.5164 27.7954C32.0041 27.51 32.2063 26.9034 31.9803 26.392C31.7424 25.8567 31.445 25.3572 31.112 24.9052C30.779 24.4533 30.1486 24.3343 29.6729 24.6079L28.6143 25.2145C27.972 24.6317 27.1989 24.1916 26.3544 23.918V22.6811C26.3544 22.122 25.9382 21.6463 25.3791 21.5749C25.0937 21.5392 24.8082 21.5273 24.5109 21.5273C24.2135 21.5273 23.9281 21.5392 23.6426 21.5749C23.0836 21.6344 22.6673 22.122 22.6673 22.6811V23.918C21.8228 24.1916 21.0497 24.6317 20.4075 25.2145L19.3489 24.6079C18.8613 24.3224 18.2428 24.4533 17.9097 24.9052C17.5648 25.3691 17.2794 25.8686 17.0415 26.392C16.8155 26.9034 17.0177 27.51 17.5053 27.7954L18.552 28.402C18.4569 28.8302 18.3974 29.2584 18.3974 29.7104C18.3974 30.1623 18.4569 30.6024 18.552 31.0187L17.5053 31.6253C17.0177 31.9108 16.8155 32.5173 17.0415 33.0288C17.2794 33.564 17.5767 34.0517 17.9097 34.5155C18.2428 34.9675 18.8732 35.0864 19.3489 34.8129L20.4075 34.2063C21.0497 34.7891 21.8228 35.2292 22.6673 35.5027V36.7397C22.6673 37.2987 23.0836 37.7745 23.6426 37.8458C23.9281 37.8815 24.2135 37.8934 24.5109 37.8934C24.8082 37.8934 25.0937 37.8815 25.3791 37.8458C25.9382 37.7864 26.3544 37.2987 26.3544 36.7397V35.5027C27.1989 35.2292 27.972 34.7891 28.6143 34.2063L29.6729 34.8129C30.1605 35.0983 30.779 34.9675 31.112 34.5155C31.4569 34.0517 31.7424 33.5521 31.9803 33.0288C32.2063 32.5173 32.0041 31.9108 31.5164 31.6253Z" stroke="#0F1134" stroke-width="1.7" stroke-linecap="round" stroke-linejoin="round"/>
</g>
<defs>
<clipPath id="clip0_0_2425">
<rect width="35.9554" height="31.4" fill="white" transform="translate(10 12)"/>
</clipPath>
</defs>
</svg>
