<svg width="56" height="56" viewBox="0 0 56 56" fill="none" xmlns="http://www.w3.org/2000/svg">
<g clip-path="url(#clip0_333_422)">
<path d="M17.0088 22.9199C17.0088 24.205 18.1665 25.2238 19.4979 24.9922C20.3546 24.8417 21.0608 24.1239 21.1997 23.2672C21.4081 21.9706 20.4356 20.8592 19.1853 20.8244C18.3286 20.8013 17.495 20.3729 17.1824 19.5625C16.5804 18.0459 17.6803 16.6104 19.1158 16.6104C20.2736 16.6104 21.2229 17.5481 21.2229 18.7174" stroke="#000" stroke-width="1.7" stroke-linecap="round" stroke-linejoin="round"/>
<path d="M19.1162 25.0269V26.2077" stroke="#000" stroke-width="1.7" stroke-linecap="round" stroke-linejoin="round"/>
<path d="M19.1162 15.418V16.5988" stroke="#000" stroke-width="1.7" stroke-linecap="round" stroke-linejoin="round"/>
<path d="M36.9678 22.6535V19.9561" stroke="#000" stroke-width="1.7" stroke-linecap="round" stroke-linejoin="round"/>
<path d="M27.9956 10.9839H16.6268C14.0567 10.9839 11.9844 13.0678 11.9844 15.6263V39.3595C11.9844 41.9297 14.0683 44.002 16.6268 44.002L28.1345 44.1293" stroke="#000" stroke-width="1.7" stroke-linecap="round" stroke-linejoin="round"/>
<path d="M27.9951 10.9839L36.9674 19.9562" stroke="#000" stroke-width="1.7" stroke-linecap="round" stroke-linejoin="round"/>
<path d="M27.9951 10.9839V19.9562H36.9674" stroke="#000" stroke-width="1.7" stroke-linecap="round" stroke-linejoin="round"/>
<path d="M39.6539 26.208H34.2821C31.7181 26.208 29.6396 28.2865 29.6396 30.8505V39.487C29.6396 42.051 31.7181 44.1295 34.2821 44.1295H39.6539C42.2178 44.1295 44.2963 42.051 44.2963 39.487V30.8505C44.2963 28.2865 42.2178 26.208 39.6539 26.208Z" stroke="#000" stroke-width="1.7" stroke-linecap="round" stroke-linejoin="round"/>
<path d="M40.7998 29.8779H33.1357V33.9531H40.7998V29.8779Z" stroke="#000" stroke-width="1.7" stroke-linecap="round" stroke-linejoin="round"/>
<path d="M33.7487 38.5842C34.4264 38.5842 34.9758 38.0348 34.9758 37.3571C34.9758 36.6793 34.4264 36.1299 33.7487 36.1299C33.0709 36.1299 32.5215 36.6793 32.5215 37.3571C32.5215 38.0348 33.0709 38.5842 33.7487 38.5842Z" fill="#000"/>
<path d="M36.9674 38.5842C37.6452 38.5842 38.1946 38.0348 38.1946 37.3571C38.1946 36.6793 37.6452 36.1299 36.9674 36.1299C36.2897 36.1299 35.7402 36.6793 35.7402 37.3571C35.7402 38.0348 36.2897 38.5842 36.9674 38.5842Z" fill="#000"/>
<path d="M40.1744 38.5842C40.8522 38.5842 41.4016 38.0348 41.4016 37.3571C41.4016 36.6793 40.8522 36.1299 40.1744 36.1299C39.4967 36.1299 38.9473 36.6793 38.9473 37.3571C38.9473 38.0348 39.4967 38.5842 40.1744 38.5842Z" fill="#000"/>
<path d="M33.7487 41.6868C34.4264 41.6868 34.9758 41.1374 34.9758 40.4596C34.9758 39.7818 34.4264 39.2324 33.7487 39.2324C33.0709 39.2324 32.5215 39.7818 32.5215 40.4596C32.5215 41.1374 33.0709 41.6868 33.7487 41.6868Z" fill="#000"/>
<path d="M36.9674 41.6868C37.6452 41.6868 38.1946 41.1374 38.1946 40.4596C38.1946 39.7818 37.6452 39.2324 36.9674 39.2324C36.2897 39.2324 35.7402 39.7818 35.7402 40.4596C35.7402 41.1374 36.2897 41.6868 36.9674 41.6868Z" fill="#000"/>
<path d="M40.1744 41.6868C40.8522 41.6868 41.4016 41.1374 41.4016 40.4596C41.4016 39.7818 40.8522 39.2324 40.1744 39.2324C39.4967 39.2324 38.9473 39.7818 38.9473 40.4596C38.9473 41.1374 39.4967 41.6868 40.1744 41.6868Z" fill="#000"/>
<path d="M17.0088 29.8779H25.599" stroke="#000" stroke-width="1.7" stroke-linecap="round" stroke-linejoin="round"/>
<path d="M16.7891 33.9531H28.6557" stroke="#000" stroke-width="1.7" stroke-linecap="round" stroke-linejoin="round"/>
<path d="M16.7891 37.9937H28.6557" stroke="#000" stroke-width="1.7" stroke-linecap="round" stroke-linejoin="round"/>
</g>
<defs>
<clipPath id="clip0_333_422">
<rect width="34.28" height="35.1251" fill="white" transform="translate(11 10)"/>
</clipPath>
</defs>
</svg>
