<svg width="56" height="56" viewBox="0 0 56 56" fill="none" xmlns="http://www.w3.org/2000/svg">
<g clip-path="url(#clip0_0_2439)">
<path fill-rule="evenodd" clip-rule="evenodd" d="M45.4803 28.8121V27.1752C45.4803 25.4197 44.0451 23.9844 42.2895 23.9844L41.0796 21.0665C42.3133 19.821 42.3133 17.7927 41.0796 16.559L39.9172 15.3966C38.6717 14.163 36.6434 14.163 35.4098 15.3966L32.5156 14.1986C32.5156 12.4431 31.0803 11.0078 29.3248 11.0078H27.6879C25.9324 11.0078 24.4971 12.4431 24.4971 14.1986L21.5792 15.4085C20.3337 14.1749 18.3054 14.1749 17.0717 15.4085L15.9093 16.5709C14.6757 17.8164 14.6757 19.8447 15.9093 21.0783L14.7113 23.9726C12.9558 23.9726 11.5205 25.4078 11.5205 27.1633V28.8002C11.5205 30.5558 12.9558 31.991 14.7113 31.991L15.9212 34.909C14.6876 36.1544 14.6876 38.1828 15.9212 39.4164L17.0836 40.5788C18.3291 41.8124 20.3574 41.8124 21.591 40.5788L24.4853 41.7768C24.4853 43.5324 25.9205 44.9676 27.676 44.9676H29.3248C31.0803 44.9676 32.5156 43.5442 32.5156 41.7887L35.4098 40.5907C36.6553 41.8361 38.6836 41.8361 39.9172 40.5907L41.0796 39.4282C42.3251 38.1828 42.3251 36.1544 41.0796 34.9208L42.2895 32.0029C44.0451 32.0029 45.4803 30.5676 45.4803 28.8121Z" stroke="#000" stroke-width="1.7" stroke-linecap="round" stroke-linejoin="round"/>
<path d="M31.2104 21.1973C33.903 22.2767 35.8128 24.91 35.8128 27.994C35.8128 32.0388 32.539 35.3126 28.4941 35.3126" stroke="#000" stroke-width="1.7" stroke-linecap="round" stroke-linejoin="round"/>
<path d="M25.7664 34.7911C23.0738 33.7117 21.1641 31.0784 21.1641 27.9944C21.1641 23.9496 24.4379 20.6758 28.4827 20.6758" stroke="#000" stroke-width="1.7" stroke-linecap="round" stroke-linejoin="round"/>
<path d="M31.3884 37.1626L28.4941 35.3122L30.3446 32.418" stroke="#000" stroke-width="1.7" stroke-linecap="round" stroke-linejoin="round"/>
<path d="M25.5996 18.8252L28.4938 20.6756L26.6434 23.5817" stroke="#000" stroke-width="1.7" stroke-linecap="round" stroke-linejoin="round"/>
</g>
<defs>
<clipPath id="clip0_0_2439">
<rect width="35.9881" height="36" fill="white" transform="translate(10.5 10)"/>
</clipPath>
</defs>
</svg>
