<svg width="56" height="56" viewBox="0 0 56 56" fill="none" xmlns="http://www.w3.org/2000/svg">
<g clip-path="url(#clip0_0_2451)">
<path d="M40.9798 31.1498C41.8098 30.6898 42.3798 29.8098 42.3798 28.7998V27.4198C42.3798 25.9498 41.1698 24.7398 39.6998 24.7398L38.6798 22.2898C39.7198 21.2498 39.7198 19.5398 38.6798 18.4998L37.6998 17.5298C36.6598 16.4898 34.9498 16.4898 33.9098 17.5298L31.4798 16.5198C31.4798 15.0498 30.2698 13.8398 28.7998 13.8398H27.4198C25.9498 13.8398 24.7398 15.0498 24.7398 16.5198L22.2898 17.5398C21.2498 16.4998 19.5398 16.4998 18.4998 17.5398L17.5298 18.5198C16.4898 19.5598 16.4898 21.2698 17.5298 22.3098L16.5198 24.7398C15.0498 24.7398 13.8398 25.9498 13.8398 27.4198V28.7998C13.8398 30.2698 15.0498 31.4798 16.5198 31.4798L17.5398 33.9298C16.4998 34.9698 16.4998 36.6798 17.5398 37.7198L18.5198 38.6898C19.5598 39.7298 21.2698 39.7298 22.3098 38.6898L24.7398 39.6998C24.7398 41.1698 25.9498 42.3798 27.4198 42.3798H28.7998C29.8398 42.3798 30.7498 41.7798 31.1898 40.8998" stroke="#000" stroke-width="1.7" stroke-linecap="round" stroke-linejoin="round"/>
<path d="M42.2896 38.6696L37.9296 34.3096C38.4396 32.5596 38.0096 30.5996 36.6296 29.2196C35.1296 27.7196 32.9196 27.3396 31.0696 28.0796L33.8496 30.8596C34.6396 31.6496 34.6396 32.9196 33.8496 33.7096C33.0596 34.4996 31.7896 34.4996 30.9996 33.7096L28.2196 30.9296C27.3896 32.9896 27.9496 35.4796 29.8896 36.9596C31.1996 37.9596 32.8996 38.2196 34.4296 37.7796L39.0196 42.3696" stroke="#000" stroke-width="1.7" stroke-linecap="round" stroke-linejoin="round"/>
<path d="M25.2197 32.7097C23.6897 31.7497 22.6797 30.0497 22.6797 28.1097C22.6797 25.1097 25.1097 22.6797 28.1097 22.6797C29.9797 22.6797 31.6397 23.6297 32.6097 25.0697" stroke="#000" stroke-width="1.7" stroke-linecap="round" stroke-linejoin="round"/>
</g>
<defs>
<clipPath id="clip0_0_2451">
<rect width="30.23" height="30.23" fill="white" transform="translate(13 13)"/>
</clipPath>
</defs>
</svg>
