<svg width="56" height="56" viewBox="0 0 56 56" fill="none" xmlns="http://www.w3.org/2000/svg">
<g clip-path="url(#clip0_0_2462)">
<path d="M44.9874 28.8154V27.172C44.9874 25.4214 43.5465 23.9805 41.7959 23.9805L40.5812 21.0629C41.8197 19.8243 41.8197 17.788 40.5812 16.5495L39.4142 15.3943C38.1757 14.1558 36.1393 14.1558 34.9008 15.3943L32.0069 14.1915C32.0069 12.441 30.566 11 28.8154 11H27.172C25.4214 11 23.9805 12.441 23.9805 14.1915L21.0629 15.4062C19.8243 14.1677 17.788 14.1677 16.5495 15.4062L15.3943 16.5733C14.1558 17.8118 14.1558 19.8482 15.3943 21.0867L14.1915 23.9805C12.441 23.9805 11 25.4214 11 27.172V28.8154C11 30.566 12.441 32.0069 14.1915 32.0069L15.4062 34.9246C14.1677 36.1631 14.1677 38.1995 15.4062 39.438L16.5733 40.5931C17.8118 41.8316 19.8482 41.8316 21.0867 40.5931L23.9805 41.7959C23.9805 43.5465 25.4214 44.9874 27.172 44.9874H28.8154" stroke="#000" stroke-width="1.7" stroke-linecap="round" stroke-linejoin="round"/>
<path d="M22.6108 31.5664C21.9321 30.5422 21.5391 29.3156 21.5391 27.9938C21.5391 24.4212 24.4329 21.5273 28.0055 21.5273C29.5893 21.5273 31.0422 22.099 32.1735 23.0517" stroke="#000" stroke-width="1.7" stroke-linecap="round" stroke-linejoin="round"/>
<path d="M42.7136 35.6869C43.7856 35.6869 44.6547 34.8179 44.6547 33.7458C44.6547 32.6738 43.7856 31.8047 42.7136 31.8047C41.6415 31.8047 40.7725 32.6738 40.7725 33.7458C40.7725 34.8179 41.6415 35.6869 42.7136 35.6869Z" stroke="#000" stroke-width="1.7" stroke-linecap="round" stroke-linejoin="round"/>
<path d="M36.8777 27.3391L34.889 25.3623L32.9121 27.3391" stroke="#000" stroke-width="1.7" stroke-linecap="round" stroke-linejoin="round"/>
<path d="M40.7725 33.7459H37.319C35.9733 33.7459 34.8896 32.6622 34.8896 31.3165V25.9219" stroke="#000" stroke-width="1.7" stroke-linecap="round" stroke-linejoin="round"/>
<path d="M26.279 36.6283C27.3511 36.6283 28.2201 35.7593 28.2201 34.6872C28.2201 33.6152 27.3511 32.7461 26.279 32.7461C25.207 32.7461 24.3379 33.6152 24.3379 34.6872C24.3379 35.7593 25.207 36.6283 26.279 36.6283Z" stroke="#000" stroke-width="1.7" stroke-linecap="round" stroke-linejoin="round"/>
<path d="M28.2207 34.6865H31.6742C33.0199 34.6865 34.1036 35.7702 34.1036 37.1159V40.5694" stroke="#000" stroke-width="1.7" stroke-linecap="round" stroke-linejoin="round"/>
<path d="M34.1032 44.4516C35.1753 44.4516 36.0443 43.5825 36.0443 42.5105C36.0443 41.4384 35.1753 40.5693 34.1032 40.5693C33.0312 40.5693 32.1621 41.4384 32.1621 42.5105C32.1621 43.5825 33.0312 44.4516 34.1032 44.4516Z" stroke="#000" stroke-width="1.7" stroke-linecap="round" stroke-linejoin="round"/>
</g>
<defs>
<clipPath id="clip0_0_2462">
<rect width="36" height="36" fill="white" transform="translate(10 10)"/>
</clipPath>
</defs>
</svg>
