<svg width="56" height="56" viewBox="0 0 56 56" fill="none" xmlns="http://www.w3.org/2000/svg">
<g clip-path="url(#clip0_0_2478)">
<path d="M36.6139 38.8449C37.9048 38.8449 38.9514 37.7984 38.9514 36.5074C38.9514 35.2165 37.9048 34.1699 36.6139 34.1699C35.3229 34.1699 34.2764 35.2165 34.2764 36.5074C34.2764 37.7984 35.3229 38.8449 36.6139 38.8449Z" stroke="#000" stroke-width="1.7" stroke-linecap="round" stroke-linejoin="round"/>
<path fill-rule="evenodd" clip-rule="evenodd" d="M43.6027 38.4176L42.5585 37.8124C42.6535 37.3853 42.7128 36.9581 42.7128 36.5072C42.7128 36.0563 42.6535 35.6173 42.5585 35.202L43.6027 34.5969C44.0892 34.3121 44.2909 33.707 44.0655 33.1967C43.8281 32.6628 43.5315 32.1644 43.1993 31.7136C42.867 31.2627 42.2382 31.144 41.7635 31.4169L40.7075 32.0221C40.0668 31.4407 39.2955 31.0016 38.4531 30.7287V29.4947C38.4531 28.937 38.0378 28.4624 37.4801 28.3912C37.1953 28.3556 36.9105 28.3438 36.6139 28.3438C36.3173 28.3438 36.0325 28.3556 35.7477 28.3912C35.19 28.4505 34.7747 28.937 34.7747 29.4947V30.7287C33.9323 31.0016 33.161 31.4407 32.5203 32.0221L31.4643 31.4169C30.9778 31.1321 30.3608 31.2627 30.0285 31.7136C29.6844 32.1763 29.3997 32.6747 29.1624 33.1967C28.9369 33.707 29.1386 34.3121 29.6251 34.5969L30.6693 35.202C30.5744 35.6292 30.515 36.0563 30.515 36.5072C30.515 36.9581 30.5744 37.3971 30.6693 37.8124L29.6251 38.4176C29.1386 38.7024 28.9369 39.3075 29.1624 39.8177C29.3997 40.3517 29.6963 40.8381 30.0285 41.3009C30.3608 41.7518 30.9896 41.8704 31.4643 41.5975L32.5203 40.9924C33.161 41.5738 33.9323 42.0128 34.7747 42.2857V43.5198C34.7747 44.0774 35.19 44.5521 35.7477 44.6232C36.0325 44.6588 36.3173 44.6707 36.6139 44.6707C36.9105 44.6707 37.1953 44.6588 37.4801 44.6232C38.0378 44.5639 38.4531 44.0774 38.4531 43.5198V42.2857C39.2955 42.0128 40.0668 41.5738 40.7075 40.9924L41.7635 41.5975C42.25 41.8823 42.867 41.7518 43.1993 41.3009C43.5434 40.8381 43.8281 40.3398 44.0655 39.8177C44.2909 39.3075 44.0892 38.7024 43.6027 38.4176Z" stroke="#000" stroke-width="1.7" stroke-linecap="round" stroke-linejoin="round"/>
<path d="M36.6143 23.5976V20.2041" stroke="#000" stroke-width="1.7" stroke-linecap="round" stroke-linejoin="round"/>
<path d="M27.4188 11.0088H15.7669C13.1327 11.0088 11.0088 13.1446 11.0088 15.7669V40.0912C11.0088 42.7253 13.1446 44.8493 15.7669 44.8493L28.2138 44.9798" stroke="#000" stroke-width="1.7" stroke-linecap="round" stroke-linejoin="round"/>
<path d="M27.4189 11.0088L36.6147 20.2046" stroke="#000" stroke-width="1.7" stroke-linecap="round" stroke-linejoin="round"/>
<path d="M27.4189 11.0088V20.2046H36.6147" stroke="#000" stroke-width="1.7" stroke-linecap="round" stroke-linejoin="round"/>
<path d="M16.0273 21.498H22.7788" stroke="#000" stroke-width="1.7" stroke-linecap="round" stroke-linejoin="round"/>
<path d="M16.0273 25.1641H28.2844" stroke="#000" stroke-width="1.7" stroke-linecap="round" stroke-linejoin="round"/>
<path d="M16.0273 28.8311H28.2844" stroke="#000" stroke-width="1.7" stroke-linecap="round" stroke-linejoin="round"/>
<path d="M16.0273 39.2486C16.0273 39.2486 20.6549 35.8432 19.2785 35.4635C17.9021 35.0838 16.8461 42.4167 18.2937 40.886C19.7413 39.3554 20.4295 38.2638 21.5923 38.2756C22.7551 38.2875 25.9588 37.9553 25.9588 37.9553" stroke="#000" stroke-width="1.7" stroke-linecap="round" stroke-linejoin="round"/>
</g>
<defs>
<clipPath id="clip0_0_2478">
<rect width="35.1694" height="36" fill="white" transform="translate(10 10)"/>
</clipPath>
</defs>
</svg>
