<svg width="56" height="56" viewBox="0 0 56 56" fill="none" xmlns="http://www.w3.org/2000/svg">
<g clip-path="url(#clip0_0_2498)">
<path fill-rule="evenodd" clip-rule="evenodd" d="M40.5837 44.9902H32.2578C28.4452 44.9902 26.141 40.7618 28.2195 37.5669L34.0987 28.4807C35.1914 26.7942 37.65 26.7942 38.7427 28.4807L44.622 37.5669C46.7005 40.7737 44.3963 44.9902 40.5837 44.9902Z" stroke="#000" stroke-width="1.7" stroke-linecap="round" stroke-linejoin="round"/>
<path d="M36.415 32.8281V38.9449" stroke="#000" stroke-width="1.7" stroke-linecap="round" stroke-linejoin="round"/>
<path d="M44.99 28.8131V27.1741C44.99 25.4162 43.5528 23.9791 41.795 23.9791L40.5835 21.0573C41.8187 19.8102 41.8187 17.791 40.5835 16.5439L39.4195 15.3799C38.1724 14.1447 36.1533 14.1447 34.9062 15.3799L32.0081 14.1803C32.0081 12.4225 30.571 10.9854 28.8131 10.9854H27.1741C25.4162 10.9854 23.9791 12.4225 23.9791 14.1803L21.0573 15.3918C19.8102 14.1566 17.791 14.1566 16.5439 15.3918L15.3799 16.5558C14.1447 17.8029 14.1447 19.822 15.3799 21.0692L14.1803 23.9672C12.4225 23.9672 10.9854 25.4044 10.9854 27.1622V28.8013C10.9854 30.5591 12.4225 31.9962 14.1803 31.9962L15.3918 34.918C14.1566 36.1652 14.1566 38.1843 15.3918 39.4314L16.5558 40.5954C17.8029 41.8306 19.822 41.8306 21.0692 40.5954L23.9672 41.795" stroke="#000" stroke-width="1.7" stroke-linecap="round" stroke-linejoin="round"/>
<path d="M26.1886 34.3368C23.433 33.5411 21.4258 30.9993 21.4258 27.9944C21.4258 24.3481 24.3832 21.3906 28.0295 21.3906C30.4169 21.3906 32.5192 22.6615 33.6712 24.5737" stroke="#000" stroke-width="1.7" stroke-linecap="round" stroke-linejoin="round"/>
</g>
<defs>
<clipPath id="clip0_0_2498">
<rect width="36.4157" height="36" fill="white" transform="translate(10 10)"/>
</clipPath>
</defs>
</svg>
