<svg width="56" height="56" viewBox="0 0 56 56" fill="none" xmlns="http://www.w3.org/2000/svg">
<g clip-path="url(#clip0_0_2512)">
<path d="M41.788 23.978L40.5777 21.059C41.8117 19.8132 41.8117 17.7841 40.5777 16.5501L39.4149 15.3873C38.169 14.1533 36.14 14.1533 34.906 15.3873L32.0108 14.1889C32.0108 12.4328 30.575 10.9971 28.8189 10.9971H27.1815C25.4254 10.9971 23.9897 12.4328 23.9897 14.1889L21.0708 15.3992C19.8249 14.1652 17.7959 14.1652 16.5619 15.3992L15.399 16.562C14.165 17.8079 14.165 19.8369 15.399 21.0709L14.2006 23.9661C12.4445 23.9661 11.0088 25.4018 11.0088 27.1579V28.7954C11.0088 30.5515 12.4445 31.9872 14.2006 31.9872L15.4109 34.9061C14.1769 36.152 14.1769 38.181 15.4109 39.415L16.5737 40.5778C17.8196 41.8118 19.8486 41.8118 21.0826 40.5778L23.9778 41.7762C23.9778 43.5323 25.4135 44.9681 27.1696 44.9681H28.8189C29.697 44.9799 30.492 44.624 31.0734 44.0426" stroke="#000" stroke-width="1.7" stroke-linecap="round" stroke-linejoin="round"/>
<path d="M26.9083 19.7181L19.7771 28.9851C19.433 29.436 19.7059 30.0886 20.2636 30.1717L24.9979 30.8124L25.5319 35.8908C25.6031 36.5672 26.4692 36.7926 26.8727 36.2468L33.8377 26.6357C34.1581 26.1967 33.8971 25.5678 33.3631 25.4729L29.0203 24.7373L28.2372 20.0385C28.1304 19.3978 27.3117 19.1961 26.9201 19.7063L26.9083 19.7181Z" stroke="#000" stroke-width="1.7" stroke-linecap="round" stroke-linejoin="round"/>
<path fill-rule="evenodd" clip-rule="evenodd" d="M44.9675 33.8739C44.9675 35.3215 44.4335 36.7809 43.33 37.8844C41.1349 40.1151 37.5515 40.1389 35.3208 37.9319C33.0901 35.7249 33.0663 32.1534 35.2733 29.9227C36.3768 28.8073 37.8126 28.2496 39.272 28.2377C39.6873 28.2377 41.9418 28.2259 44.9319 28.2021C44.9556 31.4296 44.9675 33.7671 44.9675 33.862V33.8739Z" stroke="#000" stroke-width="1.7" stroke-linecap="round" stroke-linejoin="round"/>
<path d="M39.3076 44.2802C36.5548 44.2802 34.3359 42.0495 34.3359 39.3086C34.3359 36.5676 36.5667 34.3369 39.3076 34.3369" stroke="#000" stroke-width="1.7" stroke-linecap="round" stroke-linejoin="round"/>
</g>
<defs>
<clipPath id="clip0_0_2512">
<rect width="35.9763" height="36" fill="white" transform="translate(10 10)"/>
</clipPath>
</defs>
</svg>
