<svg width="21" height="20" viewBox="0 0 21 20" fill="none" xmlns="http://www.w3.org/2000/svg">
<g clip-path="url(#clip0_0_18714)">
<path d="M14.4941 3.63184V13.6285" stroke="#008C9D" stroke-linecap="round" stroke-linejoin="round"/>
<path d="M17.2334 19.4378H4.26617C2.67172 19.4378 1.375 18.1411 1.375 16.5466V2.9707" stroke="#008C9D" stroke-linecap="round" stroke-linejoin="round"/>
<path d="M20.3296 10.8701V16.54C20.3296 18.1344 19.0329 19.4311 17.4385 19.4311H16.6975C15.4801 19.4311 14.501 18.4454 14.501 17.2347V10.8701" stroke="#008C9D" stroke-linecap="round" stroke-linejoin="round"/>
<path d="M9.85664 1.35641C10.3462 0.866833 11.0277 0.5625 11.7753 0.5625C13.2771 0.5625 14.4944 1.77983 14.4944 3.28165C14.4944 4.78347 13.2771 6.00081 11.7753 6.00081C11.0277 6.00081 10.3462 5.69647 9.85664 5.20689L6.01278 1.35641C5.5232 0.866833 4.84176 0.5625 4.09415 0.5625C2.59233 0.5625 1.375 1.77983 1.375 3.28165" stroke="#008C9D" stroke-linecap="round" stroke-linejoin="round"/>
<path d="M5.94629 8.01855H11.3978" stroke="#008C9D" stroke-linecap="round" stroke-linejoin="round"/>
<path d="M4.41113 11.3857H11.2454" stroke="#008C9D" stroke-linecap="round" stroke-linejoin="round"/>
<path d="M4.41113 14.7598H11.2454" stroke="#008C9D" stroke-linecap="round" stroke-linejoin="round"/>
<path d="M17.4121 16.2549V5.94727" stroke="#008C9D" stroke-linecap="round" stroke-linejoin="round"/>
</g>
<defs>
<clipPath id="clip0_0_18714">
<rect width="20.0794" height="20" fill="white" transform="translate(0.8125)"/>
</clipPath>
</defs>
</svg>
