<svg width="23" height="20" viewBox="0 0 23 20" fill="none" xmlns="http://www.w3.org/2000/svg">
<path d="M12.6526 4.40443C12.6526 2.33103 10.9727 0.643555 8.89176 0.643555H4.39687C2.32346 0.643555 0.643555 2.32346 0.643555 4.40443V8.89932C0.643555 10.9727 2.32346 12.6602 4.40443 12.6602H6.66701" stroke="#008C9D" stroke-linecap="round" stroke-linejoin="round"/>
<path d="M13.4474 19.3575H17.9423C20.0157 19.3575 21.7032 17.6776 21.7032 15.5966V11.1017C21.7032 9.0283 20.0233 7.34082 17.9423 7.34082H13.4474C11.374 7.34082 9.68652 9.02073 9.68652 11.1017V15.5966C9.68652 17.67 11.3664 19.3575 13.4474 19.3575Z" stroke="#008C9D" stroke-linecap="round" stroke-linejoin="round"/>
<path d="M17.3748 13.0161C18.1769 13.0161 18.8277 12.3654 18.8277 11.5632C18.8277 10.7611 18.1769 10.1104 17.3748 10.1104C16.5726 10.1104 15.9219 10.7611 15.9219 11.5632C15.9219 12.3654 16.5726 13.0161 17.3748 13.0161Z" stroke="#008C9D" stroke-linecap="round" stroke-linejoin="round"/>
<path d="M17.4954 18.8355C17.2306 17.4129 16.4587 16.1265 15.3388 15.2108C14.2113 14.2952 12.7962 13.8109 11.3433 13.8487C10.9271 13.8487 10.5109 13.8866 10.0947 13.9622" stroke="#008C9D" stroke-linecap="round" stroke-linejoin="round"/>
<path d="M20.9087 15.8542C20.2428 15.6272 19.539 15.5137 18.8277 15.5137C17.9348 15.5137 17.0494 15.6953 16.2246 16.0434" stroke="#008C9D" stroke-linecap="round" stroke-linejoin="round"/>
</svg>
