<svg width="22" height="20" viewBox="0 0 22 20" fill="none" xmlns="http://www.w3.org/2000/svg">
<g clip-path="url(#clip0_0_18826)">
<path d="M8.50776 5.10254H6.62907C4.95836 5.10254 3.59961 6.46129 3.59961 8.132V16.7906H18.9826V9.76112" stroke="#008C9D" stroke-linecap="round" stroke-linejoin="round"/>
<path d="M1.40137 16.79H21.1795V17.2198C21.1795 18.433 20.1951 19.4174 18.982 19.4174H3.59894C2.38577 19.4174 1.40137 18.433 1.40137 17.2198V16.79Z" stroke="#008C9D" stroke-linecap="round" stroke-linejoin="round"/>
<path d="M15.1069 0.588867L21.242 2.75178L15.1069 4.91469L8.97168 2.75178L15.1069 0.588867Z" stroke="#008C9D" stroke-linecap="round" stroke-linejoin="round"/>
<path d="M21.2422 2.75195V6.1627" stroke="#008C9D" stroke-linecap="round" stroke-linejoin="round"/>
<path d="M19.3978 3.74354V6.14215C19.3978 7.01563 18.6907 7.72967 17.8103 7.72967H12.3961C11.5226 7.72967 10.8086 7.02257 10.8086 6.14215V3.64648" stroke="#008C9D" stroke-linecap="round" stroke-linejoin="round"/>
<path d="M8.26465 10.9463H15.7239" stroke="#008C9D" stroke-linecap="round" stroke-linejoin="round"/>
<path d="M8.39648 13.4902H12.4519" stroke="#008C9D" stroke-linecap="round" stroke-linejoin="round"/>
</g>
<defs>
<clipPath id="clip0_0_18826">
<rect width="21.0191" height="20" fill="white" transform="translate(0.8125)"/>
</clipPath>
</defs>
</svg>
