<svg width="26" height="20" viewBox="0 0 26 20" fill="none" xmlns="http://www.w3.org/2000/svg">
<path d="M14.5864 0.75H8.21957C6.78219 0.75 5.61816 1.91402 5.61816 3.35141V16.6495C5.61816 18.0869 6.78219 19.2509 8.21957 19.2509H17.0115C18.4489 19.2509 19.6129 18.0869 19.6129 16.6495V5.77646" stroke="#008C9D" stroke-linecap="round" stroke-linejoin="round"/>
<path d="M8.86328 8.69531H16.3589" stroke="#008C9D" stroke-linecap="round" stroke-linejoin="round"/>
<path d="M8.86328 11.9844H16.3589" stroke="#008C9D" stroke-linecap="round" stroke-linejoin="round"/>
<path d="M8.86328 15.2734H14.0661" stroke="#008C9D" stroke-linecap="round" stroke-linejoin="round"/>
<path d="M14.5859 0.75L19.6124 5.77646" stroke="#008C9D" stroke-linecap="round" stroke-linejoin="round"/>
<path d="M14.5859 0.75V5.77646H19.6124" stroke="#008C9D" stroke-linecap="round" stroke-linejoin="round"/>
<path d="M5.16799 10.8818H0.75" stroke="#008C9D" stroke-linecap="round" stroke-linejoin="round"/>
<path d="M5.60853 13.792H1.74609V16.799" stroke="#008C9D" stroke-linecap="round" stroke-linejoin="round"/>
<path d="M5.60853 7.98069H1.74609V4.97363" stroke="#008C9D" stroke-linecap="round" stroke-linejoin="round"/>
<path d="M1.74617 5.29117C1.9215 5.29117 2.06363 5.14904 2.06363 4.97371C2.06363 4.79838 1.9215 4.65625 1.74617 4.65625C1.57084 4.65625 1.42871 4.79838 1.42871 4.97371C1.42871 5.14904 1.57084 5.29117 1.74617 5.29117Z" stroke="#008C9D" stroke-linecap="round" stroke-linejoin="round"/>
<path d="M1.74617 17.1164C1.9215 17.1164 2.06363 16.9742 2.06363 16.7989C2.06363 16.6236 1.9215 16.4814 1.74617 16.4814C1.57084 16.4814 1.42871 16.6236 1.42871 16.7989C1.42871 16.9742 1.57084 17.1164 1.74617 17.1164Z" stroke="#008C9D" stroke-linecap="round" stroke-linejoin="round"/>
<path d="M20.0537 10.8818H24.4717" stroke="#008C9D" stroke-linecap="round" stroke-linejoin="round"/>
<path d="M19.6123 7.98069H23.4747V4.97363" stroke="#008C9D" stroke-linecap="round" stroke-linejoin="round"/>
<path d="M19.6123 13.792H23.4747V16.799" stroke="#008C9D" stroke-linecap="round" stroke-linejoin="round"/>
<path d="M23.4747 17.1164C23.65 17.1164 23.7921 16.9742 23.7921 16.7989C23.7921 16.6236 23.65 16.4814 23.4747 16.4814C23.2994 16.4814 23.1572 16.6236 23.1572 16.7989C23.1572 16.9742 23.2994 17.1164 23.4747 17.1164Z" stroke="#008C9D" stroke-linecap="round" stroke-linejoin="round"/>
<path d="M23.4747 5.29117C23.65 5.29117 23.7921 5.14904 23.7921 4.97371C23.7921 4.79838 23.65 4.65625 23.4747 4.65625C23.2994 4.65625 23.1572 4.79838 23.1572 4.97371C23.1572 5.14904 23.2994 5.29117 23.4747 5.29117Z" stroke="#008C9D" stroke-linecap="round" stroke-linejoin="round"/>
</svg>
