<svg width="24" height="20" viewBox="0 0 24 20" fill="none" xmlns="http://www.w3.org/2000/svg">
<g clip-path="url(#clip0_0_18972)">
<path d="M11.9313 17.2254L3.0498 14.7678V0.625L9.58402 2.43515C10.9674 2.81779 11.9313 4.08343 11.9313 5.5183V17.2328V17.2254Z" stroke="#008C9D" stroke-linecap="round" stroke-linejoin="round"/>
<path d="M5.43359 5.3125L9.55427 6.4604" stroke="#008C9D" stroke-linecap="round" stroke-linejoin="round"/>
<path d="M5.43359 8.54297L9.55427 9.68351" stroke="#008C9D" stroke-linecap="round" stroke-linejoin="round"/>
<path d="M20.8122 14.7678V0.625L14.278 2.43515C12.8946 2.81779 11.9307 4.08343 11.9307 5.5183V17.2328L17.3611 15.7317" stroke="#008C9D" stroke-linecap="round" stroke-linejoin="round"/>
<path d="M20.812 2.77405L22.4309 2.3252V16.4679L11.9305 19.3745L1.4375 16.4679V2.3252L3.05634 2.77405" stroke="#008C9D" stroke-linecap="round" stroke-linejoin="round"/>
<path d="M18.4357 5.3125L14.3076 6.4604" stroke="#008C9D" stroke-linecap="round" stroke-linejoin="round"/>
<path d="M18.4357 8.54297L14.3076 9.68351" stroke="#008C9D" stroke-linecap="round" stroke-linejoin="round"/>
<path d="M16.7285 12.2373L14.3076 12.9069" stroke="#008C9D" stroke-linecap="round" stroke-linejoin="round"/>
</g>
<defs>
<clipPath id="clip0_0_18972">
<rect width="22.2443" height="20" fill="white" transform="translate(0.8125)"/>
</clipPath>
</defs>
</svg>
