<svg width="21" height="20" viewBox="0 0 21 20" fill="none" xmlns="http://www.w3.org/2000/svg">
<g clip-path="url(#clip0_0_18725)">
<path d="M8.5293 9.58578C8.72956 10.8341 9.32369 11.9556 10.1782 12.8101C10.3451 12.977 10.9392 13.5711 11.8137 14.4523V14.9329C11.8137 15.1332 11.9739 15.2934 12.1742 15.2934H16.5934C16.7936 15.2934 16.9539 15.1332 16.9539 14.9329V14.3655C17.3077 14.005 17.7549 13.5644 18.5093 12.8101C19.5774 11.742 20.2382 10.2667 20.2382 8.64453C20.2382 5.38685 17.6014 2.75 14.3437 2.75C14.0767 2.75 13.8097 2.77003 13.556 2.8034" stroke="#008C9D" stroke-linecap="round" stroke-linejoin="round"/>
<path d="M12.2411 17.4229H16.5401V18.3975C16.5401 18.9716 16.0728 19.4389 15.4987 19.4389H13.2758C12.7017 19.4389 12.2344 18.9716 12.2344 18.3975V17.4229H12.2411Z" stroke="#008C9D" stroke-linecap="round" stroke-linejoin="round"/>
<path d="M8.72301 7.46324H2.99537C2.10084 7.46324 1.37988 6.74228 1.37988 5.84776V2.18287C1.37988 1.28834 2.10084 0.567383 2.99537 0.567383H9.69764C10.5922 0.567383 11.3131 1.28834 11.3131 2.18287V8.92519C11.3131 9.37246 10.7724 9.59275 10.4587 9.279L8.64958 7.46992" stroke="#008C9D" stroke-linecap="round" stroke-linejoin="round"/>
<path d="M3.80957 2.75H8.87633" stroke="#008C9D" stroke-linecap="round" stroke-linejoin="round"/>
<path d="M3.80957 5.28711H7.7081" stroke="#008C9D" stroke-linecap="round" stroke-linejoin="round"/>
</g>
<defs>
<clipPath id="clip0_0_18725">
<rect width="20" height="20" fill="white" transform="translate(0.8125)"/>
</clipPath>
</defs>
</svg>
