<svg width="22" height="20" viewBox="0 0 22 20" fill="none" xmlns="http://www.w3.org/2000/svg">
<g clip-path="url(#clip0_0_18818)">
<path d="M17.4708 9.17698V10.1063C17.4708 13.7072 14.5532 16.6249 10.9522 16.6249M4.44043 9.17698V10.1063C4.44043 13.7072 7.35809 16.6249 10.959 16.6249V19.4196M10.959 19.4196H13.7537M10.959 19.4196H8.16438M10.959 13.837C8.90234 13.837 7.2351 12.1698 7.2351 10.1131V4.52375C7.2351 2.46704 8.90234 0.799805 10.959 0.799805C13.0158 0.799805 14.683 2.46704 14.683 4.52375V10.1063C14.683 12.163 13.0158 13.8302 10.959 13.8302V13.837Z" stroke="#008C9D" stroke-linecap="round" stroke-linejoin="round"/>
<path d="M17.4717 4.70755V1.43457" stroke="#008C9D" stroke-linecap="round" stroke-linejoin="round"/>
<path d="M20.5322 5.58276V0.567383" stroke="#008C9D" stroke-linecap="round" stroke-linejoin="round"/>
<path d="M4.44043 4.70755V1.43457" stroke="#008C9D" stroke-linecap="round" stroke-linejoin="round"/>
<path d="M1.37988 5.58276V0.567383" stroke="#008C9D" stroke-linecap="round" stroke-linejoin="round"/>
</g>
<defs>
<clipPath id="clip0_0_18818">
<rect width="20.287" height="20" fill="white" transform="translate(0.8125)"/>
</clipPath>
</defs>
</svg>
