<svg width="21" height="20" viewBox="0 0 21 20" fill="none" xmlns="http://www.w3.org/2000/svg">
<g clip-path="url(#clip0_0_18953)">
<path fill-rule="evenodd" clip-rule="evenodd" d="M17.749 19.4379H13.7861C11.9733 19.4379 10.875 17.4267 11.8674 15.905L14.666 11.5848C15.182 10.7842 16.353 10.7842 16.8757 11.5848L19.6743 15.905C20.66 17.4267 19.5684 19.4379 17.7556 19.4379H17.749Z" stroke="#008C9D" stroke-linecap="round" stroke-linejoin="round"/>
<path d="M15.7637 13.6494V16.1238" stroke="#008C9D" stroke-linecap="round" stroke-linejoin="round"/>
<path d="M15.8222 17.6923L15.8222 17.6923C15.8306 17.7135 15.8324 17.7235 15.8327 17.7257C15.8324 17.7384 15.8258 17.7563 15.8138 17.7683C15.8028 17.7793 15.7869 17.7858 15.7746 17.787C15.7739 17.7869 15.773 17.7867 15.772 17.7865C15.7656 17.785 15.7562 17.7824 15.7426 17.7779C15.7373 17.7742 15.7303 17.7689 15.7208 17.7611C15.7125 17.7495 15.708 17.7353 15.708 17.7249C15.708 17.715 15.7087 17.7078 15.7095 17.7026C15.7138 17.695 15.7175 17.6888 15.7208 17.6838C15.7238 17.6794 15.7258 17.6766 15.727 17.6751C15.7282 17.6743 15.7307 17.6729 15.7348 17.6713C15.7435 17.6679 15.7561 17.6651 15.7707 17.665C15.7967 17.6649 15.8097 17.6724 15.8131 17.6745C15.8134 17.6749 15.8137 17.6754 15.814 17.676C15.8165 17.6799 15.8194 17.6855 15.8222 17.6923Z" fill="#008C9D" stroke="#008C9D"/>
<path d="M14.3955 3.26172V9.34177" stroke="#008C9D" stroke-linecap="round" stroke-linejoin="round"/>
<path d="M15.9698 19.4377H4.03461C2.56587 19.4377 1.375 18.2468 1.375 16.7781V3.26172" stroke="#008C9D" stroke-linecap="round" stroke-linejoin="round"/>
<path d="M5.4043 9.30859H11.3454" stroke="#008C9D" stroke-linecap="round" stroke-linejoin="round"/>
<path d="M3.82993 9.3708C3.79513 9.3708 3.76758 9.34326 3.76758 9.30845C3.76758 9.27364 3.79513 9.24609 3.82993 9.24609C3.86474 9.24609 3.89229 9.27364 3.89229 9.30845C3.89229 9.34326 3.86474 9.3708 3.82993 9.3708Z" fill="#008C9D" stroke="#008C9D"/>
<path d="M5.4043 12.7158H11.3454" stroke="#008C9D" stroke-linecap="round" stroke-linejoin="round"/>
<path d="M3.82993 12.778C3.79513 12.778 3.76758 12.7505 3.76758 12.7157C3.76758 12.6809 3.79513 12.6533 3.82993 12.6533C3.86474 12.6533 3.89229 12.6809 3.89229 12.7157C3.89229 12.7505 3.86474 12.778 3.82993 12.778Z" fill="#008C9D" stroke="#008C9D"/>
<path d="M5.4043 16.123H9.02322" stroke="#008C9D" stroke-linecap="round" stroke-linejoin="round"/>
<path d="M3.82993 16.1853C3.79513 16.1853 3.76758 16.1577 3.76758 16.1229C3.76758 16.0881 3.79513 16.0605 3.82993 16.0605C3.86474 16.0605 3.89229 16.0881 3.89229 16.1229C3.89229 16.1577 3.86474 16.1853 3.82993 16.1853Z" fill="#008C9D" stroke="#008C9D"/>
<path d="M9.79048 1.3498C10.2801 0.860217 10.9549 0.5625 11.6959 0.5625C13.1845 0.5625 14.3952 1.7666 14.3952 3.26181C14.3952 4.75701 13.1845 5.96111 11.6959 5.96111C10.9483 5.96111 10.2801 5.65678 9.79048 5.17381L5.9797 1.3498C5.49012 0.860217 4.81529 0.5625 4.07431 0.5625C2.58572 0.5625 1.375 1.7666 1.375 3.26181" stroke="#008C9D" stroke-linecap="round" stroke-linejoin="round"/>
</g>
<defs>
<clipPath id="clip0_0_18953">
<rect width="19.7883" height="20" fill="white" transform="translate(0.8125)"/>
</clipPath>
</defs>
</svg>
