<svg width="22" height="20" viewBox="0 0 22 20" fill="none" xmlns="http://www.w3.org/2000/svg">
<g clip-path="url(#clip0_0_18837)">
<path d="M9.48455 5.20801H6.5686C4.91508 5.20801 3.57031 6.55278 3.57031 8.20629V16.7758H18.795V8.66598" stroke="#008C9D" stroke-linecap="round" stroke-linejoin="round"/>
<path d="M1.39551 16.7754H20.9701V17.2419C20.9701 18.4426 19.9959 19.4169 18.7952 19.4169H3.57047C2.36978 19.4169 1.39551 18.4426 1.39551 17.2419V16.7754Z" stroke="#008C9D" stroke-linecap="round" stroke-linejoin="round"/>
<path d="M11.1794 13.139C12.4563 13.139 13.4915 12.1038 13.4915 10.8268C13.4915 9.54985 12.4563 8.51465 11.1794 8.51465C9.90238 8.51465 8.86719 9.54985 8.86719 10.8268C8.86719 12.1038 9.90238 13.139 11.1794 13.139Z" stroke="#008C9D" stroke-linecap="round" stroke-linejoin="round"/>
<path d="M7.5498 16.775C7.5498 14.7716 9.17588 13.1387 11.1862 13.1387C13.1965 13.1387 14.8225 14.7647 14.8225 16.775" stroke="#008C9D" stroke-linecap="round" stroke-linejoin="round"/>
<path d="M13.2722 6.60732H16.2705C17.2653 6.60732 18.0681 5.80458 18.0681 4.80972V2.29858C18.0681 1.30372 17.2653 0.500977 16.2705 0.500977H13.2722C12.2774 0.500977 11.4746 1.30372 11.4746 2.29858V4.80972C11.4746 5.80458 12.2774 6.60732 13.2722 6.60732Z" stroke="#008C9D" stroke-linecap="round" stroke-linejoin="round"/>
<path d="M18.2671 2.99855C17.9995 3.22497 17.9995 3.78072 18.2671 4.00713L19.3168 4.88535L20.3666 5.76356C20.6342 5.98998 20.9704 5.70867 20.9704 5.26271V1.74984C20.9704 1.30387 20.6342 1.02257 20.3666 1.24898L19.3168 2.1272L18.2671 3.00542V2.99855Z" stroke="#008C9D" stroke-linecap="round" stroke-linejoin="round"/>
</g>
<defs>
<clipPath id="clip0_0_18837">
<rect width="20.741" height="20" fill="white" transform="translate(0.8125)"/>
</clipPath>
</defs>
</svg>
