<svg width="23" height="20" viewBox="0 0 23 20" fill="none" xmlns="http://www.w3.org/2000/svg">
<g clip-path="url(#clip0_0_18983)">
<path d="M12.6699 4.03613H19.0098" stroke="#008C9D" stroke-linecap="round" stroke-linejoin="round"/>
<path d="M17.6787 4.03613L17.7002 8.97352" stroke="#008C9D" stroke-linecap="round" stroke-linejoin="round"/>
<path d="M2.759 8.97363H1.4209" stroke="#008C9D" stroke-linecap="round" stroke-linejoin="round"/>
<path d="M1.4209 14.1468H17.9218C19.3458 14.1468 20.505 12.9876 20.505 11.5637C20.505 10.1397 19.3458 8.98047 17.9218 8.98047H10.5586" stroke="#008C9D" stroke-linecap="round" stroke-linejoin="round"/>
<path d="M2.75877 8.97363L2.7373 14.1472" stroke="#008C9D" stroke-linecap="round" stroke-linejoin="round"/>
<path d="M21.8357 19.3919H4.51186C3.05927 19.3919 1.88574 18.2184 1.88574 16.7658C1.88574 15.3132 3.05927 14.1396 4.51186 14.1396H21.8285" stroke="#008C9D" stroke-linecap="round" stroke-linejoin="round"/>
<path d="M20.4902 14.1475L20.5189 19.3925" stroke="#008C9D" stroke-linecap="round" stroke-linejoin="round"/>
<path fill-rule="evenodd" clip-rule="evenodd" d="M8.1618 6.98407L11.0741 5.25241L8.1618 3.52074L6.43014 0.608398L4.69848 3.52074L1.78613 5.25241L4.69848 6.98407L6.43014 9.89641L8.1618 6.98407Z" stroke="#008C9D" stroke-linecap="round" stroke-linejoin="round"/>
</g>
<defs>
<clipPath id="clip0_0_18983">
<rect width="21.6315" height="20" fill="white" transform="translate(0.8125)"/>
</clipPath>
</defs>
</svg>
