<svg width="22" height="20" viewBox="0 0 22 20" fill="none" xmlns="http://www.w3.org/2000/svg">
<g clip-path="url(#clip0_0_18846)">
<path d="M9.20852 5.29004H6.53958C4.89452 5.29004 3.55664 6.62792 3.55664 8.27297V16.7986H18.7034V9.30369" stroke="#008C9D" stroke-linecap="round" stroke-linejoin="round"/>
<path d="M1.39258 16.7988H20.867V17.263C20.867 18.4575 19.8977 19.4268 18.7032 19.4268H3.5564C2.36186 19.4268 1.39258 18.4575 1.39258 17.263V16.7988Z" stroke="#008C9D" stroke-linecap="round" stroke-linejoin="round"/>
<path d="M13.8292 7.25585H19.3036C20.1637 7.25585 20.8668 6.5596 20.8668 5.69271V2.14322C20.8668 1.28315 20.1705 0.580078 19.3036 0.580078H12.819C11.9589 0.580078 11.2559 1.27632 11.2559 2.14322V8.66881C11.2559 9.09885 11.7746 9.31728 12.0818 9.01011L13.8361 7.25585" stroke="#008C9D" stroke-linecap="round" stroke-linejoin="round"/>
<path d="M13.9386 4.05982C13.8939 4.05982 13.8584 4.0243 13.8584 3.97962C13.8584 3.93494 13.8939 3.89941 13.9386 3.89941C13.9833 3.89941 14.0188 3.93494 14.0188 3.97962C14.0188 4.0243 13.9833 4.05982 13.9386 4.05982Z" fill="#0F1134" stroke="#008C9D"/>
<path d="M16.2531 4.05982C16.2084 4.05982 16.1729 4.0243 16.1729 3.97962C16.1729 3.93494 16.2084 3.89941 16.2531 3.89941C16.2977 3.89941 16.3333 3.93494 16.3333 3.97962C16.3333 4.0243 16.2977 4.05982 16.2531 4.05982Z" fill="#0F1134" stroke="#008C9D"/>
<path d="M18.5734 4.05982C18.5287 4.05982 18.4932 4.0243 18.4932 3.97962C18.4932 3.93494 18.5287 3.89941 18.5734 3.89941C18.618 3.89941 18.6536 3.93494 18.6536 3.97962C18.6536 4.0243 18.618 4.05982 18.5734 4.05982Z" fill="#0F1134" stroke="#008C9D"/>
</g>
<defs>
<clipPath id="clip0_0_18846">
<rect width="20.6348" height="20" fill="white" transform="translate(0.8125)"/>
</clipPath>
</defs>
</svg>
